<svg xmlns="http://www.w3.org/2000/svg" xmlns:xlink="http://www.w3.org/1999/xlink" id="Layer_5" x="0px" y="0px" viewBox="0 0 512 512" style="enable-background:new 0 0 512 512;" xml:space="preserve"><style type="text/css">	.st0{fill:#FFFFFF;}</style><path class="st0" d="M88,328h80c13.2,0,24-10.8,24-24s-10.8-24-24-24H88c-13.2,0-24,10.8-24,24S74.8,328,88,328z M88,296h80 c4.4,0,8,3.6,8,8s-3.6,8-8,8H88c-4.4,0-8-3.6-8-8S83.6,296,88,296z"></path><path class="st0" d="M480,184c13.2,0,24-10.8,24-24V32c0-13.2-10.8-24-24-24h-56c-7.5,0-14.7,3.6-19.2,9.6L388,40h-68 c-13.2,0-24,10.8-24,24v32h-72.4C219.5,46.8,178.2,8,128,8c-52.9,0-96,43.1-96,96c0,50.2,38.8,91.5,88,95.6v48.6 C55.6,250,8,273.3,8,304v152c0,31.2,61.8,48,120,48s120-16.8,120-48v-48h48.4c4.1,53.6,49,96,103.6,96c57.3,0,104-46.7,104-104 c0-54.6-42.4-99.5-96-103.6V184H480z M480,168H320c-4.4,0-8-3.6-8-8V88h176v72C488,164.4,484.4,168,480,168z M320,56h76l21.6-28.8 c1.5-2,3.9-3.2,6.4-3.2h56c4.4,0,8,3.6,8,8v40H312v-8C312,59.6,315.6,56,320,56z M48,104c0-8.4,1.3-16.4,3.7-24h30.7 c-1.5,7.5-2.4,15.4-2.4,24s0.9,16.5,2.4,24H51.7C49.3,120.4,48,112.4,48,104z M96,104c0-8.6,1.1-16.6,2.8-24h58.4 c1.7,7.4,2.8,15.4,2.8,24c0,8.6-1.1,16.6-2.8,24H98.8C97.1,120.6,96,112.6,96,104z M128,27c6.2,6.3,16.8,18.9,24.1,37h-48.3 C111.2,46,121.8,33.3,128,27z M152.1,144c-7.3,18.1-17.9,30.7-24.1,37c-6.2-6.3-16.8-18.9-24.1-37H152.1z M169.3,144h27.8 c-10.4,17.9-27.6,31.4-48,37.1C156.2,172,164,159.6,169.3,144L169.3,144z M208,104c0,8.4-1.3,16.4-3.7,24h-30.7 c1.5-7.5,2.4-15.4,2.4-24s-0.9-16.5-2.4-24h30.7C206.7,87.6,208,95.6,208,104z M197.2,64h-27.8c-5.4-15.6-13.1-28-20.1-37.1 C169.6,32.6,186.8,46.1,197.2,64z M106.8,26.9C99.8,36,92,48.4,86.7,64H58.8C69.2,46.1,86.4,32.6,106.8,26.9z M58.8,144h27.8 c5.4,15.6,13.1,28,20.1,37.1C86.4,175.4,69.2,161.9,58.8,144z M128,264c61.3,0,104,21.1,104,40s-42.7,40-104,40S24,322.9,24,304 S66.7,264,128,264z M24,332.7C44.4,349.3,82.4,360,128,360s83.6-10.7,104-27.3V360c0,13-40.5,32-104,32S24,373,24,360V332.7z  M24,384.9C46.1,400,87.9,408,128,408s81.9-8,104-23.1V408c0,13-40.5,32-104,32S24,421,24,408V384.9z M128,488 c-63.5,0-104-19-104-32v-23.1C46.1,448,87.9,456,128,456s81.9-8,104-23.1V456C232,469,191.5,488,128,488z M338.8,463.1 c7.3-23.2,28.5-39.1,53.2-39.1h16c24.7,0,45.9,15.9,53.2,39.1C445.3,478.5,423.8,488,400,488S354.7,478.5,338.8,463.1z M400,408 c-17.6,0-32-14.4-32-32s14.4-32,32-32s32,14.4,32,32S417.6,408,400,408z M488,400c0,18.2-5.5,35-15,49.1 c-8.3-17.6-23.2-30.9-41.3-37.1c10-8.8,16.3-21.6,16.3-36c0-26.5-21.5-48-48-48s-48,21.5-48,48c0,14.3,6.3,27.2,16.3,36 c-18.1,6.3-33,19.6-41.3,37.1c-9.5-14-15-30.9-15-49.1c0-48.5,39.5-88,88-88S488,351.5,488,400z M392,296.4 c-51,3.9-91.7,44.6-95.6,95.6H248v-88c0-30.7-47.6-54-112-55.8v-48.6c46.6-3.9,83.7-41,87.6-87.6H296v48c0,13.2,10.8,24,24,24h72 L392,296.4z"></path><path class="st0" d="M456,40h16v16h-16V40z"></path><path class="st0" d="M424,40h16v16h-16V40z"></path><path class="st0" d="M328,136h16v16h-16V136z"></path><path class="st0" d="M360,136h16v16h-16V136z"></path><path class="st0" d="M392,136h16v16h-16V136z"></path><path class="st0" d="M136,96h16v16h-16V96z"></path><path class="st0" d="M104,96h16v16h-16V96z"></path></svg>