<svg xmlns="http://www.w3.org/2000/svg" id="Layer_1" data-name="Layer 1" viewBox="0 0 141.41 84.8"><defs><style>.cls-1,.cls-2{fill:#fff;}.cls-1{fill-rule:evenodd;}</style></defs><path class="cls-1" d="M32.42,43.37a3.46,3.46,0,1,1-6.81-1.19c0-.07,4.37-25.57,15.52-25.57,6.22,0,9.17,8.06,12.35,16.71,2.77,7.56,5.77,15.73,9.28,15.73,3.25,0,6.8-11.18,10.17-21.82,3.8-12,7.42-23.39,14.27-23.39,7.47,0,10.82,12.58,14,24.4,2.14,8,4.16,15.62,4.86,15.62a1.17,1.17,0,0,0,.72-.19,2.56,2.56,0,0,0,.64-.85,3.45,3.45,0,0,1,6.16,3.11,9.19,9.19,0,0,1-2.72,3.31,7.89,7.89,0,0,1-4.8,1.54c-6,0-8.69-10.09-11.54-20.78-2.48-9.32-4-19.23-7.28-19.23-2.47,0-4.66,9.05-7.67,18.54C75.41,42.31,71.07,56,62.76,56S50.57,45.45,47,35.7c-2.31-6.3-4-12.17-5.86-12.17C35.84,23.53,32.43,43.32,32.42,43.37Z"></path><path class="cls-1" d="M111.75,34a3.52,3.52,0,1,0,3.52-3.52A3.51,3.51,0,0,0,111.75,34Z"></path><path class="cls-2" d="M14.09,61.79H16l7.15,17.52H20.75l-2-5.13H11.25l-2,5.13H6.91Zm4,10.66L15,64.36l-3.11,8.09Z"></path><path class="cls-2" d="M23.91,73a7.33,7.33,0,0,1,.75-3.32,6.18,6.18,0,0,1,2.08-2.41,5.15,5.15,0,0,1,3-.91,5,5,0,0,1,2.79.81,6.13,6.13,0,0,1,1.92,2V61.3h2.17V76.84a.84.84,0,0,0,.16.58.69.69,0,0,0,.53.21v1.68a6,6,0,0,1-1,.1A1.61,1.61,0,0,1,35.25,79a1.34,1.34,0,0,1-.48-1V76.89a5.48,5.48,0,0,1-2.05,2,5.41,5.41,0,0,1-2.67.72A5.74,5.74,0,0,1,27.6,79a6,6,0,0,1-2-1.46,6.78,6.78,0,0,1-1.28-2.11A6.86,6.86,0,0,1,23.91,73Zm10.56,1.88V71.16a4.18,4.18,0,0,0-1-1.5A5.42,5.42,0,0,0,32,68.59a3.67,3.67,0,0,0-3.37,0,4.23,4.23,0,0,0-1.34,1.07,5,5,0,0,0-.85,1.53A5.32,5.32,0,0,0,26.16,73a5,5,0,0,0,.33,1.81,4.63,4.63,0,0,0,.94,1.51,4.42,4.42,0,0,0,1.4,1,4.24,4.24,0,0,0,1.74.36,3.58,3.58,0,0,0,1.22-.22,4.85,4.85,0,0,0,1.2-.61,4,4,0,0,0,1-.91A2.81,2.81,0,0,0,34.47,74.83Z"></path><path class="cls-2" d="M44,79.31l-5.06-12.8h2.27l4,10.74,4-10.74h2.12l-5,12.8Z"></path><path class="cls-2" d="M58.75,79.56A6.45,6.45,0,0,1,56.11,79a6.23,6.23,0,0,1-2-1.44,6.5,6.5,0,0,1-1.33-2.12A6.71,6.71,0,0,1,52.26,73a6.8,6.8,0,0,1,.47-2.55,6.39,6.39,0,0,1,1.33-2.12,6.17,6.17,0,0,1,2.06-1.44,6.37,6.37,0,0,1,2.65-.53,6.26,6.26,0,0,1,2.62.53,6.49,6.49,0,0,1,2.06,1.44,6.42,6.42,0,0,1,1.34,2.12A7,7,0,0,1,65.26,73a6.92,6.92,0,0,1-.47,2.52,6.67,6.67,0,0,1-1.33,2.12A6.27,6.27,0,0,1,61.4,79,6.53,6.53,0,0,1,58.75,79.56ZM54.48,73a4.89,4.89,0,0,0,.58,2.39,4.45,4.45,0,0,0,1.54,1.7,3.83,3.83,0,0,0,2.15.62,3.9,3.9,0,0,0,2.16-.63,4.77,4.77,0,0,0,1.55-1.72A5,5,0,0,0,63,72.92a4.89,4.89,0,0,0-.58-2.39,4.66,4.66,0,0,0-1.55-1.71,3.91,3.91,0,0,0-2.16-.64,3.78,3.78,0,0,0-2.15.65,4.74,4.74,0,0,0-1.54,1.72A5,5,0,0,0,54.48,73Z"></path><path class="cls-2" d="M73.6,79.56A6.5,6.5,0,0,1,71,79a6.36,6.36,0,0,1-2.08-1.46A6.79,6.79,0,0,1,67,72.9a6.84,6.84,0,0,1,.81-3.31,6.21,6.21,0,0,1,2.3-2.39,6.5,6.5,0,0,1,3.42-.89,6.28,6.28,0,0,1,3.32.85A5.32,5.32,0,0,1,79,69.44l-2.12.67a3.56,3.56,0,0,0-1.38-1.42,3.88,3.88,0,0,0-2-.51,4,4,0,0,0-2.16.61,4.41,4.41,0,0,0-1.55,1.68,5.18,5.18,0,0,0-.56,2.43,5.07,5.07,0,0,0,.58,2.43,4.6,4.6,0,0,0,1.55,1.72,3.9,3.9,0,0,0,2.16.63A4.08,4.08,0,0,0,75,77.41a4,4,0,0,0,1.23-.73,2.37,2.37,0,0,0,.73-1l2.12.65A4.58,4.58,0,0,1,77.9,78,5.75,5.75,0,0,1,76,79.14,6.65,6.65,0,0,1,73.6,79.56Z"></path><path class="cls-2" d="M81.57,64V61.3h2.17V64Zm0,15.3V66.43h2.17V79.31Z"></path><path class="cls-2" d="M93.9,78.74c-.18.09-.42.19-.74.32a6.23,6.23,0,0,1-1.08.35,5.53,5.53,0,0,1-1.31.15,3.69,3.69,0,0,1-1.46-.29,2.39,2.39,0,0,1-1.06-.88,2.77,2.77,0,0,1-.39-1.52V68.21H86.11v-1.7h1.75v-4.3H90v4.3h2.89v1.7H90v8a1.38,1.38,0,0,0,.47,1,1.55,1.55,0,0,0,1,.33,3.06,3.06,0,0,0,1.18-.22l.72-.32Z"></path><path class="cls-2" d="M95.8,74.18V66.51H98v7.25a5.1,5.1,0,0,0,.69,2.94,2.35,2.35,0,0,0,2,1,4,4,0,0,0,1.72-.38,4.7,4.7,0,0,0,1.49-1.08,5.28,5.28,0,0,0,1-1.69v-8h2.17V76.85a.87.87,0,0,0,.16.58.7.7,0,0,0,.53.2v1.68l-.58.06-.41,0a1.56,1.56,0,0,1-1.06-.39,1.25,1.25,0,0,1-.47-.94l0-1.5A5.85,5.85,0,0,1,103,78.77a6.18,6.18,0,0,1-3.09.79,3.62,3.62,0,0,1-3.06-1.36A6.58,6.58,0,0,1,95.8,74.18Z"></path><path class="cls-2" d="M109.92,73a7.33,7.33,0,0,1,.75-3.32,6.16,6.16,0,0,1,2.07-2.41,5.18,5.18,0,0,1,3-.91,5,5,0,0,1,2.79.81,6.13,6.13,0,0,1,1.92,2V61.3h2.18V76.84a.84.84,0,0,0,.16.58.67.67,0,0,0,.53.21v1.68a6.08,6.08,0,0,1-1,.1,1.63,1.63,0,0,1-1.12-.44,1.34,1.34,0,0,1-.48-1V76.89a5.41,5.41,0,0,1-2,2,5.34,5.34,0,0,1-2.66.72A5.75,5.75,0,0,1,113.6,79a6.06,6.06,0,0,1-1.95-1.46,7,7,0,0,1-1.28-2.11A7.06,7.06,0,0,1,109.92,73Zm10.55,1.88V71.16a3.92,3.92,0,0,0-1-1.5A5.37,5.37,0,0,0,118,68.59a3.69,3.69,0,0,0-3.38,0,4.19,4.19,0,0,0-1.33,1.07,4.78,4.78,0,0,0-.85,1.53,5.32,5.32,0,0,0-.3,1.78,4.83,4.83,0,0,0,1.27,3.32,4.35,4.35,0,0,0,1.41,1,4.17,4.17,0,0,0,1.74.36,3.62,3.62,0,0,0,1.22-.22,4.62,4.62,0,0,0,1.19-.61,4.21,4.21,0,0,0,1-.91A2.79,2.79,0,0,0,120.47,74.83Z"></path><path class="cls-2" d="M132,79.56a6.53,6.53,0,0,1-2.65-.53,6.31,6.31,0,0,1-2.07-1.44,6.58,6.58,0,0,1-1.36-2.12,6.8,6.8,0,0,1-.48-2.55,6.58,6.58,0,0,1,.84-3.3A6.45,6.45,0,0,1,132,66.31a6.19,6.19,0,0,1,3.39.92,6.37,6.37,0,0,1,2.24,2.4,6.56,6.56,0,0,1,.81,3.2c0,.16,0,.32,0,.48s0,.27,0,.35H127.7a4.77,4.77,0,0,0,.71,2.21A4.34,4.34,0,0,0,130,77.38a4.1,4.1,0,0,0,2.08.55,4.51,4.51,0,0,0,2.23-.59,3.18,3.18,0,0,0,1.44-1.56l1.88.52A4.92,4.92,0,0,1,136.35,78a6.12,6.12,0,0,1-1.95,1.16A6.89,6.89,0,0,1,132,79.56Zm-4.34-7.4h8.78a4.62,4.62,0,0,0-.71-2.2,4.5,4.5,0,0,0-1.58-1.49,4.36,4.36,0,0,0-2.12-.53,4.31,4.31,0,0,0-2.1.53A4.48,4.48,0,0,0,128.33,70,4.84,4.84,0,0,0,127.63,72.16Z"></path></svg>