<svg xmlns="http://www.w3.org/2000/svg" id="Layer_1" data-name="Layer 1" viewBox="0 0 156.55 29.65"><defs><style>.cls-1{fill:#fff;}</style></defs><path class="cls-1" d="M130.63,29.65c0-.08-.11,0-.16-.06a2.19,2.19,0,0,1-1.42-.88,3.06,3.06,0,0,1-.17-3.11,2.47,2.47,0,0,1,3.37-.88,2.34,2.34,0,0,1,1.1,1.55,3.09,3.09,0,0,1,0,1.68,2.27,2.27,0,0,1-1.82,1.64c-.05,0-.11,0-.14.06ZM132.34,27a2.14,2.14,0,0,0-.12-.75,1.34,1.34,0,0,0-.57-.77,1.28,1.28,0,0,0-1.72.39,2.35,2.35,0,0,0-.13,2,1.15,1.15,0,0,0,.93.78,1.21,1.21,0,0,0,1.27-.45A2,2,0,0,0,132.34,27Z"></path><path class="cls-1" d="M109.45,29.61v0h-1s0,0,0,0Z"></path><path class="cls-1" d="M148.37,29.65v0h.84v0Z"></path><path class="cls-1" d="M116.57,29.65v0h.77v0Z"></path><path class="cls-1" d="M44.83,29.54H39.28c-.17,0-.23,0-.23-.22q0-5.46,0-10.92c0-.18.06-.22.23-.21h2.37c.18,0,.23,0,.23.22,0,2.82,0,5.65,0,8.47,0,.25,0,.25.25.25,2.44,0,4.89,0,7.34,0a17.82,17.82,0,0,0,2.42-.2,14,14,0,0,0,1.44-.25,12.35,12.35,0,0,0,1.76-.55,10.22,10.22,0,0,0,1.88-1,10.77,10.77,0,0,0,2.13-2,10.25,10.25,0,0,0,1-1.45,12.45,12.45,0,0,0,1-2.22,13.38,13.38,0,0,0,.73-3.42,16.18,16.18,0,0,0,0-2.87,13.47,13.47,0,0,0-.59-2.75,12.79,12.79,0,0,0-1.38-2.92,10,10,0,0,0-1.49-1.87A10,10,0,0,0,53.3,2.94a19.35,19.35,0,0,0-2.52-.36c-.72-.06-1.44-.07-2.17-.07H42.12c-.25,0-.25,0-.25.25q0,3.33,0,6.65c0,.17,0,.22-.21.22q-1.22,0-2.43,0c-.15,0-.18,0-.18-.19V.18c0-.15,0-.18.18-.18,3.49,0,7,0,10.46,0A26,26,0,0,1,52.48.2a14.86,14.86,0,0,1,3,.63A11.86,11.86,0,0,1,58,2a15.24,15.24,0,0,1,1.78,1.29A13.46,13.46,0,0,1,62.1,5.86a15,15,0,0,1,1.62,3,14.89,14.89,0,0,1,1,4.38,17,17,0,0,1,.07,2,16.85,16.85,0,0,1-.27,2.45,14,14,0,0,1-.69,2.54,15.28,15.28,0,0,1-1.44,2.89,15,15,0,0,1-1.75,2.22A14,14,0,0,1,58.76,27a12.15,12.15,0,0,1-1.92,1.11,13,13,0,0,1-1.8.67,19.7,19.7,0,0,1-2.4.51,42.76,42.76,0,0,1-5.77.21Z"></path><path class="cls-1" d="M7.94,29.54H.2c-.24,0-.24,0-.13-.21.4-.8.79-1.6,1.2-2.39l1.84-3.63c.52-1,1-2,1.53-3L5.8,18c.28-.56.56-1.14.86-1.7s.63-1.32,1-2c.25-.49.49-1,.75-1.46.35-.65.65-1.32,1-2l.7-1.37.81-1.58c.33-.66.67-1.31,1-2l1-2c.25-.5.53-1,.77-1.5.17-.35.35-.69.52-1s.41-.81.62-1.22A.19.19,0,0,1,15,.07h1.24a.22.22,0,0,1,.24.15l.78,1.55L18,3.28c.51,1,1,2,1.51,3l1.13,2.22c.46.89.91,1.78,1.36,2.67.33.66.67,1.32,1,2,.05.1.07.16-.06.22-.58.27-1.15.56-1.72.84a5,5,0,0,0-.52.26c-.16.1-.23.06-.3-.1l-.49-1-.87-1.7L17.75,9.13l-.93-1.81L15.71,5.11c0-.05,0-.12-.1-.11s-.07.06-.09.1l-.83,1.66-.88,1.72-1.58,3.15-1.39,2.74c-.47.93-.95,1.86-1.41,2.79-.3.59-.59,1.18-.9,1.77s-.64,1.29-1,1.94l-.79,1.51c-.23.46-.44.92-.68,1.37-.35.7-.72,1.4-1.07,2.1-.11.24-.22.47-.35.7s0,.15.07.14H15.69c.18,0,.23,0,.23.23,0,.81,0,1.61,0,2.42,0,.16,0,.2-.2.2Z"></path><path class="cls-1" d="M40.52,12.51h8.22c.25,0,.25,0,.25.24V22c0,.24,0,.24-.24.24H46.34c-.16,0-.2,0-.2-.2q0-3.21,0-6.44c0-.17,0-.22-.22-.22H35.1c-.19,0-.23.06-.23.24q0,3.18,0,6.36c0,.19-.06.23-.24.23-.81,0-1.63,0-2.44,0-.14,0-.18,0-.18-.17V12.7c0-.17.07-.19.22-.19Z"></path><path class="cls-1" d="M85.9,21.07v8.24c0,.26,0,.26-.25.26H79c-.18,0-.24,0-.24-.22,0-.82,0-1.65,0-2.47,0-.15,0-.19.19-.19h3.84c.15,0,.21,0,.21-.21,0-3.63,0-7.27,0-10.9,0-.23,0-.23-.24-.23H79c-.17,0-.21,0-.21-.21q0-1.23,0-2.46c0-.15.05-.19.19-.19,1.62,0,3.24,0,4.87.05l1.86,0c.24,0,.24,0,.24.24Z"></path><path class="cls-1" d="M68.89,21V12.74c0-.23,0-.23.24-.23h6.55c.19,0,.23.06.23.24,0,.79,0,1.59,0,2.38,0,.24,0,.24-.25.24H72c-.17,0-.22.05-.22.22q0,5.46,0,10.94c0,.15,0,.19.19.19h3.75c.16,0,.2,0,.2.2,0,.82,0,1.64,0,2.47,0,.17,0,.21-.22.21H69.08c-.17,0-.19-.06-.19-.21Z"></path><path class="cls-1" d="M29.68,29.54H28.26A.22.22,0,0,1,28,29.4l-.79-1.59c-.38-.75-.76-1.48-1.13-2.23s-.67-1.36-1-2c-.24-.48-.5-.95-.74-1.42s-.47-1-.71-1.45l-1.52-3c-.08-.15-.13-.32-.22-.46s0-.14.06-.18l1.25-.63a5.94,5.94,0,0,0,.57-.27c.17-.11.36-.16.53-.26s.14,0,.18.11c.3.59.59,1.19.89,1.78s.67,1.3,1,2,.65,1.31,1,2c.24.48.52,1,.75,1.45s.45.89.66,1.33c.37.75.75,1.48,1.13,2.22s.59,1.2.9,1.79c.15.29.29.59.44.87s.06.18-.1.18Z"></path><path class="cls-1" d="M123.74,27.78V26.45c0-.58,0-1.16,0-1.73,0-.14,0-.18.17-.18s.49,0,.73,0,.15,0,.15.14v4.71c0,.11,0,.14-.15.14-.26,0-.53,0-.8,0a.23.23,0,0,1-.22-.12l-1.09-1.74-.81-1.31-.11-.14v.23c0,1,0,1.92,0,2.88,0,.17,0,.21-.21.2s-.41,0-.62,0-.2,0-.2-.2c0-1.11,0-2.22,0-3.33,0-.43,0-.86,0-1.3,0-.13,0-.16.17-.16s.51,0,.76,0a.26.26,0,0,1,.25.14c.57.92,1.14,1.84,1.72,2.76.07.12.15.23.23.35Z"></path><path class="cls-1" d="M102.77,17.94v3c0,.14,0,.19-.17.18s-.47,0-.71,0-.15,0-.15-.14c0-1.56,0-3.12,0-4.69,0-.12,0-.15.16-.15h.8a.22.22,0,0,1,.21.12l1.73,2.77c.07.12.15.24.23.36,0-.06,0-.13,0-.19,0-.95,0-1.91,0-2.86,0-.17,0-.21.21-.2a5.61,5.61,0,0,0,.71,0c.1,0,.13,0,.13.14V21c0,.1,0,.14-.13.14-.28,0-.57,0-.86,0-.09,0-.13-.05-.18-.12l-1.08-1.72c-.27-.42-.53-.84-.79-1.27C102.88,18,102.87,18,102.77,17.94Z"></path><path class="cls-1" d="M96.45,27c0-.78,0-1.56,0-2.33,0-.13,0-.17.16-.17h2.06a2,2,0,0,1,1.78.9,2.84,2.84,0,0,1,.4,1.89,2.65,2.65,0,0,1-.43,1.31,2,2,0,0,1-1.65.87c-.73,0-1.46,0-2.19,0-.13,0-.13-.07-.13-.16Zm1.1,0v1.43c0,.08,0,.15.11.15.33,0,.66,0,1,0a1.05,1.05,0,0,0,1-.66,2.38,2.38,0,0,0,.09-1.4,1.41,1.41,0,0,0-.15-.48,1.16,1.16,0,0,0-.93-.56c-.3,0-.61,0-.91,0-.14,0-.16.05-.16.17C97.55,26.1,97.55,26.56,97.55,27Z"></path><path class="cls-1" d="M117.34,29.61h-.77a2.19,2.19,0,0,1-1.5-.9,2.91,2.91,0,0,1-.2-3.06,2.39,2.39,0,0,1,2.6-1.22A2,2,0,0,1,119.09,26c0,.12,0,.16-.12.16h-.81c-.07,0-.13,0-.14-.1a1.05,1.05,0,0,0-1.27-.71,1.23,1.23,0,0,0-1,.86,2.51,2.51,0,0,0,0,1.69,1.15,1.15,0,0,0,.73.74,1.3,1.3,0,0,0,1.3-.2,1.08,1.08,0,0,0,.33-.73c0-.09-.06-.08-.12-.08-.27,0-.54,0-.81,0-.12,0-.16,0-.15-.16a4.34,4.34,0,0,0,0-.51c0-.1,0-.14.14-.14h1.83c.1,0,.14,0,.13.13V29.4c0,.09,0,.14-.12.12h0a1.38,1.38,0,0,1-.5,0c-.17-.08-.06-.31-.13-.46l0-.06A1.85,1.85,0,0,1,117.34,29.61Z"></path><path class="cls-1" d="M107.41,18.67c0-.76,0-1.53,0-2.29,0-.14,0-.19.18-.19h2a2.12,2.12,0,0,1,1.64.67,2.36,2.36,0,0,1,.54,1.23,3.14,3.14,0,0,1-.36,2.12,1.93,1.93,0,0,1-1.36.9,2.56,2.56,0,0,1-.47,0h-2c-.15,0-.18-.05-.18-.18C107.41,20.22,107.41,19.44,107.41,18.67Zm1.09,0V20.1c0,.08,0,.15.11.15h1a1.07,1.07,0,0,0,1-.78,2.61,2.61,0,0,0,0-1.44,1.12,1.12,0,0,0-1-.88c-.31-.05-.62,0-.93,0-.13,0-.17,0-.16.17Z"></path><path class="cls-1" d="M150.61,10.45a1.23,1.23,0,0,1,.68,1.23,2.69,2.69,0,0,0,.15,1c0,.08,0,.08-.06.08h-.91c-.11,0-.11-.08-.12-.15a7.58,7.58,0,0,1-.13-.94,1.45,1.45,0,0,0-.15-.54.65.65,0,0,0-.6-.31h-1.06c-.12,0-.12.06-.12.15,0,.54,0,1.08,0,1.62,0,.15,0,.19-.18.19s-.53,0-.79,0c-.1,0-.13,0-.13-.13V8c0-.1,0-.13.12-.13H150a1.34,1.34,0,0,1,1.31,1.39,1.22,1.22,0,0,1-.68,1.17S150.61,10.41,150.61,10.45ZM149,10.07h.62c.41,0,.61-.27.61-.71a.58.58,0,0,0-.61-.67c-.41,0-.81,0-1.22,0-.09,0-.11,0-.11.12V10c0,.11,0,.12.13.12Z"></path><path class="cls-1" d="M105.14,10.43a1.22,1.22,0,0,1,.51.44,2.17,2.17,0,0,1,.18.8,2.79,2.79,0,0,0,.17,1c0,.08,0,.08-.07.08H105c-.12,0-.13-.07-.14-.15,0-.3-.07-.59-.1-.89a1.57,1.57,0,0,0,0-.3.69.69,0,0,0-.72-.6H103c-.12,0-.11.08-.11.16v1.62c0,.13,0,.18-.17.18a4.57,4.57,0,0,0-.74,0c-.15,0-.19,0-.19-.18,0-1.4,0-2.79,0-4.18V8c0-.1,0-.14.12-.14h2.68a1.26,1.26,0,0,1,1.17.69,1.46,1.46,0,0,1-.09,1.54A1.54,1.54,0,0,1,105.14,10.43Zm-1.53-1.76H103c-.07,0-.11,0-.11.1V10c0,.07,0,.1.09.1.43,0,.87,0,1.3,0A.72.72,0,0,0,104.7,9a.59.59,0,0,0-.31-.23A3.56,3.56,0,0,0,103.61,8.67Z"></path><path class="cls-1" d="M117.19,10.31v2.3c0,.14,0,.18-.17.18a6.42,6.42,0,0,0-.76,0c-.15,0-.18,0-.17-.18V10.8c0-.13,0-.17-.17-.17h-1.68c-.13,0-.16,0-.16.16,0,.61,0,1.22,0,1.82,0,.14,0,.18-.18.18h-.78c-.11,0-.15,0-.15-.13V8c0-.11,0-.14.14-.14h.82c.12,0,.15,0,.15.15,0,.52,0,1,0,1.56,0,.15,0,.18.18.18q.83,0,1.65,0c.15,0,.19-.05.18-.19,0-.51,0-1,0-1.52,0-.13,0-.19.17-.18H117c.14,0,.19,0,.19.18C117.19,8.77,117.19,9.54,117.19,10.31Z"></path><path class="cls-1" d="M152.26,27c0-.77,0-1.55,0-2.32,0-.15.05-.18.19-.18q1.69,0,3.39,0c.13,0,.18,0,.18.17a3,3,0,0,0,0,.6c0,.14,0,.17-.17.16-.76,0-1.52,0-2.28,0-.16,0-.2,0-.19.19s0,.46,0,.69,0,.16.16.16h2.07c.15,0,.2,0,.18.19a4.51,4.51,0,0,0,0,.52c0,.13,0,.16-.15.16h-2c-.18,0-.22.05-.21.22s0,.56,0,.84,0,.17.18.17h2.33c.14,0,.19,0,.18.18s0,.42,0,.62,0,.14-.13.14c-1.18,0-2.36,0-3.54,0-.13,0-.14-.06-.14-.16C152.26,28.59,152.26,27.82,152.26,27Z"></path><path class="cls-1" d="M152.73,10.3V8c0-.12,0-.16.16-.16h3.43c.13,0,.17,0,.16.16s0,.4,0,.6,0,.17-.18.17H154c-.14,0-.18,0-.18.18a3.42,3.42,0,0,1,0,.64c0,.17,0,.23.22.22h2c.14,0,.19,0,.18.17a4,4,0,0,0,0,.49c0,.15,0,.2-.19.19h-2c-.17,0-.21,0-.21.2a5.89,5.89,0,0,1,0,.84c0,.17.06.19.21.19h2.32c.14,0,.19,0,.18.19a2.44,2.44,0,0,0,0,.54c0,.18-.06.21-.22.21H152.9c-.13,0-.17,0-.17-.17Z"></path><path class="cls-1" d="M126,10.3c0-.76,0-1.53,0-2.29,0-.14,0-.19.18-.19h3.41c.13,0,.17,0,.17.16a4.28,4.28,0,0,0,0,.62c0,.12,0,.15-.16.15h-2.3c-.14,0-.19,0-.18.18s0,.48,0,.71,0,.15.16.15h2.06c.16,0,.21,0,.19.2a4,4,0,0,0,0,.49c0,.14,0,.16-.16.16h-2.06c-.14,0-.2,0-.19.18s0,.59,0,.89c0,.13,0,.16.16.16h2.34c.15,0,.22,0,.2.2a5.23,5.23,0,0,0,0,.56c0,.15,0,.18-.17.18H127.4c-.39,0-.78,0-1.16,0-.18,0-.24,0-.24-.23C126,11.81,126,11.06,126,10.3Z"></path><path class="cls-1" d="M102.11,27V24.71c0-.13,0-.17.16-.17q1.7,0,3.39,0c.14,0,.18,0,.18.18a2.81,2.81,0,0,0,0,.58c0,.16-.06.18-.19.17-.74,0-1.49,0-2.23,0-.17,0-.23,0-.22.22a5,5,0,0,1,0,.67c0,.12,0,.15.15.15h2.1c.15,0,.19.05.18.19a4.68,4.68,0,0,0,0,.53c0,.13,0,.16-.17.16h-2.08c-.14,0-.18,0-.18.18q0,.45,0,.9c0,.12,0,.15.16.15h2.33c.15,0,.22,0,.21.2s0,.4,0,.6,0,.14-.13.14c-1.17,0-2.35,0-3.52,0-.13,0-.13-.07-.13-.16Z"></path><path class="cls-1" d="M109.45,29.61h-1a2,2,0,0,1-1.38-.74,1.52,1.52,0,0,1-.3-.9c0-.09.05-.11.12-.11.28,0,.57,0,.85,0,.09,0,.12,0,.13.12a.74.74,0,0,0,.62.73,1.44,1.44,0,0,0,1,0,.57.57,0,0,0,.43-.49c0-.28-.15-.42-.37-.53a5.18,5.18,0,0,0-1-.3,3.8,3.8,0,0,1-.82-.29,1.2,1.2,0,0,1-.7-1.39,1.38,1.38,0,0,1,1.1-1.15,2.52,2.52,0,0,1,2.09.23,1.36,1.36,0,0,1,.65,1.15c0,.09,0,.12-.11.12h-.86c-.06,0-.1,0-.12-.08a.83.83,0,0,0-1-.69.78.78,0,0,0-.57.23.43.43,0,0,0,.1.7,3.83,3.83,0,0,0,.81.26,4.34,4.34,0,0,1,1.3.44,1.41,1.41,0,0,1,.33,2,1.86,1.86,0,0,1-.92.58C109.7,29.56,109.58,29.58,109.45,29.61Z"></path><path class="cls-1" d="M144.67,9.63c0-.62,0-1.12,0-1.63,0-.15.05-.19.2-.18h.78c.1,0,.13,0,.13.13,0,1,0,2.07,0,3.11a1.71,1.71,0,0,1-.56,1.34,2.15,2.15,0,0,1-1.11.46,2.81,2.81,0,0,1-1.64-.21,1.6,1.6,0,0,1-.91-1.33q0-.35,0-.69V8c0-.13,0-.19.18-.18h.74c.14,0,.19,0,.19.18,0,.93,0,1.87,0,2.8a2.63,2.63,0,0,0,0,.49.8.8,0,0,0,.63.64,1.71,1.71,0,0,0,.78,0,.79.79,0,0,0,.59-.75C144.7,10.62,144.65,10.07,144.67,9.63Z"></path><path class="cls-1" d="M134.9,9.44h-.06a.49.49,0,0,1-.63-.36.91.91,0,0,0-.86-.48A1.23,1.23,0,0,0,132,9.68a3.07,3.07,0,0,0,0,1.17,1.29,1.29,0,0,0,1.64,1.07,1,1,0,0,0,.71-.84c0-.2.12-.26.32-.24a4.85,4.85,0,0,0,.66,0c.12,0,.15,0,.14.15a2.12,2.12,0,0,1-2,1.9,2.45,2.45,0,0,1-1.72-.48,2.32,2.32,0,0,1-.9-1.55,2.75,2.75,0,0,1,.57-2.39,2.33,2.33,0,0,1,2.37-.74,1.87,1.87,0,0,1,1,.54,1.94,1.94,0,0,1,.55,1.08c0,.07,0,.1-.08.09Z"></path><path class="cls-1" d="M111.13,9.44H111c-.22,0-.37,0-.46-.26a1.11,1.11,0,0,0-1.22-.57,1.16,1.16,0,0,0-1,.81,2.27,2.27,0,0,0,.16,2,1.17,1.17,0,0,0,2-.09,1.69,1.69,0,0,0,.12-.4c0-.1.06-.12.16-.12h.8c.13,0,.14.05.13.15a2.11,2.11,0,0,1-2.09,1.91,2.46,2.46,0,0,1-1.58-.47,2.29,2.29,0,0,1-.85-1.24,2.86,2.86,0,0,1,.51-2.73,2.34,2.34,0,0,1,2.39-.73,2,2,0,0,1,1.28.84,2.08,2.08,0,0,1,.29.74c0,.1,0,.14-.11.14Z"></path><path class="cls-1" d="M149.21,29.61h-.84a2.78,2.78,0,0,1-.69-.22s0,0,0,0a2.18,2.18,0,0,1-1.17-1.49,3.17,3.17,0,0,1,.11-2,2.37,2.37,0,0,1,2.55-1.42,2.33,2.33,0,0,1,1.06.41A1.83,1.83,0,0,1,151,26.1c0,.07,0,.08-.08.08H150c-.08,0-.08-.05-.1-.1a1.18,1.18,0,0,0-1.83-.52,1.4,1.4,0,0,0-.53,1,2.14,2.14,0,0,0,.27,1.67,1.15,1.15,0,0,0,1.09.51,1,1,0,0,0,.9-.57,1,1,0,0,0,.14-.41.13.13,0,0,1,.15-.14h.8c.11,0,.14,0,.13.14a2,2,0,0,1-1.52,1.81A1.25,1.25,0,0,1,149.21,29.61Z"></path><path class="cls-1" d="M100.22,21.15c-.19,0-.42.07-.55,0s-.13-.32-.19-.49a.94.94,0,0,0-.06-.15c0-.14,0-.34-.17-.41s-.31,0-.48,0h-1.2c-.11,0-.16,0-.19.13-.1.29-.21.57-.31.86a.16.16,0,0,1-.18.13c-.28,0-.55,0-.82,0s-.14,0-.1-.15c.33-.83.64-1.66,1-2.49s.53-1.47.83-2.2c0-.1.08-.14.19-.14h.84a.18.18,0,0,1,.2.14c.39,1.05.78,2.1,1.18,3.15.19.51.38,1,.58,1.53,0,.13,0,.17-.11.16s-.28,0-.42,0ZM99,19.21c-.22-.58-.38-1.17-.63-1.77-.19.62-.45,1.18-.62,1.77Z"></path><path class="cls-1" d="M100.2,12.77c-.18,0-.41.07-.53,0s-.12-.32-.18-.49-.1-.48-.25-.59-.41,0-.62,0H97.55a.14.14,0,0,0-.16.11c-.09.31-.21.6-.32.91,0,.09-.07.14-.18.13h-.83c-.12,0-.13,0-.09-.13.3-.81.61-1.61.92-2.41s.56-1.51.85-2.26A.2.2,0,0,1,98,7.82h.77A.22.22,0,0,1,99,8c.37,1,.76,2,1.14,3,.2.54.4,1.07.61,1.6,0,.11,0,.15-.1.14h-.46ZM99,10.83c-.22-.6-.38-1.19-.63-1.77,0,.13-.08.24-.12.35l-.48,1.33c0,.07,0,.09.07.09Z"></path><path class="cls-1" d="M134.66,27V24.72c0-.14,0-.18.17-.18,1.06,0,2.13,0,3.19,0,.13,0,.17,0,.16.17s0,.4,0,.6,0,.17-.16.17H136c-.14,0-.2,0-.19.18s0,.53,0,.8,0,.17.18.17h1.74c.14,0,.18,0,.17.17a4.68,4.68,0,0,0,0,.53c0,.13,0,.17-.17.17H136c-.14,0-.18,0-.18.17,0,.57,0,1.13,0,1.7,0,.14,0,.17-.18.17s-.52,0-.78,0-.17,0-.16-.17Z"></path><path class="cls-1" d="M139.35,27V24.72c0-.14,0-.18.17-.18,1.06,0,2.11,0,3.17,0,.13,0,.18,0,.17.16s0,.42,0,.62,0,.16-.15.15c-.69,0-1.38,0-2.07,0-.15,0-.21,0-.2.2a6.42,6.42,0,0,1,0,.76c0,.15,0,.2.19.19.58,0,1.16,0,1.75,0,.13,0,.16,0,.16.16a3.37,3.37,0,0,0,0,.55c0,.14,0,.16-.18.16h-1.73c-.16,0-.19,0-.19.19,0,.56,0,1.12,0,1.68,0,.13,0,.18-.18.17s-.51,0-.76,0-.16,0-.16-.17Z"></path><path class="cls-1" d="M138.4,7.82h1.86c.14,0,.2,0,.19.18a4.14,4.14,0,0,0,0,.61c0,.11,0,.14-.14.14h-1.18c-.14,0-.18,0-.17.17v3.68c0,.15,0,.2-.19.2a4.69,4.69,0,0,0-.75,0c-.16,0-.18-.06-.18-.2V8.94c0-.15,0-.2-.19-.2-.38,0-.75,0-1.13,0-.12,0-.16,0-.16-.15s0-.41,0-.62,0-.16.16-.16Z"></path><path class="cls-1" d="M122.89,7.82h1.88c.13,0,.18,0,.17.17s0,.4,0,.6,0,.16-.17.16H123.6c-.14,0-.17,0-.16.18v3.66c0,.16,0,.22-.2.21a4.21,4.21,0,0,0-.71,0c-.15,0-.19,0-.19-.19,0-1.22,0-2.45,0-3.67,0-.15,0-.19-.19-.19H121c-.14,0-.18,0-.17-.17a5.81,5.81,0,0,0,0-.59c0-.13,0-.17.17-.17Z"></path><path class="cls-1" d="M144,27c0-.77,0-1.53,0-2.3,0-.14,0-.18.19-.18s.53,0,.8,0c.1,0,.14,0,.14.14v4.71c0,.11,0,.14-.14.14q-.42,0-.84,0c-.13,0-.14-.05-.14-.16Z"></path><path class="cls-1" d="M119.75,10.3v2.29c0,.15,0,.2-.18.2s-.51,0-.77,0-.16,0-.16-.15V8c0-.11,0-.15.14-.15h.84c.12,0,.13,0,.13.15Z"></path><path class="cls-1" d="M112.22,27c0-.77,0-1.54,0-2.31,0-.13,0-.18.17-.18a6.26,6.26,0,0,0,.75,0c.14,0,.18,0,.18.18,0,1,0,2,0,3,0,.56,0,1.11,0,1.66,0,.12,0,.16-.15.16s-.53,0-.79,0-.16,0-.16-.16C112.23,28.59,112.22,27.81,112.22,27Z"></path><path class="cls-1" d="M147.64,29.36s0,0,0,0Z"></path></svg>