<svg xmlns="http://www.w3.org/2000/svg" id="Layer_1" data-name="Layer 1" viewBox="0 0 76.98 76.98"><defs><style>.cls-1{fill:#fff;}</style></defs><path class="cls-1" d="M77,77H0V0H77ZM1.63,1.62V75.35H75.36V1.62Z"></path><path class="cls-1" d="M73.11,4.13v69h-69v-69Zm-68,1V72.14H72.15V5.08Z"></path><path class="cls-1" d="M48.8,20.35l2-.27,1.11-.15c.2,0,.36-.17.29-.37s-.23-.2-.37-.28-.12,0-.18,0L46.55,20c-.49.07-1,.12-1.46.22a.46.46,0,0,0-.29.33c0,.22.16.3.36.3l.29,0,1.32-.17.07.09c-.25.25-.47.52-.73.75s-.5.36-.73.56-.57.56-.88.82c-.57.47-1.16.91-1.74,1.37s-1.18,1-1.81,1.43a1.3,1.3,0,0,1-1.45.18,1.89,1.89,0,0,1-1-1.91c.12-.85.19-1.71.3-2.56,0-.39.1-.78.19-1.17s.19-.53.26-.8a5.67,5.67,0,0,0,.1-.72c.07-.46.14-.92.18-1.38,0-.19,0-.43-.26-.46s-.59-.1-.81.16a6.42,6.42,0,0,0-.42.6c-.29.42-.57.84-.83,1.27a15.06,15.06,0,0,0-1.08,1.91,10.44,10.44,0,0,0-.84,2.33,8.52,8.52,0,0,0-.37,1.9c0,.46,0,.94,0,1.41a1.9,1.9,0,0,0,.1.46,4.52,4.52,0,0,0,1.16,1.95A3.2,3.2,0,0,0,38.31,30a4.7,4.7,0,0,0,2.4-.29,9.36,9.36,0,0,0,1.93-1.21,18.74,18.74,0,0,0,2.57-2.84c.51-.69,1-1.35,1.59-2,.23-.29.48-.57.7-.88s.57-.88.91-1.27A1.18,1.18,0,0,0,48.8,20.35Z"></path><path class="cls-1" d="M47,46.43c.78,0,1-.29.89-.94s-.25-1.07-.41-1.6c-.09-.29-.27-.55-.37-.84a5,5,0,0,0-.6-1.65.94.94,0,0,1-.09-.31c-.06-.23-.11-.48-.19-.7s-.27-.52-.37-.79-.1-.44-.16-.65a6.59,6.59,0,0,1-.66-1.71s0-.07-.05-.11c-.14-.46-.48-.82-.59-1.32a7.31,7.31,0,0,0-.71-1.69c-.27-.57-.59-1.11-.86-1.68a4.53,4.53,0,0,0-1.08-1.6,1.73,1.73,0,0,0-.58-.37,1.61,1.61,0,0,0-2,1.08,5.9,5.9,0,0,0-.43,1.82A3.28,3.28,0,0,0,39,35.48c.47.8,1,1.58,1.49,2.35s1.2,1.75,1.8,2.63c.73,1.09,1.45,2.19,2.19,3.28.47.7,1,1.35,1.42,2.06A1.09,1.09,0,0,0,47,46.43Z"></path><path class="cls-1" d="M29.64,60.3a3.32,3.32,0,0,0-1.63.28,6.1,6.1,0,0,0-1.43.89A2,2,0,0,0,26,62.54c-.22,1.45-.37,2.89.64,4.19a11,11,0,0,0,1.53,1.66,4.39,4.39,0,0,0,1.45.91,1.89,1.89,0,0,0,1.38.06.93.93,0,0,0,.47-1.15c-.07-.24-.37-.45-.61-.62s-.59-.23-.84-.42A7.38,7.38,0,0,1,27.85,65a1.4,1.4,0,0,1-.17-1.45c.12-.24.3-.45.41-.7a1.23,1.23,0,0,1,.94-.72,2.63,2.63,0,0,1,2.47.77.3.3,0,0,1,0,.46,1.38,1.38,0,0,0-.36,1.11,1.1,1.1,0,0,0,.65.94A.86.86,0,0,0,32.87,65c0-.06.05-.12.08-.17a4.07,4.07,0,0,1,.5-1,13,13,0,0,1,1.35-1.2c.08-.07.3-.13.35-.08a.77.77,0,0,1,.19.44c0,.2-.05.42,0,.63s.09.73.11,1.09a11,11,0,0,1,0,1.28c0,.74-.09,1.47-.13,2.2,0,.4-.16.87.34,1.08a2.16,2.16,0,0,0,.83.17c.5,0,.68-.2.68-.71,0-.84,0-1.69,0-2.53q0-3.57,0-7.15a.68.68,0,0,0-.52-.69,2.08,2.08,0,0,0-.61,0,.8.8,0,0,0-.72.81c0,.34,0,.69-.07,1a.79.79,0,0,1-.34.46,5.87,5.87,0,0,1-.81.26,1.7,1.7,0,0,0-.56.26c-.44.39-.73.43-1.16.1A4,4,0,0,0,29.64,60.3Z"></path><path class="cls-1" d="M19.26,66.5h0c0-.71,0-1.42,0-2.12a2.71,2.71,0,0,1,.85-1.91,3.56,3.56,0,0,1,.74-.65,1.09,1.09,0,0,1,1.07-.25,2.55,2.55,0,0,1,1,.61,1.49,1.49,0,0,1,.4,1.47,4,4,0,0,1-.65,1.47c-.42.47-.79,1-1.18,1.45a.72.72,0,0,0-.13.28.76.76,0,0,0,.28.72.88.88,0,0,0,1.28,0c.38-.49.81-1,1.14-1.47a6.61,6.61,0,0,0,.81-1.67,5.61,5.61,0,0,0,.07-1.59,1.16,1.16,0,0,0-.18-.63c-.33-.49-.52-1.08-1.14-1.37-.43-.19-.78-.53-1.29-.52-.82,0-1.68-.21-2.37.46-.1.09-.35.19-.41.14a.86.86,0,0,1-.22-.46,1.4,1.4,0,0,1,0-.41c0-.46,0-.92,0-1.38a.35.35,0,0,0-.34-.39,3.75,3.75,0,0,0-.67,0c-.43.06-.56.2-.55.63,0,.79.06,1.58.08,2.36,0,.36,0,.73,0,1.09-.05.7.12,1.45-.35,2.08a4.48,4.48,0,0,1-.74.77,1.65,1.65,0,0,1-1.87.2,3.38,3.38,0,0,1-.72-.69,1.79,1.79,0,0,1-.17-2.13,3.9,3.9,0,0,0,.31-.4,1,1,0,0,1,.79-.66,3.52,3.52,0,0,1,.43-.13.62.62,0,0,1,.36,0,.94.94,0,0,0,.89.07c.3-.12.15-.42.18-.65a.41.41,0,0,0,0-.19c-.06-.12-.11-.29-.2-.33a3.38,3.38,0,0,0-.91-.23,3.56,3.56,0,0,0-1.29.14,2.43,2.43,0,0,0-1.2.51,4.85,4.85,0,0,0-.86.83,3,3,0,0,0-.29,1.2,7.13,7.13,0,0,0,0,1.6,2.19,2.19,0,0,0,.38,1.05,5.13,5.13,0,0,0,1,.87,2.2,2.2,0,0,0,1.43.55c.26,0,.53,0,.8,0a3,3,0,0,0,1.3-.23c.6-.26.72-.16.7.45s0,1.18,0,1.76a.6.6,0,0,0,.57.65,2.44,2.44,0,0,0,.38,0c.49,0,.6-.11.61-.6Z"></path><path class="cls-1" d="M48.58,61.31a3.45,3.45,0,0,1-.19-.77c0-.53,0-1.06,0-1.6s-.18-.57-.58-.57h-.29a.54.54,0,0,0-.57.52c0,.13,0,.26,0,.39,0,1.5,0,3-.08,4.5A2,2,0,0,1,46,65.32c-.21.15-.43.28-.64.42a1.1,1.1,0,0,1-1.12,0,2.25,2.25,0,0,1-1.07-1,1.76,1.76,0,0,1-.25-1.48A3.11,3.11,0,0,1,44,61.84c.27-.2.61-.44,1-.24a.83.83,0,0,0,.88.06c.31-.19.21-.56.18-.85a.52.52,0,0,0-.55-.51c-.43,0-.85,0-1.28,0a1.57,1.57,0,0,0-.69.1,10.1,10.1,0,0,0-1.41.93,3,3,0,0,0-.55.68.52.52,0,0,0-.07.21,6,6,0,0,0-.07,2.5,2.43,2.43,0,0,0,.52,1.18,3.57,3.57,0,0,0,2,1.17,6.83,6.83,0,0,0,1.5,0,1.38,1.38,0,0,0,.4-.1c.24-.08.47-.18.72-.24s.37.11.37.35c0,.65,0,1.3,0,2s.11.71.7.75h.32c.36,0,.45-.09.45-.45,0-1.3,0-2.59,0-3.88a3.63,3.63,0,0,1,2.09-3.62c.19-.1.49,0,.73.05s.17.14.27.17c.56.16.74.63.9,1.1.26.73-.23,1.33-.39,2,0,0,0,0,0,0-.3.37-.61.75-.9,1.13a4,4,0,0,0-.41.65.74.74,0,0,0,.7,1.09,1,1,0,0,0,.83-.37c.08-.07.09-.21.16-.3.36-.48.75-.94,1.08-1.44a3.22,3.22,0,0,0,.5-1.08,12.63,12.63,0,0,0,.13-1.52,2.69,2.69,0,0,0-.59-1.61,2.58,2.58,0,0,0-1.75-1.09A3.53,3.53,0,0,0,48.58,61.31Z"></path><path class="cls-1" d="M37.52,32A2.85,2.85,0,0,0,37,30.09a1,1,0,0,0-.26-.31,2.08,2.08,0,0,0-1.83.2c-.36.35-.79.64-.83,1.2a.22.22,0,0,1-.05.11c-.32.54-.67,1.07-1,1.63-.44.83-.85,1.67-1.26,2.52-.15.3-.27.62-.42.92-.32.61-.66,1.21-1,1.83s-.46,1-.7,1.48l-.94,1.79c-.09.17-.19.34-.26.51a18.1,18.1,0,0,1-.81,1.79,2.91,2.91,0,0,0-.34,1.49.52.52,0,0,0,.32.58.93.93,0,0,0,.89-.2c.58-.73,1.17-1.46,1.73-2.21s1-1.4,1.52-2.1l.35-.48c.28-.37.56-.73.83-1.1s.54-.79.8-1.19.73-1.06,1.07-1.6.51-1,.8-1.43.63-.92.94-1.39a9.52,9.52,0,0,1,.52-.87A1.43,1.43,0,0,0,37.52,32Z"></path><path class="cls-1" d="M64.22,60.49h0c0-.52,0-1,0-1.54,0-.29-.13-.41-.41-.4H62.72c-.24,0-.37.11-.37.37,0,.42,0,.84,0,1.25s0,.9-.1,1.34a.62.62,0,0,1-.26.42,3.18,3.18,0,0,1-.91.32,1,1,0,0,1-1.24-.74c0-.06-.09-.11-.13-.18a5.37,5.37,0,0,1-.43-.73.54.54,0,0,0-.5-.38,1.22,1.22,0,0,0-1.08.4.81.81,0,0,0,0,1.25.88.88,0,0,1,.12.19c.26.46.51.93.79,1.38.39.62.8,1.23,1.21,1.85.23.35.44.73.7,1.06.49.64,1,1.26,1.52,1.88a5.33,5.33,0,0,0,1.33,1.35.87.87,0,0,0,.81,0c.2-.16.39-.33.58-.5a1,1,0,0,0,0-1.14c-.53-.53-1.06-1-1.55-1.61s-.94-1.19-1.4-1.8c-.29-.38-.18-.67.28-.79a10,10,0,0,0,1.07-.31,1.18,1.18,0,0,0,.42-.32,2.39,2.39,0,0,0,.42-.52,2.12,2.12,0,0,0,.29-.74C64.25,61.43,64.22,61,64.22,60.49Z"></path><path class="cls-1" d="M54.66,64.16h0V67.1c0,.75,0,1.5,0,2.25a.4.4,0,0,0,.45.45h.35c.93,0,1.1-.19,1.09-1.11,0-1.92,0-3.85,0-5.77,0-1.29,0-2.58,0-3.87,0-.36-.13-.47-.49-.49s-.57,0-.86,0-.5.1-.5.49Z"></path><path class="cls-1" d="M38.39,64.48h0v2.18c0,.7,0,1.41,0,2.11,0,.45.14.6.58.63l.51,0c.57,0,.73-.11.72-.68s0-1.24,0-1.85c0-2.43,0-4.85,0-7.28,0-.27,0-.55,0-.83s-.18-.54-.55-.54l-.76,0a.59.59,0,0,0-.64.66c0,.44.14.88.15,1.32C38.41,61.68,38.39,63.08,38.39,64.48Z"></path><path class="cls-1" d="M41.9,13.86l.1,0a3,3,0,0,0-.38-.8,1.09,1.09,0,0,0-.69-.36c-.84-.07-1.7-.08-2.54-.11a.83.83,0,0,0-.34.1.61.61,0,0,0-.42.61,4.66,4.66,0,0,0,1,2.4,2.91,2.91,0,0,0,.8.67,1.13,1.13,0,0,0,1.15-.17,4.06,4.06,0,0,0,.88-1.1C41.62,14.68,42,14.38,41.9,13.86Z"></path><path class="cls-1" d="M46.11,56.18c0,.41.3.4.56.38s.27-.27.27-.48c0-1,0-2,0-3,0-.31-.11-.43-.41-.43s-.44.06-.44.41c0,.59,0,1.18,0,1.76a1,1,0,0,1-.63,1,.48.48,0,0,1-.65-.07,1.16,1.16,0,0,1-.24-.63c0-.71,0-1.43,0-2.15,0-.28-.18-.33-.4-.32s-.44,0-.44.27c0,.86,0,1.73,0,2.59a1.17,1.17,0,0,0,1.08,1.13A1.55,1.55,0,0,0,46.11,56.18Z"></path><path class="cls-1" d="M33.93,56.65c.25,0,.41,0,.56-.07a1.16,1.16,0,0,0,1-1,1.07,1.07,0,0,0-.74-1.23L34,54c-.2-.09-.34-.26-.24-.46a.6.6,0,0,1,.42-.3,1.88,1.88,0,0,1,.73.16c.32.12.47,0,.42-.28a.67.67,0,0,0-.29-.44,1.64,1.64,0,0,0-.67-.15,1.32,1.32,0,0,0-1.34.62,1.09,1.09,0,0,0,.59,1.56,7.43,7.43,0,0,1,.81.37.58.58,0,0,1,.21.44.49.49,0,0,1-.33.31,6.32,6.32,0,0,1-1-.13l-.44-.1a1.75,1.75,0,0,0,0,.55.46.46,0,0,0,.29.27C33.43,56.54,33.72,56.6,33.93,56.65Z"></path><path class="cls-1" d="M23.81,53.39c0,.7,0,1.38,0,2.07,0,1,.69,1.3,1.6,1.07a.45.45,0,0,0,.25-.61c-.09-.28-.27-.12-.42-.09-.34.08-.54,0-.55-.28,0-.72,0-1.44,0-2.18h.67c.27,0,.32-.17.32-.41s-.08-.33-.32-.32h-.72c0-.24,0-.43,0-.62s-.16-.34-.4-.34-.45,0-.43.35a6,6,0,0,1,0,.6c-.3,0-.67-.07-.62.42S23.53,53.35,23.81,53.39Z"></path><path class="cls-1" d="M39.59,52.64c0-.24,0-.45,0-.65s-.19-.31-.4-.31-.44,0-.43.32,0,.4,0,.61c-.26.08-.65-.08-.62.41s.36.32.62.37v2c0,1.11.65,1.32,1.52,1.17.31-.05.41-.27.34-.61s-.29-.14-.46-.11-.5,0-.52-.29c0-.72,0-1.44,0-2.18h.67c.26,0,.33-.15.33-.37s-.06-.38-.33-.36S39.86,52.64,39.59,52.64Z"></path><path class="cls-1" d="M19.2,53c0-.38-.26-.39-.52-.38s-.28.23-.28.44c0,1,0,2.09,0,3.13,0,.33.14.38.4.38s.45,0,.44-.38c0-.64,0-1.28,0-1.92a.89.89,0,0,1,1-.86c.18,0,.36.14.43-.15s0-.58-.26-.65A1.06,1.06,0,0,0,19.2,53Z"></path><path class="cls-1" d="M57.08,54.59c0,.55,0,1.09,0,1.63,0,.32.17.35.41.34s.43,0,.42-.32V53c0-.32-.19-.34-.42-.34s-.42,0-.41.35C57.1,53.5,57.08,54.05,57.08,54.59Z"></path><path class="cls-1" d="M57.5,51.18c-.39,0-.49.1-.5.46s.14.51.51.51.48-.16.48-.5S57.87,51.19,57.5,51.18Z"></path><path class="cls-1" d="M48.8,20.35a1.18,1.18,0,0,1-.39,1.11c-.34.39-.6.85-.91,1.27s-.47.59-.7.88c-.54.68-1.08,1.34-1.59,2a18.74,18.74,0,0,1-2.57,2.84,9.36,9.36,0,0,1-1.93,1.21,4.7,4.7,0,0,1-2.4.29,3.2,3.2,0,0,1-2.12-1.17A4.52,4.52,0,0,1,35,26.86a1.9,1.9,0,0,1-.1-.46c0-.47,0-.95,0-1.41a8.52,8.52,0,0,1,.37-1.9,10.44,10.44,0,0,1,.84-2.33,15.06,15.06,0,0,1,1.08-1.91c.26-.43.54-.85.83-1.27a6.42,6.42,0,0,1,.42-.6c.22-.26.54-.18.81-.16s.28.27.26.46c0,.46-.11.92-.18,1.38a5.67,5.67,0,0,1-.1.72c-.07.27-.2.53-.26.8s-.14.78-.19,1.17c-.11.85-.18,1.71-.3,2.56a1.89,1.89,0,0,0,1,1.91A1.3,1.3,0,0,0,41,25.64c.63-.44,1.21-.95,1.81-1.43s1.17-.9,1.74-1.37c.31-.26.57-.56.88-.82s.5-.36.73-.56.48-.5.73-.75l-.07-.09-1.32.17-.29,0c-.2,0-.39-.08-.36-.3a.46.46,0,0,1,.29-.33c.48-.1,1-.15,1.46-.22l5.12-.66c.06,0,.14,0,.18,0s.33.16.37.28-.09.34-.29.37l-1.11.15Z"></path><path class="cls-1" d="M47,46.43a1.09,1.09,0,0,1-1.11-.63c-.43-.71-.95-1.36-1.42-2.06-.74-1.09-1.46-2.19-2.19-3.28-.6-.88-1.21-1.74-1.8-2.63s-1-1.55-1.49-2.35a3.28,3.28,0,0,1-.29-2.11,5.9,5.9,0,0,1,.43-1.82,1.61,1.61,0,0,1,2-1.08,1.73,1.73,0,0,1,.58.37,4.53,4.53,0,0,1,1.08,1.6c.27.57.59,1.11.86,1.68a7.31,7.31,0,0,1,.71,1.69c.11.5.45.86.59,1.32,0,0,.05.08.05.11A6.59,6.59,0,0,0,45.72,39c.06.21.08.44.16.65s.26.52.37.79.13.47.19.7a.94.94,0,0,0,.09.31,5,5,0,0,1,.6,1.65c.1.29.28.55.37.84.16.53.28,1.07.41,1.6S47.8,46.43,47,46.43Z"></path><path class="cls-1" d="M29.64,60.3a4,4,0,0,1,2.72,1c.43.33.72.29,1.16-.1a1.7,1.7,0,0,1,.56-.26,5.87,5.87,0,0,0,.81-.26.79.79,0,0,0,.34-.46c.06-.33,0-.68.07-1a.8.8,0,0,1,.72-.81,2.08,2.08,0,0,1,.61,0,.68.68,0,0,1,.52.69q0,3.59,0,7.15c0,.84,0,1.69,0,2.53,0,.51-.18.72-.68.71a2.16,2.16,0,0,1-.83-.17c-.5-.21-.36-.68-.34-1.08,0-.73.1-1.46.13-2.2a11,11,0,0,0,0-1.28c0-.36-.09-.73-.11-1.09s0-.43,0-.63a.77.77,0,0,0-.19-.44c0-.05-.27,0-.35.08a13,13,0,0,0-1.35,1.2,4.07,4.07,0,0,0-.5,1s-.05.11-.08.17a.86.86,0,0,1-1.09.44,1.1,1.1,0,0,1-.65-.94,1.38,1.38,0,0,1,.36-1.11.3.3,0,0,0,0-.46A2.63,2.63,0,0,0,29,62.17a1.23,1.23,0,0,0-.94.72c-.11.25-.29.46-.41.7A1.4,1.4,0,0,0,27.85,65,7.38,7.38,0,0,0,30,67.17c.25.19.59.25.84.42s.54.38.61.62A.93.93,0,0,1,31,69.36a1.89,1.89,0,0,1-1.38-.06,4.39,4.39,0,0,1-1.45-.91,11,11,0,0,1-1.53-1.66c-1-1.3-.86-2.74-.64-4.19a2,2,0,0,1,.57-1.07A6.1,6.1,0,0,1,28,60.58,3.32,3.32,0,0,1,29.64,60.3Z"></path><path class="cls-1" d="M19.26,66.5v2.34c0,.49-.12.6-.61.6a2.44,2.44,0,0,1-.38,0,.6.6,0,0,1-.57-.65c0-.58,0-1.17,0-1.76s-.1-.71-.7-.45a3,3,0,0,1-1.3.23c-.27,0-.54,0-.8,0a2.2,2.2,0,0,1-1.43-.55,5.13,5.13,0,0,1-1-.87,2.19,2.19,0,0,1-.38-1.05,7.13,7.13,0,0,1,0-1.6,3,3,0,0,1,.29-1.2,4.85,4.85,0,0,1,.86-.83,2.43,2.43,0,0,1,1.2-.51A3.56,3.56,0,0,1,15.76,60a3.38,3.38,0,0,1,.91.23c.09,0,.14.21.2.33a.41.41,0,0,1,0,.19c0,.23.12.53-.18.65a.94.94,0,0,1-.89-.07.62.62,0,0,0-.36,0,3.52,3.52,0,0,0-.43.13,1,1,0,0,0-.79.66,3.9,3.9,0,0,1-.31.4,1.79,1.79,0,0,0,.17,2.13,3.38,3.38,0,0,0,.72.69,1.65,1.65,0,0,0,1.87-.2,4.48,4.48,0,0,0,.74-.77c.47-.63.3-1.38.35-2.08,0-.36,0-.73,0-1.09,0-.78-.06-1.57-.08-2.36,0-.43.12-.57.55-.63a3.75,3.75,0,0,1,.67,0,.35.35,0,0,1,.34.39c0,.46,0,.92,0,1.38a1.4,1.4,0,0,0,0,.41.86.86,0,0,0,.22.46c.06,0,.31-.05.41-.14.69-.67,1.55-.45,2.37-.46.51,0,.86.33,1.29.52.62.29.81.88,1.14,1.37a1.16,1.16,0,0,1,.18.63,5.61,5.61,0,0,1-.07,1.59A6.61,6.61,0,0,1,24,66.06c-.33.52-.76,1-1.14,1.47a.88.88,0,0,1-1.28,0,.76.76,0,0,1-.28-.72.72.72,0,0,1,.13-.28c.39-.49.76-1,1.18-1.45a4,4,0,0,0,.65-1.47,1.49,1.49,0,0,0-.4-1.47,2.55,2.55,0,0,0-1-.61,1.09,1.09,0,0,0-1.07.25,3.56,3.56,0,0,0-.74.65,2.71,2.71,0,0,0-.85,1.91c0,.7,0,1.41,0,2.12Z"></path><path class="cls-1" d="M48.58,61.31a3.53,3.53,0,0,1,3.13-.65,2.58,2.58,0,0,1,1.75,1.09,2.69,2.69,0,0,1,.59,1.61,12.63,12.63,0,0,1-.13,1.52,3.22,3.22,0,0,1-.5,1.08c-.33.5-.72,1-1.08,1.44-.07.09-.08.23-.16.3a1,1,0,0,1-.83.37.74.74,0,0,1-.7-1.09,4,4,0,0,1,.41-.65c.29-.38.6-.76.9-1.13,0,0,0,0,0,0,.16-.65.65-1.25.39-2-.16-.47-.34-.94-.9-1.1-.1,0-.17-.15-.27-.17s-.54-.15-.73-.05a3.63,3.63,0,0,0-2.09,3.62c0,1.29,0,2.58,0,3.88,0,.36-.09.44-.45.45H47.6c-.59,0-.7-.15-.7-.75s0-1.3,0-2c0-.24-.11-.41-.37-.35s-.48.16-.72.24a1.38,1.38,0,0,1-.4.1,6.83,6.83,0,0,1-1.5,0,3.57,3.57,0,0,1-2-1.17,2.43,2.43,0,0,1-.52-1.18,6,6,0,0,1,.07-2.5.52.52,0,0,1,.07-.21,3,3,0,0,1,.55-.68,10.1,10.1,0,0,1,1.41-.93,1.57,1.57,0,0,1,.69-.1c.43,0,.85,0,1.28,0a.52.52,0,0,1,.55.51c0,.29.13.66-.18.85a.83.83,0,0,1-.88-.06c-.36-.2-.7,0-1,.24a3.11,3.11,0,0,0-1.07,1.51,1.76,1.76,0,0,0,.25,1.48,2.25,2.25,0,0,0,1.07,1,1.1,1.1,0,0,0,1.12,0c.21-.14.43-.27.64-.42a2,2,0,0,0,.93-1.54c0-1.5.05-3,.08-4.5,0-.13,0-.26,0-.39a.54.54,0,0,1,.57-.52h.29c.4,0,.58.17.58.57s0,1.07,0,1.6A3.45,3.45,0,0,0,48.58,61.31Z"></path><path class="cls-1" d="M37.52,32a1.43,1.43,0,0,1-.41,1.23,9.52,9.52,0,0,0-.52.87c-.31.47-.65.91-.94,1.39s-.51,1-.8,1.43-.71,1.07-1.07,1.6-.52.8-.8,1.19-.55.73-.83,1.1l-.35.48c-.51.7-1,1.41-1.52,2.1s-1.15,1.48-1.73,2.21a.93.93,0,0,1-.89.2.52.52,0,0,1-.32-.58,2.91,2.91,0,0,1,.34-1.49A18.1,18.1,0,0,0,28.49,42c.07-.17.17-.34.26-.51l.94-1.79c.24-.49.45-1,.7-1.48s.66-1.22,1-1.83c.15-.3.27-.62.42-.92.41-.85.82-1.69,1.26-2.52.29-.56.64-1.09,1-1.63a.22.22,0,0,0,.05-.11c0-.56.47-.85.83-1.2a2.08,2.08,0,0,1,1.83-.2,1,1,0,0,1,.26.31A2.85,2.85,0,0,1,37.52,32Z"></path><path class="cls-1" d="M64.22,60.49c0,.47,0,.94,0,1.41a2.12,2.12,0,0,1-.29.74,2.39,2.39,0,0,1-.42.52,1.18,1.18,0,0,1-.42.32,10,10,0,0,1-1.07.31c-.46.12-.57.41-.28.79.46.61.91,1.23,1.4,1.8s1,1.08,1.55,1.61a1,1,0,0,1,0,1.14c-.19.17-.38.34-.58.5a.87.87,0,0,1-.81,0A5.33,5.33,0,0,1,62,68.24c-.51-.62-1-1.24-1.52-1.88-.26-.33-.47-.71-.7-1.06-.41-.62-.82-1.23-1.21-1.85-.28-.45-.53-.92-.79-1.38a.88.88,0,0,0-.12-.19.81.81,0,0,1,0-1.25,1.22,1.22,0,0,1,1.08-.4.54.54,0,0,1,.5.38,5.37,5.37,0,0,0,.43.73c0,.07.1.12.13.18a1,1,0,0,0,1.24.74,3.18,3.18,0,0,0,.91-.32.62.62,0,0,0,.26-.42c.06-.44.08-.89.1-1.34s0-.83,0-1.25c0-.26.13-.36.37-.37h1.09c.28,0,.42.11.41.4,0,.51,0,1,0,1.54Z"></path><path class="cls-1" d="M54.66,64.16V59c0-.39.1-.49.5-.49s.57,0,.86,0,.48.13.49.49c0,1.29,0,2.58,0,3.87,0,1.92,0,3.85,0,5.77,0,.92-.16,1.1-1.09,1.11h-.35a.4.4,0,0,1-.45-.45c0-.75,0-1.5,0-2.25V64.16Z"></path><path class="cls-1" d="M38.39,64.48c0-1.4,0-2.8,0-4.2,0-.44-.12-.88-.15-1.32a.59.59,0,0,1,.64-.66l.76,0c.37,0,.55.17.55.54s0,.56,0,.83c0,2.43,0,4.85,0,7.28,0,.61,0,1.23,0,1.85s-.15.72-.72.68l-.51,0c-.44,0-.58-.18-.58-.63,0-.7,0-1.41,0-2.11V64.48Z"></path><path class="cls-1" d="M41.9,13.86c.14.52-.28.82-.47,1.21a4.06,4.06,0,0,1-.88,1.1,1.13,1.13,0,0,1-1.15.17,2.91,2.91,0,0,1-.8-.67,4.66,4.66,0,0,1-1-2.4.61.61,0,0,1,.42-.61.83.83,0,0,1,.34-.1c.84,0,1.7,0,2.54.11a1.09,1.09,0,0,1,.69.36,3,3,0,0,1,.38.8Z"></path><path class="cls-1" d="M53.62,51.3c0-.27-.1-.37-.36-.38-.45,0-.49,0-.49.48v1.52a.76.76,0,0,1-.16-.1,1.45,1.45,0,0,0-2.21.64,3,3,0,0,0,0,2.28,1.27,1.27,0,0,0,1.31.88,7.43,7.43,0,0,0,1.13-.32c0,.29.28.28.55.26s.25-.26.25-.46C53.61,54.5,53.61,52.9,53.62,51.3Zm-1.39,4.46a.67.67,0,0,1-1-.35,2.3,2.3,0,0,1,0-1.53.73.73,0,0,1,1.24-.35,1,1,0,0,1,.35,1.06A1,1,0,0,1,52.23,55.76Z"></path><path class="cls-1" d="M64.85,54.56a1.9,1.9,0,0,1-1.07,1.91,1.8,1.8,0,0,1-2.64-1.71,3.48,3.48,0,0,1,.1-.91,1.76,1.76,0,0,1,2-1.29,1.67,1.67,0,0,1,1.57,1.74A2.26,2.26,0,0,1,64.85,54.56Zm-.87.09a4.32,4.32,0,0,0,0-.57.83.83,0,0,0-.84-.77c-.56,0-.9.18-1,.71a3.53,3.53,0,0,0,0,1.17.77.77,0,0,0,.83.68.85.85,0,0,0,1-.65A3.49,3.49,0,0,0,64,54.65Z"></path><path class="cls-1" d="M15,56.08c0-.74,0-1.48,0-2.22a1.17,1.17,0,0,0-1.16-1.3,2.38,2.38,0,0,0-1.54.32.45.45,0,0,0-.14.62c.11.26.3.06.46,0a3.69,3.69,0,0,1,.79-.21c.62,0,.84.26.71.9a5.81,5.81,0,0,0-.59,0,3.55,3.55,0,0,0-.87.19,1.08,1.08,0,0,0-.73,1.24,1.09,1.09,0,0,0,1,1,1.64,1.64,0,0,0,1.31-.32c.1.33.35.32.6.26S15,56.26,15,56.08Zm-1.73-.17a.46.46,0,0,1-.49-.41.45.45,0,0,1,.33-.55c.33-.07.67-.09,1-.14C14.16,55.52,13.79,56,13.22,55.91Z"></path><path class="cls-1" d="M46.11,56.18a1.55,1.55,0,0,1-1.28.43,1.17,1.17,0,0,1-1.08-1.13c0-.86,0-1.73,0-2.59,0-.32.25-.27.44-.27s.4,0,.4.32c0,.72,0,1.44,0,2.15a1.16,1.16,0,0,0,.24.63.48.48,0,0,0,.65.07,1,1,0,0,0,.63-1c0-.58,0-1.17,0-1.76,0-.35.07-.4.44-.41s.41.12.41.43c0,1,0,2,0,3,0,.21.06.46-.27.48S46.14,56.59,46.11,56.18Z"></path><path class="cls-1" d="M33.93,56.65c-.21,0-.5-.11-.78-.2a.46.46,0,0,1-.29-.27,1.75,1.75,0,0,1,0-.55l.44.1a6.32,6.32,0,0,0,1,.13.49.49,0,0,0,.33-.31.58.58,0,0,0-.21-.44,7.43,7.43,0,0,0-.81-.37A1.09,1.09,0,0,1,33,53.18a1.32,1.32,0,0,1,1.34-.62,1.64,1.64,0,0,1,.67.15.67.67,0,0,1,.29.44c0,.33-.1.4-.42.28a1.88,1.88,0,0,0-.73-.16.6.6,0,0,0-.42.3c-.1.2,0,.37.24.46l.76.33a1.07,1.07,0,0,1,.74,1.23,1.16,1.16,0,0,1-1,1C34.34,56.61,34.18,56.62,33.93,56.65Z"></path><path class="cls-1" d="M23.81,53.39c-.28,0-.58.07-.62-.34s.32-.4.62-.42a6,6,0,0,0,0-.6c0-.33.18-.35.43-.35s.43,0,.4.34,0,.38,0,.62h.72c.24,0,.32.1.32.32s-.05.41-.32.41h-.67c0,.74,0,1.46,0,2.18,0,.3.21.36.55.28.15,0,.33-.19.42.09a.45.45,0,0,1-.25.61c-.91.23-1.58,0-1.6-1.07C23.8,54.77,23.81,54.09,23.81,53.39Z"></path><path class="cls-1" d="M39.59,52.64c.27,0,.49,0,.71,0s.33.14.33.36-.07.37-.33.37h-.67c0,.74,0,1.46,0,2.18,0,.29.21.35.52.29s.38-.22.46.11,0,.56-.34.61c-.87.15-1.51-.06-1.52-1.17v-2c-.26,0-.6.07-.62-.37s.36-.33.62-.41c0-.21,0-.41,0-.61s.21-.32.43-.32.42,0,.4.31S39.59,52.4,39.59,52.64Z"></path><path class="cls-1" d="M19.2,53a1.06,1.06,0,0,1,1.17-.39c.26.07.34.29.26.65s-.25.18-.43.15a.89.89,0,0,0-1,.86c0,.64,0,1.28,0,1.92,0,.34-.17.39-.44.38s-.41-.05-.4-.38c0-1,0-2.09,0-3.13,0-.21,0-.42.28-.44S19.18,52.61,19.2,53Z"></path><path class="cls-1" d="M57.08,54.59c0-.54,0-1.09,0-1.63,0-.31.17-.35.41-.35s.42,0,.42.34v3.29c0,.32-.2.32-.42.32s-.42,0-.41-.34C57.1,55.68,57.08,55.14,57.08,54.59Z"></path><path class="cls-1" d="M57.5,51.18c.37,0,.49.12.49.47s-.15.49-.48.5S57,52,57,51.64,57.11,51.18,57.5,51.18Z"></path></svg>