<svg xmlns="http://www.w3.org/2000/svg" id="Layer_1" data-name="Layer 1" viewBox="0 0 109.62 41.02"><defs><style>.cls-1{fill:#fff;fill-rule:evenodd;}</style></defs><path class="cls-1" d="M14.91.36a.94.94,0,0,0-.06-.3A2.65,2.65,0,0,0,14.43,0c-.1,0-.18,0-.18.12,0,.65.21,1,0,1.44a1,1,0,0,1-1,.73c-.35,0-.88-.19-1-.46-.21-.53.21-.45-.28-1.11-.63.31-.34.13-.49.89a.94.94,0,0,1-.77.62c-.58,0-.86-.73-1.14-.73H9.44c-.3,0-.28,1.93-1.38,1.93H8c-.35,0-.59-1-1-1H6.91a.23.23,0,0,0-.24.24v.12c0,.18.42.46.42.84a.69.69,0,0,1-.72.6c-.46,0-.41-.18-1.08-.18-.37,0-.71-.54-1.26-.54-.13,0-.08,0-.24.06s-.06.1-.06.24c0,.51,1.44,1.41,1.44,1.8,0,.62-.82.16-1.32.91,0,1.37-.88.6-1.39.6-.14,0-.3.08-.3.24v.18c0,.26.55.46.55.72s-.55.3-.55.6V9c0,.12.3.43.3.6v.06c0,.48-1.08.28-1.08.67v.12c0,.39.68.14.89.73a3,3,0,0,1-.12,1.3C2,13.76,0,12.75,0,13.53v.06c0,.2.17.24.3.3l.78-.14.12,0c.39,0,.52.29.72.43-.08.17-.48.81-.48.84,0,.3.7.41,1,.9l.08.84V17c0,.41-1.15.46-1.15,1,0,.13,0,.08.06.25H2l.78-.37c.35.19,1,.74,1,1.21v.12c0,.45-1.93,1.2-1.93,1.44a.23.23,0,0,0,.24.24A4,4,0,0,1,4,20.09a.68.68,0,0,1,.52.26c.25.2.25.09.51.21a1,1,0,0,1,.65.85v.24a3.57,3.57,0,0,1-.94,1.58c-.72.65-.65.23-1.16,1.31.05.11.06.3.18.3.7,0,1.07-.89,1.32-1.38A15.43,15.43,0,0,1,6.37,22h.12c.27,0,.9.82.9,1.15v.06a6.8,6.8,0,0,1-.3,1.14l.22.26c.34-.19.36-.32.47-.72s.29-.57.34-.74H8.3c.59,0,1.08,0,1.08.84.13.09.21.24.36.24.36,0,.39-.48.84-.48.29,0,.5.66.66.9l.66-.07c.48-.05,1.27.37,1.33.86S13,26.69,13,27.31l.12.24.3-.12,0-.78,0-1.15c0-.37,0-1.2.36-1.2h.36c.07.33.2.66.6.66s.26-.54,1-.64c.39-.05.33-.22.64-.26a1.34,1.34,0,0,0,.71-.19c1.07-.5.87-1.2,1.87-1.67.65.31.69.19,1.1.82.17.26.55,1,.88,1,.08,0,.19-.18.24-.24-.56-1.18-.81-1.08-1.38-1.93.26-.48.38-.18.76-.44s.22-.7.5-.7h.06c.52,0,1.28,1.45,1.81,1.45l.18-.07c0-1-2-1.34-2-2.16,0-.11.15-.36.3-.36h.06c.27,0,.22.12.48.12h.18c.14,0,.14-.05.24-.12v-.78c.21-.31.51-1,1-1h.18c.65,0,1.1.62,2,.55,0-.18.06-.11.06-.24,0-.48-2.28-.32-2.28-1.27v-.06c0-.13.31-.39.42-.6a1,1,0,0,1-.12-.48A1.16,1.16,0,0,1,24.1,15c.33-.13.78.2.91.2h.36c.16,0,.24-.16.24-.3,0-.48-1,.11-1.38-.72,0-.06.24-.53.24-.55v-.3c0-.06-.56-.83-.66-1,.47-.89,1,.17,1.56-1-.07-.13-.05-.24-.24-.24h-.3c-.26,0-.22.12-.48.12h-.06a.69.69,0,0,1-.54-.6v-.06c0-.27.12-.22.12-.49s-.48-.47-.48-.72V9.32c0-.3.72-.47.72-.78V8.48c0-.5-1.26.16-1.26-.36V8c0-.28.42-.23.42-.72s-.73-.18-.73-.72c0-.8,1.57-.67,1.57-1.27,0-.14,0-.18-.18-.18h-.24c-.36,0-1.91,1.27-2.41,1.27H21.1c-.31,0-.72-1.06-.72-1.21s.54-.72.54-1.26c0-.08-.23-.26-.3-.3-.28.15-.87.72-1,.72s-.18,0-.18-.18V4.09c0-.17,1-1.44.36-1.44h-.12c-.4,0-.49,1-.9,1-.21,0-.71-.44-1.25-.56S17,2.49,17,1.86l-.35-.25c-.47.12-1.07.74-1.45.74h-.06c-.17,0-.36-.26-.36-.43,0-.46.18-.75.18-1.26Z"></path><path class="cls-1" d="M24.85,24.55l-.26-.08c-.2.43-.1,1.88-.54,1.88h-.12c-.91,0-.61-.79-1-.79-.16,0-.18.09-.24.18l.07.48c-.53,0-.24-.66-.68-.66-.08,0-.12.09-.12.18v.06c0,.21.12.1.12.3v.25c0,.1-.83.54-.84.54H21c-.19,0-.16-.18-.48-.18a.69.69,0,0,0-.18.12c0,.31,0,1-.3,1s-.62-.66-.9-.66h-.24v.3c.29.07.72.37.72.72v.18a.79.79,0,0,1-.6.54c-.21,0-.39-.24-.54-.24s-.18,0-.18.18.44.32.38.69S18.37,30,18,30l-.26.23c.17.25.56.51.56.92v.18c0,.17-.14.23-.24.3l-.73.06v.06l.13.24c.27,0,.66,0,.66.24v.18c0,.26-.9.93-1.27,1v.18c0,.13.05.19.18.18l1.21-.07.1.15a4.73,4.73,0,0,0-.16.59v.06c0,.17.3.33.3.54v.18c-.13,0-.48.27-.48.42,0,.41.61,0,.71.31s-.19.41.55.47v.18c0,.26-.12.22-.12.48,0,.09.08.12.18.12a1.3,1.3,0,0,0,.42-.18c.25.12.84.46.84.78v.06c0,.36-.42.6-.42,1,0,.11,0,.1.06.18.41-.11.38-.73.84-.73s.15.55.48.55.16-.18.48-.18h.12c.21,0,.57.33.67.48l-.14.53.24.26.4-.84a1.44,1.44,0,0,1,.4-.07h.18c.66,0,.28.66.48,1.08-.09.06-.18.08-.18.24v.18c.41,0,.16-.69.5-1.12a1.83,1.83,0,0,1,1.09-.41c1,.25.48,2.13,1,2.13.14,0,.18,0,.18-.18v-.36c0-.15-.33-.56-.36-.78-.05-.48-.17-.62-.18-.9a2.37,2.37,0,0,1,.6-.12c.69,0,.44.58,1,.6,0-.49-.36-.46-.36-.84v-.06c0-.47.6-.37.9-.31l.11-.13v-.41l.13-.11h.65a1.06,1.06,0,0,1,1-.72l.22.21.05-.06-.6-.6.15-.27.36,0c.11-.07.24-.11.24-.28a.31.31,0,0,0-.12-.24,2.82,2.82,0,0,0,.18-2.41.76.76,0,0,1,.78-.42l.84,0c0-.46,0-.33-.6-.33-.27,0-.84.11-.84-.18s.12-.2.12-.36-.13-.24-.18-.3l.08-.24c.41-.1,1.08-.05,1.3-.36a.68.68,0,0,0-.3-.12.58.58,0,0,0-.54.24l-.72.07L30.6,31l.25-.4,0,0v-.18c0-.21-.48-.39-.48-1s1-.69,1-1-.86.54-1.2.54h-.12a3.44,3.44,0,0,1-.72-1V28c0-.2.39-.37.54-.6l-.07-.18-.79.48,0-.08-.34-.45-.83-.05c0-.41.31-.55.31-.74v-.06c0-.15-.1-.18-.18-.31-.41.28-.18.61-.67.61-.15,0-.35-.22-.48-.3-.54,0-.52-.05-.54-.67-.46,0-.21.22-.6.48l-.36-.54-.42.18-.3-.3Z"></path><path class="cls-1" d="M101.88,12.47V3.11h2.32a8.66,8.66,0,0,1,2.15.21,3.58,3.58,0,0,1,1.39.7,3.85,3.85,0,0,1,1.17,1.6,5.76,5.76,0,0,1,.4,2.18A5.62,5.62,0,0,1,108.9,10a4,4,0,0,1-1.19,1.59,3.44,3.44,0,0,1-1.29.66,7.79,7.79,0,0,1-2.08.21h-2.46Zm1.82-1.69h1a2.69,2.69,0,0,0,2.08-.72,3.33,3.33,0,0,0,.65-2.27,3.3,3.3,0,0,0-.65-2.26,2.69,2.69,0,0,0-2.08-.72h-1ZM92.59,12.47l3.23-9.36h2.25l3.28,9.36H99.29l-.69-2.35H95.13l-.6,2.35Zm5.58-3.93-1-2.66a4,4,0,0,1-.1-.46c-.05-.22-.09-.48-.14-.8,0,.3-.27.57-.32.82a4.68,4.68,0,0,1-.11.48l-.91,2.62Zm-12,3.93V3.11h1.59c.82,0,2.51,0,2.89.1a2.9,2.9,0,0,1,1,.35,2.07,2.07,0,0,1,.76.82,2.45,2.45,0,0,1,.27,1.16,1.9,1.9,0,0,1-.45,1.33,2.25,2.25,0,0,1-1.33.67,2.61,2.61,0,0,1,1.55.74,2.13,2.13,0,0,1,.52,1.51,2.73,2.73,0,0,1-.3,1.27,2.2,2.2,0,0,1-.83.88,3.26,3.26,0,0,1-1.1.4c-.42.08-2.2.13-3.18.13H86.14ZM88,6.85h1.31a2,2,0,0,0,1.17-.26,1,1,0,0,0,.34-.86,1,1,0,0,0-.33-.83,1.92,1.92,0,0,0-1.14-.25H88Zm0,4.05h1.62a1.52,1.52,0,0,0,1-.32,1.28,1.28,0,0,0,.35-1,1.11,1.11,0,0,0-.35-.9,1.47,1.47,0,0,0-1-.32H88ZM76.84,12.47l3.23-9.36h2.08l3.28,9.36H83.36l-.69-2.35H79.38l-.59,2.35Zm5.41-3.93-1-2.66a3.49,3.49,0,0,1-.11-.46c0-.22-.08-.48-.13-.8,0,.3-.1.57-.15.82a3.31,3.31,0,0,1-.1.48l-.92,2.62ZM72.11,7.09h.63a2.73,2.73,0,0,0,1.45-.26,1.08,1.08,0,0,0,.36-.92,1.2,1.2,0,0,0-.38-1,2.52,2.52,0,0,0-1.43-.29h-.63Zm5.59,5.38H75.24L72.11,8.09v4.38h-2V3.11h3.14a4,4,0,0,1,2.5.66,2.59,2.59,0,0,1,1,2,2.65,2.65,0,0,1-.53,1.65,2,2,0,0,1-1.36.8Zm-13.83,0V3.11h5V4.79H65.68V6.72h3.19v1.7H65.68v2.35h3.19v1.7Zm-8.95,0V3.11h2.32a8.81,8.81,0,0,1,2.16.21,3.61,3.61,0,0,1,1.38.7A3.85,3.85,0,0,1,62,5.62a5.76,5.76,0,0,1,.4,2.18A5.62,5.62,0,0,1,61.94,10a4,4,0,0,1-1.19,1.59,3.44,3.44,0,0,1-1.29.66,7.79,7.79,0,0,1-2.08.21H54.92Zm1.82-1.69h1a2.69,2.69,0,0,0,2.08-.72,3.33,3.33,0,0,0,.65-2.27,3.3,3.3,0,0,0-.65-2.26,2.69,2.69,0,0,0-2.08-.72h-1Zm-7.27,1.69V8.19L46.59,3.11h2.13L50,5.67c.06.13.12.29.19.48s.13.43.2.68c.06-.22.12-.42.19-.61a5.48,5.48,0,0,1,.23-.56L52,3.11h2.12L51.29,8.19v4.28Zm-10.95,0V3.11h1.81V6.86H44V3.11h1.81v9.36H44V8.55H40.33v3.92Z"></path><path class="cls-1" d="M103.1,24.7V19.76l-3.85-5.89h3.08l1.6,3a4.5,4.5,0,0,1,.25.56c.08.22.17.49.26.78a4.92,4.92,0,0,1,.23-.71,5.37,5.37,0,0,1,.29-.65l1.59-3h3.07L106,19.76V24.7Zm-9.78-6.22h.35a3,3,0,0,0,1.67-.3,1.21,1.21,0,0,0,.45-1.07A1.31,1.31,0,0,0,95.31,16a2.78,2.78,0,0,0-1.64-.33h-.35Zm6.42,6.22H96.52l-3.2-5.06V24.7H90.64V13.87H94.5a4.75,4.75,0,0,1,3,.77,2.73,2.73,0,0,1,1,2.3,2.85,2.85,0,0,1-.68,1.91c-.44.53-.66.83-1.37.92Zm-21.24,0,3.58-10.83h3.73L89.45,24.7h-3l-.88-2.3H82.28l-.75,2.3Zm6.89-4.12-1.21-3.5c0-.1-.08-.28-.13-.53s-.11-.56-.17-.93c-.07.35-.13.67-.18,1s-.11.46-.14.55l-1.17,3.46Zm-13.06-2.1h.35a3,3,0,0,0,1.67-.3,1.21,1.21,0,0,0,.45-1.07A1.31,1.31,0,0,0,74.32,16a2.78,2.78,0,0,0-1.64-.33h-.35Zm6.24,6.22h-3l-3.2-5.06V24.7H69.65V13.87H73a6.69,6.69,0,0,1,3.49.77,2.73,2.73,0,0,1,1,2.3,2.85,2.85,0,0,1-.68,1.91,2.62,2.62,0,0,1-1.73.92Zm-17.26,0V13.87h6.37V16H64v1.87h3.7V20.2H64v2.17h3.7V24.7Zm-4.22-8.5v8.5H54.23V16.2H51.58V13.87h8.16V16.2ZM47.3,24.7V13.87H50V24.7Zm-8.84,0V13.87h2.68l.54,8.86h3.7v2Z"></path><path class="cls-1" d="M103.31,36V26h2.13v8.17h4V36ZM90.7,36l3.8-10h2.44l3.85,10H98.36l-.81-2.12H93.69L93,36Zm6.35-3.8L95.94,29a3.49,3.49,0,0,1-.13-.49c0-.23-.1-.52-.15-.85-.06.32-.12.61-.17.87s-.1.42-.13.51l-1.07,3.18ZM84.39,36,80.7,26h2.36L85,32.21c0,.13.09.37.17.71s.16.74.24,1.18c.06-.42.13-.8.2-1.14s.14-.6.21-.82l2-6.15h2.33L86.4,36ZM76,36V26h2.14V36ZM70.26,27.8V36H68.12V27.8h-2.8V26h7.56V27.8ZM56.42,34.7l1.18-1.34a1.83,1.83,0,0,0,.73.87,2,2,0,0,0,1.11.31,1.87,1.87,0,0,0,1.19-.35,1.17,1.17,0,0,0,.44-.95c0-.48-.49-1-1.45-1.41l-.75-.37a5.62,5.62,0,0,1-1.81-1.33,2.48,2.48,0,0,1-.51-1.56,2.53,2.53,0,0,1,1-2,4,4,0,0,1,2.54-.79,3.63,3.63,0,0,1,1.57.32,3.26,3.26,0,0,1,1.16,1l-1.26,1.21a1.52,1.52,0,0,0-.6-.65,1.72,1.72,0,0,0-.9-.22,1.58,1.58,0,0,0-1,.32,1,1,0,0,0-.39.82c0,.53.52,1,1.54,1.44l.47.21a5.05,5.05,0,0,1,1.88,1.31,2.49,2.49,0,0,1,.61,1.66,2.82,2.82,0,0,1-1,2.24,3.73,3.73,0,0,1-2.57.83,4.51,4.51,0,0,1-2-.39A2.6,2.6,0,0,1,56.42,34.7ZM47.61,36V26h5.88v1.8H49.75v2.05h3.74v1.82H49.75v2.5h3.74V36Zm-9,0V26h5.87v1.8H40.75v2.05h3.74v1.82H40.75V36Z"></path></svg>