<svg xmlns="http://www.w3.org/2000/svg" xmlns:xlink="http://www.w3.org/1999/xlink" id="Layer_1" data-name="Layer 1" viewBox="0 0 167.32 39.44"><defs><style>.cls-1{fill:none;}.cls-1,.cls-4{stroke:#fff;stroke-miterlimit:10;}.cls-2,.cls-4{fill:#fff;}.cls-3{clip-path:url(#clip-path);}.cls-4{stroke-width:0.5px;}</style><clipPath id="clip-path"><path class="cls-1" d="M2,19.72A18.11,18.11,0,1,0,20.09,1.62h0A18.11,18.11,0,0,0,2,19.72"></path></clipPath></defs><path class="cls-2" d="M59.66,18a6.23,6.23,0,0,1-4.25,1.51c-4.07,0-6.87-2.76-6.87-7,0-3.93,2.59-7,6.71-7A6.26,6.26,0,0,1,59.4,6.81l-.51.8a5.69,5.69,0,0,0-3.62-1.08c-3.33,0-5.59,2.55-5.59,6,0,3.61,2.38,6,5.81,6a5.86,5.86,0,0,0,3.74-1.31Z"></path><path class="cls-2" d="M67.74,5.5a6.75,6.75,0,0,1,6.87,6.64,2.41,2.41,0,0,1,0,.38,6.88,6.88,0,1,1-13.76,0h0a6.79,6.79,0,0,1,6.56-7h.3m0,13a5.73,5.73,0,0,0,5.74-6,5.74,5.74,0,1,0-11.47,0,5.75,5.75,0,0,0,5.73,6"></path><polygon class="cls-2" points="88.24 19.37 78.86 7.59 78.86 19.37 77.84 19.37 77.84 5.67 78.71 5.67 88.08 17.5 88.08 5.67 89.1 5.67 89.1 19.37 88.24 19.37"></polygon><path class="cls-2" d="M92.68,8.93c0-1.93,1.47-3.43,4-3.43a5,5,0,0,1,3.71,1.36l-.58.81a4.1,4.1,0,0,0-3-1.18c-1.81,0-2.92,1-2.92,2.41,0,3.83,7.08,2.27,7.08,7,0,2.18-2,3.59-4.36,3.59-1.63,0-3.53-.74-4.21-2l.66-.75a4.54,4.54,0,0,0,3.54,1.7c1.68,0,3.27-.87,3.27-2.56,0-3.88-7.08-2.47-7.08-7"></path><path class="cls-2" d="M114.17,18a6.3,6.3,0,0,1-4.25,1.51c-4.08,0-6.88-2.76-6.88-7,0-3.93,2.63-7,6.72-7a6.26,6.26,0,0,1,4.15,1.31l-.51.8a5.71,5.71,0,0,0-3.62-1.08c-3.33,0-5.59,2.55-5.59,6,0,3.61,2.38,6,5.8,6a5.91,5.91,0,0,0,3.75-1.31Z"></path><rect class="cls-2" x="117.44" y="5.67" width="1.07" height="13.7"></rect><path class="cls-2" d="M129.09,5.5A6.75,6.75,0,0,1,136,12.14v.38a6.89,6.89,0,1,1-13.77,0h0a6.79,6.79,0,0,1,6.56-7h.31m0,13a5.73,5.73,0,0,0,5.74-6,5.8,5.8,0,0,0-5.74-6,5.74,5.74,0,0,0-5.72,6,5.76,5.76,0,0,0,5.74,6"></path><path class="cls-2" d="M149.74,13.64c0,4.19-2.43,5.9-5.19,5.9-3.19,0-5.56-2-5.56-6V5.67h1.08v7.64c0,3.32,1.78,5.2,4.48,5.2,2.41,0,4.11-1.6,4.11-5.1V5.67h1.08Z"></path><path class="cls-2" d="M153.12,8.93c0-1.93,1.47-3.43,4-3.43a5.08,5.08,0,0,1,3.69,1.36l-.59.81a4.1,4.1,0,0,0-3.06-1.18c-1.79,0-2.91,1-2.91,2.41,0,3.86,7.1,2.29,7.1,7,0,2.19-2,3.6-4.36,3.6-1.62,0-3.52-.74-4.21-2l.65-.74a4.61,4.61,0,0,0,3.54,1.7c1.69,0,3.28-.88,3.28-2.56,0-3.88-7.09-2.47-7.09-7"></path><polygon class="cls-2" points="50.19 23.42 51.01 23.42 51.01 33.03 56.49 33.03 56.49 33.81 50.19 33.81 50.19 23.42"></polygon><polygon class="cls-2" points="58.38 23.42 64.12 23.42 64.12 24.2 59.2 24.2 59.2 28.16 63.68 28.16 63.68 28.92 59.2 28.92 59.2 33.03 64.27 33.03 64.27 33.81 58.38 33.81 58.38 23.42"></polygon><path class="cls-2" d="M70.09,23.33h.66l4.52,10.49H74.4l-1.53-3.55h-5l-1.51,3.54h-.83Zm-1.84,6.18h4.31l-2.15-5.05Z"></path><path class="cls-2" d="M77.25,23.42h.16c.74,0,1.59,0,2.49,0,4.15,0,5.83,2.38,5.83,5.08,0,3-2,5.37-6,5.37H77.25Zm.81.78V33h1.75c3.33,0,5.06-2,5.06-4.59,0-2.39-1.54-4.31-5-4.31-.77,0-1.19,0-1.81.05"></path><polygon class="cls-2" points="88.17 23.42 93.91 23.42 93.91 24.2 88.99 24.2 88.99 28.16 93.47 28.16 93.47 28.92 88.99 28.92 88.99 33.03 94.06 33.03 94.06 33.81 88.17 33.81 88.17 23.42"></polygon><path class="cls-2" d="M96.7,33.81V23.42l2.49,0c2.83,0,3.64,1.41,3.64,3a3,3,0,0,1-2.47,2.89L104,33.81h-1l-3.46-4.36h-2v4.36Zm.81-9.61v4.47h1.8a2.47,2.47,0,0,0,2.62-2.28c0-1.26-.71-2.23-2.82-2.23-.31,0-1.14,0-1.63,0"></path><path class="cls-2" d="M105.48,25.87c0-1.46,1.11-2.62,3-2.62a3.81,3.81,0,0,1,2.79,1.05l-.45.61a3.11,3.11,0,0,0-2.31-.9c-1.36,0-2.21.73-2.21,1.83,0,2.91,5.37,1.72,5.37,5.33,0,1.65-1.47,2.72-3.31,2.72a3.82,3.82,0,0,1-3.19-1.49l.49-.57a3.47,3.47,0,0,0,2.69,1.31c1.27,0,2.45-.65,2.45-2,0-2.94-5.36-1.87-5.36-5.34"></path><polygon class="cls-2" points="121.45 28.9 114.97 28.9 114.97 33.81 114.16 33.81 114.16 23.42 114.97 23.42 114.97 28.12 121.45 28.12 121.45 23.42 122.26 23.42 122.26 33.81 121.45 33.81 121.45 28.9"></polygon><rect class="cls-2" x="125.91" y="23.42" width="0.82" height="10.38"></rect><path class="cls-2" d="M130.38,33.81V23.42l2.53,0c2.88,0,3.69,1.59,3.69,3.13s-1.11,3.18-3.69,3.18c-.49,0-1.12,0-1.72-.06v4.17Zm.83-9.61v4.65c.58,0,1.1.07,1.69.07,1.89,0,2.87-1,2.87-2.41s-.8-2.35-2.76-2.35c-.46,0-1.31,0-1.8,0"></path><path class="cls-2" d="M150.11,32.8a4.72,4.72,0,0,1-3.21,1.14,5,5,0,0,1-5.21-5.32,5,5,0,0,1,5.09-5.33,4.74,4.74,0,0,1,3.14,1l-.38.61a4.31,4.31,0,0,0-2.75-.82,4.23,4.23,0,0,0-4.24,4.56A4.29,4.29,0,0,0,147,33.2a4.46,4.46,0,0,0,2.84-1Z"></path><path class="cls-2" d="M156.24,23.29a5.33,5.33,0,1,1-5.14,5.14,5.33,5.33,0,0,1,5.14-5.14m0,9.88a4.34,4.34,0,0,0,4.36-4.31c0-.09,0-.19,0-.28a4.35,4.35,0,1,0-4.35,4.59"></path><path class="cls-2" d="M163.56,32.71a.54.54,0,0,1,.54.53.57.57,0,0,1-.53.59h0a.58.58,0,0,1-.59-.58h0a.56.56,0,0,1,.59-.53"></path><g class="cls-3"><rect class="cls-1" x="1.98" y="1.62" width="36.21" height="36.21"></rect></g><path class="cls-1" d="M2,19.72A18.11,18.11,0,1,0,20.09,1.62h0A18.11,18.11,0,0,0,2,19.72"></path><path class="cls-4" d="M24.38,20.2a4.75,4.75,0,0,1-4.75-4.75A2.49,2.49,0,0,1,22.12,13a.21.21,0,0,1,.22.23.22.22,0,0,1-.22.22h0a2,2,0,0,0-2,2h0a4.31,4.31,0,0,0,4.3,4.3h0a6.56,6.56,0,0,0,6.56-6.56h0A11.1,11.1,0,0,0,19.85,2.1,17.74,17.74,0,0,0,2.16,19.91V20a.23.23,0,0,1-.23.23A.22.22,0,0,1,1.7,20h0A18.2,18.2,0,0,1,19.76,1.62h.1A11.56,11.56,0,0,1,31.4,13.19a7,7,0,0,1-7,7"></path></svg>