<svg xmlns="http://www.w3.org/2000/svg" xmlns:xlink="http://www.w3.org/1999/xlink" id="Layer_1" x="0px" y="0px" viewBox="0 0 512 512" style="enable-background:new 0 0 512 512;" xml:space="preserve"><style type="text/css">	.st0{fill:#FFFFFF;}</style><g>	<path class="st0" d="M176,60c-5.5,0-10,4.5-10,10s4.5,10,10,10s10-4.5,10-10S181.5,60,176,60z"></path>	<path class="st0" d="M176,120c-5.5,0-10,4.5-10,10s4.5,10,10,10s10-4.5,10-10S181.5,120,176,120z"></path>	<path class="st0" d="M291.6,200l57,62.7c6.1,6.7,17.4,2.4,17.4-6.7v-56h50c5.5,0,10-4.5,10-10V10c0-5.5-4.5-10-10-10H116  c-5.5,0-10,4.5-10,10v180c0,5.5,4.5,10,10,10H291.6z M126,20h280v160h-50c-5.5,0-10,4.5-10,10v40.1l-42.6-46.9  c-1.9-2.1-4.6-3.3-7.4-3.3H126V20z"></path>	<path class="st0" d="M502,492h-10V376c0-10.7-5.6-20-14-25.4c8.7-9,14-21.2,14-34.6c0-27.6-22.4-50-50-50s-50,22.4-50,50  c0,15.3,6.9,29,17.7,38.2c-0.2,0.2-0.4,0.4-0.7,0.6L377.9,386h-37c-8.7-24.6-27.5-43.8-50.9-53.4c9.9-9.1,16-22.2,16-36.6  c0-27.6-22.4-50-50-50s-50,22.4-50,50c0,14.5,6.2,27.5,16,36.6c-23.4,9.5-42.2,28.7-50.9,53.4h-37l-31.2-31.2  c-0.2-0.2-0.4-0.4-0.7-0.6C113.1,345,120,331.3,120,316c0-27.6-22.4-50-50-50s-50,22.4-50,50c0,13.4,5.3,25.6,14,34.6  c-8.4,5.3-14,14.7-14,25.4v116H10c-5.5,0-10,4.5-10,10s4.5,10,10,10h492c5.5,0,10-4.5,10-10S507.5,492,502,492z M442,286  c16.5,0,30,13.5,30,30s-13.5,30-30,30s-30-13.5-30-30S425.5,286,442,286z M382,406c2.7,0,5.2-1.1,7.1-2.9l34.1-34.1  c1.9-1.9,4.4-2.9,7.1-2.9H462c5.5,0,10,4.5,10,10v116h-60v-51.9l17.1-17.1c3.9-3.9,3.9-10.2,0-14.1s-10.2-3.9-14.1,0L397.9,426  c-12.5,0-72,0-81.9,0c-5.5,0-10-4.5-10-10c0-5.5,4.5-10,10-10H382z M120,446h272v46H120V446z M226,296c0-16.5,13.5-30,30-30  s30,13.5,30,30s-13.5,30-30,30S226,312.5,226,296z M256,346c27.4,0,51.9,15.9,63.3,40H316c-16.5,0-30,13.5-30,30  c0,3.5,0.6,6.8,1.7,10h-63.4c1.1-3.2,1.7-6.5,1.7-10c0-16.5-13.5-30-30-30h-3.3C204.1,361.9,228.6,346,256,346z M70,286  c16.5,0,30,13.5,30,30s-13.5,30-30,30s-30-13.5-30-30S53.5,286,70,286z M40,376c0-5.5,4.5-10,10-10h31.7c2.6,0,5.2,1.1,7.1,2.9  l34.1,34.1c1.9,1.9,4.4,2.9,7.1,2.9h66c5.5,0,10,4.5,10,10c0,5.5-4.5,10-10,10c-10,0-69.5,0-81.9,0l-17.1-17.1  c-3.9-3.9-10.2-3.9-14.1,0s-3.9,10.2,0,14.1l17.1,17.1V492H40V376z"></path>	<path class="st0" d="M216,80h140c5.5,0,10-4.5,10-10s-4.5-10-10-10H216c-5.5,0-10,4.5-10,10S210.5,80,216,80z"></path>	<path class="st0" d="M366,130c0-5.5-4.5-10-10-10H216c-5.5,0-10,4.5-10,10s4.5,10,10,10h140C361.5,140,366,135.5,366,130z"></path></g></svg>