<svg xmlns="http://www.w3.org/2000/svg" xmlns:xlink="http://www.w3.org/1999/xlink" id="Layer_1" x="0px" y="0px" viewBox="0 0 512 512" style="enable-background:new 0 0 512 512;" xml:space="preserve"><style type="text/css">	.st0{fill:#FFFFFF;}</style><g>	<path class="st0" d="M476,164c0-46.4-37.6-84-84-84s-84,37.6-84,84s37.6,84,84,84C438.4,247.9,475.9,210.4,476,164z M392,216  c-28.7,0-52-23.3-52-52s23.3-52,52-52s52,23.3,52,52C444,192.7,420.7,216,392,216z"></path>	<path class="st0" d="M472,248H338.8l-94.7-38c-33.8-14.6-61.1,34.8-30.9,55.7l95.8,70.3H48V32h344v16c0,8.8,7.2,16,16,16  s16-7.2,16-16V32c8.8,0,16-7.2,16-16s-7.2-16-16-16H16C7.2,0,0,7.2,0,16s7.2,16,16,16v320c0,8.8,7.2,16,16,16h176v18.8  c-25,8.8-38.1,36.3-29.3,61.3c8.8,25,36.3,38.1,61.3,29.3s38.1-36.3,29.3-61.3c-4.8-13.7-15.6-24.4-29.3-29.3V368h80v128  c0,8.8,7.2,16,16,16h112c8.8,0,16-7.2,16-16v-80h8c22.1,0,40-17.9,40-40v-88C512,265.9,494.1,248,472,248z M224,448  c-8.8,0-16-7.2-16-16s7.2-16,16-16s16,7.2,16,16C240,440.8,232.8,448,224,448z M480,376c0,4.4-3.6,8-8,8h-71.9l54.6-25.5  c8-3.7,11.5-13.3,7.7-21.3s-13.3-11.5-21.3-7.7l0,0l-64.5,30.1c-14.8,6.9-21.2,24.5-14.3,39.3c4.9,10.4,15.3,17.1,26.8,17.1H432v64  h-80V336c0-5.1-2.4-9.9-6.5-12.9l-113.3-83.4l97.5,39.1c1.9,0.8,3.9,1.1,6,1.1H472c4.4,0,8,3.6,8,8V376z"></path>	<circle class="st0" cx="96" cy="288" r="16"></circle>	<path class="st0" d="M192,168c0-8.8-7.2-16-16-16H96c-8.8,0-16,7.2-16,16s7.2,16,16,16h80C184.8,184,192,176.8,192,168z"></path>	<path class="st0" d="M272,104c0-8.8-7.2-16-16-16H96c-8.8,0-16,7.2-16,16s7.2,16,16,16h160C264.8,120,272,112.8,272,104z"></path></g></svg>