<svg xmlns:svg="http://www.w3.org/2000/svg" xmlns="http://www.w3.org/2000/svg" xmlns:xlink="http://www.w3.org/1999/xlink" id="svg1710" x="0px" y="0px" viewBox="0 0 682.7 682.7" style="enable-background:new 0 0 682.7 682.7;" xml:space="preserve"><style type="text/css">	.st0{clip-path:url(#SVGID_2_);}	.st1{fill:#FFFFFF;}</style><g id="g1716" transform="matrix(1.3333333,0,0,-1.3333333,0,682.66667)">	<g id="g1718">		<g>			<g>				<defs>					<rect id="SVGID_1_" x="-164.3" y="-164.3" width="840.6" height="840.6"></rect>				</defs>				<clipPath id="SVGID_2_">					<use xlink:href="#SVGID_1_" style="overflow:visible;"></use>				</clipPath>				<g id="g1720" class="st0">					<g id="g1726" transform="translate(235.6162,250.5986)">						<path class="st1" d="M-7.3-26.7c-7.2,0-14.4,1.9-21,5.7c-13.1,7.5-21.2,21.6-21.2,36.7v92c0,15.1,8.1,29.2,21.2,36.7       c13.2,7.6,29,7.6,42.2-0.1l79.3-46c13.2-7.7,21.1-21.4,21.1-36.6c0-15.3-7.9-28.9-21-36.6l-79.4-46C7.3-24.8,0-26.7-7.3-26.7z        M-0.3,95.6V27.8l58.5,33.9L-0.3,95.6z M-10.8,101.7C-10.8,101.7-10.8,101.7-10.8,101.7L-10.8,101.7z"></path>					</g>					<g id="g1730" transform="translate(492,202)">						<path class="st1" d="M-73.5-76h-325.1c-44.1,0-80,35.9-80,80v212.4c0,44.1,35.9,80,80,80h325.1c44.1,0,80-35.9,80-80V97.3       c0-13.6-11-24.6-24.6-24.6s-24.6,11-24.6,24.6v119.1c0,17-13.8,30.8-30.8,30.8h-325.1c-17,0-30.8-13.8-30.8-30.8V4.1       c0-17,13.8-30.8,30.8-30.8h325.1c17,0,30.8,13.8,30.8,30.8c0,13.6,11,24.6,24.6,24.6S6.5,17.7,6.5,4.1       C6.5-40.1-29.4-76-73.5-76z"></path>					</g>					<g id="g1734" transform="translate(135,41)">						<path class="st1" d="M9.2-8.2H-97c-13.6,0-24.6,11-24.6,24.6S-110.6,41-97,41H9.2c13.6,0,24.6-11,24.6-24.6S22.8-8.2,9.2-8.2z       "></path>					</g>					<g id="g1738" transform="translate(492,41)">						<path class="st1" d="M-18.1-8.2h-237.3c-13.6,0-24.6,11-24.6,24.6S-269,41-255.4,41h237.3C-4.5,41,6.5,30,6.5,16.4       S-4.5-8.2-18.1-8.2z"></path>					</g>					<g id="g1742" transform="translate(95,40)">						<path id="path1744_1_" class="st1" d="M12.3,16.5c0,20.4,16.5,36.9,36.9,36.9s36.9-16.5,36.9-36.9S69.6-20.5,49.2-20.5       S12.3-3.9,12.3,16.5"></path>					</g>				</g>			</g>			<g>			</g>		</g>	</g></g></svg>