<svg id="Layer_1" data-name="Layer 1" xmlns="http://www.w3.org/2000/svg" viewBox="0 0 49.07 49.07"><defs><style>.cls-1{fill:#1e5a9c;}.cls-2{fill:#fff;}</style></defs><rect class="cls-1" width="49.07" height="49.07" rx="5.75"/><path class="cls-2" d="M29.82,17.55c2.78.1,3.39,1.95,4.94,1.95a2.25,2.25,0,0,0,.93-.24A5.5,5.5,0,0,0,37.1,18.2s-3-2.92-3.12-5.62c-.09-1.64-.07-3.73-1.22-5.53a1.48,1.48,0,0,1-.22-.71c0-1.18,1.2-3.84.53-4.4-1.2-1-3.18,2.68-4.34,2.29S27.3,0,26,0s-1.15,3.9-2.19,4.34l-.1,0c-1.4.37-3.49-2.73-4.69-1.8-.87.67,1.08,4.12.27,4.94S15.37,7,15,8.34s3,3,2.88,3.74v0c-.16.76-4,1-4,2.44s3.78,1.42,4,2.44h0c.19,1-3.17,2.44-2.5,3.63s3.43-.05,4.34,1.57h0a19.57,19.57,0,0,0-6.53,10.52,21.4,21.4,0,0,1,4.27-.83c.55-1.55,1.86-4.64,4.65-6.3.42.47,1,1.12,1.48,1.61.06.06.13.12.19.19a18.15,18.15,0,0,0-3.22,4.39,12.08,12.08,0,0,1,3.61.6,15.4,15.4,0,0,1,2.08-2.3c.51.6,1,1.19,1.39,1.77a5.51,5.51,0,0,0-1,1.61s4.48,2.51,3.75,7.29A9.07,9.07,0,0,1,29,43.81c-2.72,3.88-7.88,3.39-9.5.69-1.48-2.46-1-5.06,1.82-6.34,3.33-1.49,5.53,2.22,3.28,3.32a1.37,1.37,0,0,1-2.18-1.19s-1.61.38-.87,2.35c.61,1.64,3.51,2.56,5.49-.23,1.7-2.39-.11-6.06-3.17-6.72-3.56-.78-9.47,2.66-6.77,9.66.93,2.38,5.05,5,10.32,3,5.68-2.16,8.18-7.26,7.38-13.06-.68-4.95-4.56-10.49-7.8-14.56-2.29-2.86-2.17-4.68-2.17-5.38C24.86,15.36,25.53,17.4,29.82,17.55Z"/></svg>