<svg xmlns="http://www.w3.org/2000/svg" xmlns:xlink="http://www.w3.org/1999/xlink" id="Capa_1" x="0px" y="0px" viewBox="0 0 512 512" style="enable-background:new 0 0 512 512;" xml:space="preserve"><style type="text/css">	.st0{fill:#FFFFFF;}</style><g>	<g>		<g>			<path class="st0" d="M474.4,46.1H231v15h243.5c12.4,0,22.5,10.1,22.5,22.5v222.9H229.4v-221L191.9,23l-37.6,62.6v221h-25V0H44.1    v306.6H15V83.7c0-9.3,5.8-17.7,14.4-21l-5.4-14C9.7,54.1,0,68.2,0,83.7v280.5c0,20.7,16.9,37.6,37.6,37.6h140.8v55.1h-22.5    c-15.2,0-27.6,12.4-27.6,27.6V512h255.5v-27.6c0-15.2-12.4-27.6-27.6-27.6h-22.5v-55.1h140.8c20.7,0,37.6-16.9,37.6-37.6V83.7    C512,62.9,495.1,46.1,474.4,46.1z M191.9,52.2l19.7,32.9l-19.7,11.8l-19.7-11.8L191.9,52.2z M169.3,100.9l22.5,13.5l22.5-13.5    v165.6h-45.1L169.3,100.9L169.3,100.9z M169.3,281.5h45.1v25h-45.1V281.5z M59.1,288.6h36.6v-15H59.1v-15h20.5v-15H59.1v-15h36.6    v-15H59.1v-15h20.5v-15H59.1v-15h36.6v-15H59.1v-15h20.5v-15H59.1v-15h36.6v-15H59.1v-15h20.5v-15H59.1v-15h36.6v-15H59.1V15    h55.1v291.6H59.1V288.6z M356.2,471.9c6.9,0,12.5,5.6,12.5,12.5V497H143.3v-12.5c0-6.9,5.6-12.5,12.5-12.5H356.2z M193.4,456.9    v-55.1h125.2v55.1H193.4z M497,364.2c0,12.4-10.1,22.5-22.5,22.5H37.6c-12.4,0-22.5-10.1-22.5-22.5v-42.6H497L497,364.2    L497,364.2z"></path>		</g>	</g>	<g>		<g>			<path class="st0" d="M306.6,76.1v85.2h175.3V76.1H306.6z M466.9,146.3H321.6V91.2h145.3V146.3z"></path>		</g>	</g>	<g>		<g>			<path class="st0" d="M306.6,176.3v55.1h80.2v-55.1H306.6z M371.7,216.4h-50.1v-25h50.1V216.4z"></path>		</g>	</g>	<g>		<g>			<path class="st0" d="M401.8,176.3v55.1h80.2v-55.1H401.8z M466.9,216.4h-50.1v-25h50.1V216.4z"></path>		</g>	</g>	<g>		<g>			<polygon class="st0" points="290.1,91.2 290.1,76.1 245,76.1 245,91.2 260,91.2 260,276.5 245,276.5 245,291.6 290.1,291.6     290.1,276.5 275,276.5 275,91.2    "></polygon>		</g>	</g>	<g>		<g>			<rect x="248.5" y="346.7" class="st0" width="15" height="15"></rect>		</g>	</g>	<g>		<g>			<rect x="278.5" y="346.7" class="st0" width="15" height="15"></rect>		</g>	</g>	<g>		<g>			<rect x="218.4" y="346.7" class="st0" width="15" height="15"></rect>		</g>	</g>	<g>		<g>			<rect x="184.4" y="195.9" class="st0" width="15" height="15"></rect>		</g>	</g>	<g>		<g>			<rect x="184.4" y="225.9" class="st0" width="15" height="25"></rect>		</g>	</g>	<g>		<g>			<rect x="184.4" y="130.8" class="st0" width="15" height="50.1"></rect>		</g>	</g>	<g>		<g>			<rect x="364.2" y="251.5" class="st0" width="15" height="15"></rect>		</g>	</g>	<g>		<g>			<rect x="314.1" y="251.5" class="st0" width="35.1" height="15"></rect>		</g>	</g>	<g>		<g>			<rect x="409.3" y="251.5" class="st0" width="35.1" height="15"></rect>		</g>	</g>	<g>		<g>			<rect x="459.4" y="251.5" class="st0" width="15" height="15"></rect>		</g>	</g></g></svg>