<svg xmlns="http://www.w3.org/2000/svg" id="Layer_1" data-name="Layer 1" viewBox="0 0 159.6 59.04"><defs><style>.cls-1{fill:#fff;}</style></defs><path class="cls-1" d="M3.7,23.76A3.24,3.24,0,0,0,3.86,23a3.38,3.38,0,0,1,3.22-3,6.87,6.87,0,0,1,3,.28.29.29,0,0,1,.24.38c-.06.39-.11.78-.14,1.17s-.08.36-.38.25a5.28,5.28,0,0,0-2.27-.27A1.53,1.53,0,0,0,6,23.15a8.58,8.58,0,0,0,0,3.46A1.46,1.46,0,0,0,7.54,28c1.13.07,1.13.07,1.13-1,0-.71,0-1.42,0-2.13,0-.24.08-.31.3-.3.43,0,.86,0,1.28,0,.17,0,.23.06.23.23v4.44a.24.24,0,0,1-.18.26,6.41,6.41,0,0,1-4.36.13,3.26,3.26,0,0,1-2.09-2.77,2.29,2.29,0,0,0-.14-.68Z"></path><path class="cls-1" d="M149.83,57.11c0-.07-.1-.06-.16-.07a1.88,1.88,0,0,1-1.7-1.91c-.09-1.47,0-2.94,0-4.41,0-.18,0-.26.24-.24h0c.38,0,.87-.12,1.1.07s.07.71.08,1.08c0,1.08,0,2.16,0,3.23a.91.91,0,0,0,1.19,1,.78.78,0,0,0,.67-.76c0-.43,0-.87,0-1.31,0-1,0-1.92,0-2.88,0-.35.1-.45.44-.41a4.21,4.21,0,0,0,.71,0c.23,0,.27.07.27.28,0,1.42,0,2.85,0,4.27A1.89,1.89,0,0,1,151,57c-.06,0-.12,0-.15.08Z"></path><path class="cls-1" d="M133.38,57.11c-.34-.15-.72-.18-1.06-.36-.16-.08-.23-.16-.18-.35a4.2,4.2,0,0,0,.11-.71c0-.2.08-.23.26-.13a2.69,2.69,0,0,0,1.36.36c.46,0,.72-.18.82-.54s0-.63-.45-.86-.69-.33-1-.5a1.87,1.87,0,0,1-1-2.46,1.94,1.94,0,0,1,2-1.19,3.55,3.55,0,0,1,1.36.24c.14,0,.22.12.17.28s0,0,0,.07c-.05.28-.09.56-.14.84l-.77-.2a1.65,1.65,0,0,0-.91,0,.57.57,0,0,0-.19,1,1.94,1.94,0,0,0,.58.33,6.58,6.58,0,0,1,.92.46,1.94,1.94,0,0,1,.81,2.18A1.83,1.83,0,0,1,134.5,57c-.07,0-.15,0-.19.07Z"></path><path class="cls-1" d="M123.26,19.39A17.07,17.07,0,0,1,136.65,2.6a15.66,15.66,0,0,1,3.42-.39c.23,0,.31.06.29.29s.11.78-.06,1-.64.1-1,.12a15.69,15.69,0,0,0-14.41,12.7,15.29,15.29,0,0,0,4.42,14.14,14.91,14.91,0,0,0,9.18,4.4,15.32,15.32,0,0,0,12.86-4.42A15.12,15.12,0,0,0,156,21.06a14.71,14.71,0,0,0,.11-1.49c0-.27.1-.32.33-.3a3,3,0,0,0,.67,0c.34-.05.39.1.38.4a16.74,16.74,0,0,1-3.63,10.11,16.73,16.73,0,0,1-11,6.4,17.08,17.08,0,0,1-19.2-13.34c-.11-.52-.2-1.05-.27-1.58A12.43,12.43,0,0,1,123.26,19.39Z"></path><path class="cls-1" d="M126,19.52A14.42,14.42,0,0,1,137.66,5.18a19.56,19.56,0,0,1,2.4-.26c.23,0,.32,0,.3.29a6,6,0,0,0,0,.85c0,.23-.06.28-.27.28a12.2,12.2,0,0,0-5.28,1.25,12.57,12.57,0,0,0-7.26,9.8,13,13,0,0,0,25.53,4.33,12.33,12.33,0,0,0,.23-2.19c0-.19,0-.28.25-.26.38,0,.92-.16,1.08.08s0,.78,0,1.18a14.36,14.36,0,0,1-28.39,1.53A15.09,15.09,0,0,1,126,19.52Z"></path><path class="cls-1" d="M128.75,19.36A11.63,11.63,0,0,1,140.1,7.69c.21,0,.27.06.26.26a3.24,3.24,0,0,1,0,1c-.16.37-.58.14-.88.17a10.2,10.2,0,1,0,10.9,12.15,7.13,7.13,0,0,0,.18-1.72c0-.2.06-.28.26-.27a6.61,6.61,0,0,0,.89,0c.25,0,.27.1.26.3a11.3,11.3,0,0,1-6.09,9.9,11.6,11.6,0,0,1-16.94-8.09A9,9,0,0,1,128.75,19.36Z"></path><path class="cls-1" d="M107.89,23.88c-.66,1.85-1.29,3.61-1.9,5.37-.11.31-.24.44-.59.43-.94,0-.94,0-1.25-.9-.56-1.58-1.12-3.16-1.73-4.73v.57c0,1.58,0,3.15,0,4.73,0,.27-.08.34-.34.33a11.42,11.42,0,0,0-1.17,0c-.2,0-.27,0-.27-.25v-9c0-.24.09-.27.29-.26.55,0,1.09,0,1.64,0,.25,0,.34.09.42.31.68,2,1.38,3.92,2.07,5.89l.09.19c.1,0,.1-.12.12-.2.7-2,1.4-3.91,2.09-5.88.08-.22.16-.32.42-.31.56,0,1.11,0,1.67,0,.2,0,.27.05.27.25q0,4.52,0,9c0,.2-.06.27-.27.26-.42,0-.85,0-1.28,0-.23,0-.3-.07-.29-.3,0-1.77,0-3.53,0-5.3C107.9,24.05,107.9,24,107.89,23.88Z"></path><path class="cls-1" d="M131.47,19.34a8.9,8.9,0,0,1,7.87-8.86c.26,0,.52,0,.78-.06s.25.06.24.24,0,.62,0,.92-.07.23-.24.24a7.47,7.47,0,1,0,7.62,8.69,6.62,6.62,0,0,0,.09-1c0-.18,0-.26.24-.25s.64,0,1,0c.16,0,.2.06.19.21a8.87,8.87,0,0,1-17.59,1.43A10.07,10.07,0,0,1,131.47,19.34Z"></path><path class="cls-1" d="M145,8.43a6.24,6.24,0,1,1,6.21,6.24A6.24,6.24,0,0,1,145,8.43Zm6.24,4.83a4.82,4.82,0,1,0-4.83-4.8A4.83,4.83,0,0,0,151.21,13.26Z"></path><path class="cls-1" d="M11.52,24.87a10.71,10.71,0,0,1,.22-2.19A3.08,3.08,0,0,1,14.81,20a6.45,6.45,0,0,1,1.7.08,2.89,2.89,0,0,1,2.4,2.29,10.24,10.24,0,0,1,0,5.1,2.87,2.87,0,0,1-2.47,2.29,6,6,0,0,1-2.36-.05,3,3,0,0,1-2.26-2.28A9.59,9.59,0,0,1,11.52,24.87Zm2.13,0a9.75,9.75,0,0,0,.08,1.52,1.82,1.82,0,0,0,.61,1.31,1.67,1.67,0,0,0,2.59-1,10,10,0,0,0,0-3.5c-.15-1-.51-1.54-1.95-1.39A1.22,1.22,0,0,0,13.81,23,8.13,8.13,0,0,0,13.65,24.9Z"></path><path class="cls-1" d="M74,25.86c0-1.83,0-3.57,0-5.31,0-.37.11-.45.45-.43a10.11,10.11,0,0,0,1.1,0c.19,0,.24.06.24.24v9.06c0,.19-.06.26-.24.24h0c-1.15,0-1.15,0-1.77-.94-1-1.61-2-3.23-3-4.84,0-.05,0-.13-.16-.15v.84c0,1.58,0,3.17,0,4.76,0,.26,0,.36-.33.34a7.23,7.23,0,0,0-1.14,0c-.26,0-.34-.06-.33-.33,0-1.25,0-2.49,0-3.73,0-1.7,0-3.39,0-5.08,0-.36.1-.45.44-.42a5.46,5.46,0,0,0,1,0,.48.48,0,0,1,.5.29l3.13,5.12C73.85,25.62,73.91,25.7,74,25.86Z"></path><path class="cls-1" d="M91.35,29.67c-.76,0-1.46,0-2.15,0-.2,0-.23-.12-.29-.25-.42-1-.85-2-1.26-3.05a.43.43,0,0,0-.49-.33c-.81,0-.81,0-.81.81s0,1.68,0,2.52c0,.23,0,.32-.29.31-.46,0-.93,0-1.39,0-.26,0-.34-.06-.34-.33,0-1.17,0-2.35,0-3.52,0-1.78,0-3.55,0-5.33,0-.28,0-.39.36-.38,1.23.05,2.47-.07,3.7.08a2.4,2.4,0,0,1,2.38,2.4,3.77,3.77,0,0,1-.23,1.91,1.71,1.71,0,0,1-.93,1c-.24.1-.22.2-.12.4.56,1.1,1.11,2.22,1.66,3.33C91.21,29.37,91.26,29.49,91.35,29.67Zm-5-6.49c0,.34,0,.69,0,1,0,.18,0,.26.24.25.37,0,.74,0,1.1,0,.6,0,.87-.24,1-.75a2.91,2.91,0,0,0,0-1.06.82.82,0,0,0-.79-.73,11,11,0,0,0-1.28,0c-.18,0-.25.06-.25.24C86.35,22.47,86.35,22.82,86.35,23.18Z"></path><path class="cls-1" d="M34.22,24.91c0-1.49,0-3,0-4.45,0-.25,0-.35.33-.34a10.14,10.14,0,0,0,1.35,0c.3,0,.34.1.34.36,0,1,0,2,0,3,0,.27.05.37.34.36.76,0,1.52,0,2.28,0,.24,0,.32-.06.32-.31,0-1,0-2.06,0-3.09,0-.27.07-.35.33-.34a10.14,10.14,0,0,0,1.35,0c.29,0,.36.09.35.36,0,2.81,0,5.61,0,8.42,0,.18,0,.36,0,.53s-.07.25-.25.24c-.5,0-1,0-1.49,0-.25,0-.29-.1-.29-.31,0-1.11,0-2.21,0-3.31,0-.27-.08-.33-.34-.33-.76,0-1.52,0-2.27,0-.28,0-.33.08-.33.34,0,1.1,0,2.2,0,3.3,0,.23,0,.32-.29.31-.46,0-.93,0-1.39,0-.26,0-.34-.06-.34-.33C34.23,27.87,34.22,26.39,34.22,24.91Z"></path><path class="cls-1" d="M99.15,23.61c0,1,0,1.92,0,2.88a4.62,4.62,0,0,1-.1,1,2.69,2.69,0,0,1-2.33,2.26,5.52,5.52,0,0,1-2.46-.07,2.69,2.69,0,0,1-2.09-2.38,8,8,0,0,1-.06-1c0-1.94,0-3.88,0-5.82,0-.29.08-.37.36-.36a12.71,12.71,0,0,0,1.38,0c.25,0,.32.07.32.32,0,2,0,4,0,5.93a3,3,0,0,0,0,.43,1.12,1.12,0,0,0,1,1.11,2.23,2.23,0,0,0,.89,0c.76-.13,1.08-.57,1.08-1.54,0-1.94,0-3.88,0-5.82,0-.36.08-.48.44-.45a7.45,7.45,0,0,0,1.25,0c.26,0,.34.06.33.33C99.14,21.51,99.15,22.56,99.15,23.61Z"></path><path class="cls-1" d="M42.8,24.9c0-1.48,0-3,0-4.45,0-.27.07-.33.33-.33,1.7,0,3.4,0,5.09,0,.26,0,.32.08.31.32,0,.42,0,.83,0,1.25,0,.23,0,.3-.29.29-1,0-2.09,0-3.13,0-.25,0-.32.08-.31.32q0,.66,0,1.32c0,.26.09.31.33.3.81,0,1.63,0,2.45,0,.31,0,.38.1.36.38s0,.69,0,1-.06.31-.29.3H45.14c-.24,0-.33,0-.32.31,0,.56,0,1.11,0,1.67,0,.24.08.3.3.29,1.11,0,2.21,0,3.31,0,.25,0,.34.07.32.32,0,.41,0,.82,0,1.24,0,.2-.07.26-.27.25H45.84c-.91,0-1.81,0-2.71,0-.27,0-.34-.08-.33-.34C42.81,27.86,42.8,26.38,42.8,24.9Z"></path><path class="cls-1" d="M20.15,24.9c0-1.48,0-3,0-4.44,0-.27.07-.34.34-.34,1.69,0,3.39,0,5.08,0,.26,0,.33.07.32.32s0,.81,0,1.21,0,.34-.31.34c-1,0-2.07,0-3.1,0-.24,0-.33.05-.32.31,0,.45,0,.9,0,1.35,0,.22.06.29.28.28.84,0,1.68,0,2.53,0,.27,0,.35.08.33.34a8.85,8.85,0,0,0,0,1c0,.26,0,.35-.33.34-.82,0-1.63,0-2.45,0-.27,0-.38,0-.36.34,0,.55,0,1.09,0,1.64,0,.24.08.3.31.29,1.07,0,2.15,0,3.23,0,.33,0,.41.1.38.4a9.39,9.39,0,0,0,0,1.06c0,.28-.06.36-.35.36-1.55,0-3.1,0-4.65,0-.29,0-.66.09-.83-.05s-.07-.56-.07-.85C20.14,27.48,20.15,26.19,20.15,24.9Z"></path><path class="cls-1" d="M61.64,24.9c0-1.48,0-3,0-4.44,0-.26,0-.34.33-.34,1.68,0,3.36,0,5.05,0,.26,0,.35.05.34.33a5.7,5.7,0,0,0,0,1.17c0,.33-.09.37-.37.37-1,0-2,0-3,0-.31,0-.38.09-.37.38s0,.83,0,1.24c0,.25,0,.33.31.33.83,0,1.66,0,2.49,0,.26,0,.36.07.34.34a8.08,8.08,0,0,0,0,1.1c0,.23-.08.27-.29.27H63.93c-.24,0-.3.07-.29.3,0,.55,0,1.09,0,1.64,0,.26.07.34.34.34,1.09,0,2.18,0,3.27,0,.24,0,.34.06.32.31,0,.42,0,.83,0,1.25,0,.17,0,.25-.24.25H61.86c-.25,0-.23-.14-.23-.3C61.64,27.89,61.64,26.4,61.64,24.9Z"></path><path class="cls-1" d="M140.32,25.42A6.14,6.14,0,0,1,140,13.15c.28,0,.35.06.33.33s.1.7,0,.94-.58.12-.88.19a4.75,4.75,0,1,0,5.62,5.26c.06-.59.06-.59.67-.59.81,0,.81,0,.69.79a6.09,6.09,0,0,1-5.22,5.29A8.67,8.67,0,0,1,140.32,25.42Z"></path><path class="cls-1" d="M58,22c-1.18,0-2.29,0-3.41,0-.32,0-.44-.07-.4-.41s.05-.85.06-1.27c0-.17.05-.22.22-.22h5.69c.17,0,.23,0,.23.22q0,.58,0,1.17a.85.85,0,0,1-.2.44l-3.5,5.61c0,.07-.11.12-.09.25h2.94c.85,0,.85,0,.84.83,0,.27,0,.53,0,.79s-.08.23-.25.23H54.33c-.21,0-.28-.07-.25-.26v0a2.83,2.83,0,0,1,.51-2c1.12-1.7,2.17-3.44,3.25-5.17Z"></path><path class="cls-1" d="M81.08,25.86c0,1.16,0,2.32,0,3.49,0,.27-.08.34-.34.33a12.89,12.89,0,0,0-1.39,0c-.27,0-.33-.08-.33-.34,0-2.3,0-4.6,0-6.9,0-.35-.09-.44-.43-.43-.55,0-1.1,0-1.64,0-.18,0-.25,0-.24-.24a9,9,0,0,0,0-1.27c0-.36.14-.39.43-.39,1.64,0,3.27,0,4.91,0h1c.15,0,.22,0,.22.19,0,.49,0,1,0,1.45,0,.23-.09.26-.28.25-.58,0-1.16,0-1.74,0-.26,0-.32.08-.32.32C81.09,23.51,81.08,24.69,81.08,25.86Z"></path><path class="cls-1" d="M28.9,25.83c0-1.16,0-2.32,0-3.48,0-.27-.07-.34-.34-.33-.57,0-1.13,0-1.7,0-.2,0-.28-.05-.27-.25,0-.47,0-.93,0-1.39,0-.2.09-.25.28-.25H33c.21,0,.29.05.29.27,0,.45,0,.9,0,1.35,0,.23-.08.28-.29.28-.55,0-1.11,0-1.67,0-.28,0-.35.08-.35.36,0,2.27,0,4.55,0,6.82,0,.55.07.47-.5.48-.39,0-.78,0-1.17,0s-.39-.06-.38-.37C28.91,28.15,28.9,27,28.9,25.83Z"></path><path class="cls-1" d="M22,35.49a6.63,6.63,0,0,1-.23,1.93A2.1,2.1,0,0,1,20,39a4.48,4.48,0,0,1-1.55,0,2.18,2.18,0,0,1-1.86-1.77,7.6,7.6,0,0,1,0-3.42,2.2,2.2,0,0,1,2.13-1.94,4.15,4.15,0,0,1,1.45.07,2.31,2.31,0,0,1,1.78,2.18A8.75,8.75,0,0,1,22,35.49Zm-1.54,0a6.16,6.16,0,0,0-.17-1.54c-.17-.52-.43-.68-1.06-.68s-1,.16-1.11.66a6.1,6.1,0,0,0,0,3.09c.13.53.46.7,1.13.69s.87-.18,1-.7A6,6,0,0,0,20.46,35.48Z"></path><path class="cls-1" d="M58.73,35.51a6.77,6.77,0,0,1-.22,1.9A2.11,2.11,0,0,1,56.78,39a4.41,4.41,0,0,1-1.62,0,2.17,2.17,0,0,1-1.84-1.74,7.52,7.52,0,0,1,0-3.59,2.14,2.14,0,0,1,1.94-1.76,4.25,4.25,0,0,1,1.59,0,2.32,2.32,0,0,1,1.8,2.2A10.19,10.19,0,0,1,58.73,35.51Zm-1.54-.06c0-.33,0-.68-.06-1A2.42,2.42,0,0,0,57,34c-.17-.52-.43-.7-1.05-.7s-1,.15-1.14.67a6.34,6.34,0,0,0,0,3.09c.13.52.46.69,1.1.68s.89-.17,1.06-.68A5.82,5.82,0,0,0,57.19,35.45Z"></path><path class="cls-1" d="M10,35.36a6.3,6.3,0,0,1,.15-1.5,2.25,2.25,0,0,1,2.25-2,6,6,0,0,1,.85,0,2.26,2.26,0,0,1,2.23,2.06,8.18,8.18,0,0,1,0,3c-.32,1.82-1.44,2.15-2.84,2.14A3.66,3.66,0,0,1,12,39a2.08,2.08,0,0,1-1.63-1.43A6.45,6.45,0,0,1,10,35.36Zm1.56.1A4.76,4.76,0,0,0,11.75,37c.17.52.48.71,1.17.69s.9-.21,1-.73a6.71,6.71,0,0,0,0-3c-.13-.53-.43-.72-1-.72s-1,.15-1.17.69A5.1,5.1,0,0,0,11.59,35.46Z"></path><path class="cls-1" d="M63.56,36.06c0-1.26,0-2.51,0-3.77,0-.22,0-.33.29-.3s.76-.14,1,.08.06.6.06.92c0,1.86,0,3.72,0,5.58,0,.29,0,.39-.38.41a1,1,0,0,1-1.06-.59C62.71,37.2,62,36,61.21,34.87c0-.07-.1-.14-.17-.24,0,1.34,0,2.64,0,3.94,0,.34-.11.44-.42.4s-.67.12-.86-.07-.05-.56-.05-.85c0-1.91,0-3.81,0-5.72,0-.25,0-.32.32-.35a1.3,1.3,0,0,1,1.48.8c.6,1.13,1.32,2.2,2,3.3Z"></path><path class="cls-1" d="M94.52,34.58c0,1.43,0,2.74,0,4.06,0,.26-.07.36-.34.33s-.69.12-.89-.06-.07-.58-.07-.88c0-1.9,0-3.79,0-5.69,0-.28.08-.33.35-.36a1.25,1.25,0,0,1,1.42.78c.56,1.06,1.24,2.06,1.87,3.09l.17.27a1.79,1.79,0,0,0,0-.65c0-1.07,0-2.13,0-3.2,0-.21.06-.3.28-.28s.75-.13,1,.06.07.63.07,1c0,1.87,0,3.75,0,5.62,0,.28-.09.33-.36.36a1,1,0,0,1-1.09-.6c-.71-1.21-1.49-2.39-2.24-3.58Z"></path><path class="cls-1" d="M104.8,35.46c0-1.05,0-2.1,0-3.16,0-.25.08-.32.32-.31.75,0,1.5,0,2.25,0a3,3,0,0,1,.73.09,1.68,1.68,0,0,1,1.39,1.51,2.7,2.7,0,0,1-.26,1.83.83.83,0,0,1-.36.38c-.36.16-.34.35-.17.67.4.73.75,1.48,1.12,2.22.1.19.12.29-.16.28a11.41,11.41,0,0,0-1.17,0,.32.32,0,0,1-.36-.25c-.3-.73-.61-1.44-.9-2.17-.17-.43-.52-.21-.79-.22s-.14.25-.15.39c0,.64,0,1.28,0,1.92,0,.28-.08.35-.34.33a6,6,0,0,0-.85,0c-.25,0-.3-.09-.3-.31C104.8,37.6,104.8,36.53,104.8,35.46Zm1.48-1.25v.71c0,.11,0,.22.16.21.33,0,.66,0,1,0a.48.48,0,0,0,.46-.33,1.68,1.68,0,0,0,0-1.15.44.44,0,0,0-.3-.28,2,2,0,0,0-1.22,0c-.24.09-.05.54-.09.82C106.27,34.16,106.28,34.19,106.28,34.21Z"></path><path class="cls-1" d="M87.64,39H86.1c-.2,0-.22-.14-.27-.27-.3-.72-.6-1.44-.91-2.16a.89.89,0,0,0-.89-.2c-.08.08,0,.18,0,.28,0,.68,0,1.37,0,2.05,0,.24-.07.32-.3.3s-.89.16-1.13-.09-.06-.72-.06-1.09c0-1.81,0-3.63,0-5.44,0-.3.1-.37.38-.36.8,0,1.59,0,2.38,0a1.89,1.89,0,0,1,2,2.19A1.77,1.77,0,0,1,86.33,36c-.2.1-.07.19,0,.28.38.78.77,1.55,1.15,2.32ZM84,34.2c0,.25,0,.5,0,.74s0,.2.18.2c.31,0,.62,0,.92,0a.61.61,0,0,0,.59-.56,2.72,2.72,0,0,0,0-.57.65.65,0,0,0-.74-.71C84,33.24,84,33.24,84,34.2Z"></path><path class="cls-1" d="M38.85,39c-.53,0-1,0-1.45,0a.32.32,0,0,1-.36-.25l-.9-2.16a.83.83,0,0,0-.89-.21c-.08.07,0,.17,0,.26,0,.68,0,1.36,0,2,0,.24,0,.35-.31.33s-.61,0-.92,0-.25,0-.25-.24V32.22c0-.19.07-.23.25-.23.82,0,1.64,0,2.45,0a1.79,1.79,0,0,1,1.78,1,2.67,2.67,0,0,1-.09,2.5,1,1,0,0,1-.46.43c-.26.1-.22.23-.12.42.39.76.77,1.52,1.15,2.29Zm-3-5.68h0a1.71,1.71,0,0,1-.32,0c-.28,0-.35.08-.34.34,0,.42,0,.85,0,1.27,0,.17,0,.27.23.26s.49,0,.74,0a.67.67,0,0,0,.72-.71,3.15,3.15,0,0,0,0-.53.61.61,0,0,0-.64-.61Z"></path><path class="cls-1" d="M135.3,44.83a5.16,5.16,0,0,1-.2,1.83,2.23,2.23,0,0,1-1.88,1.67,4.17,4.17,0,0,1-1.41,0,2.34,2.34,0,0,1-2-1.89,6.66,6.66,0,0,1,0-3.23,2.34,2.34,0,0,1,2.38-1.95,2.67,2.67,0,0,1,2.39.81,3.38,3.38,0,0,1,.7,2C135.32,44.34,135.3,44.59,135.3,44.83Zm-4.16.09c0,.2,0,.52.06.84a2.59,2.59,0,0,0,.13.55,1.1,1.1,0,0,0,1.15.87,1,1,0,0,0,1.15-.81,5.4,5.4,0,0,0,0-3.11,1.06,1.06,0,0,0-1.13-.79,1.12,1.12,0,0,0-1.15.83A5.41,5.41,0,0,0,131.14,44.92Z"></path><path class="cls-1" d="M9.54,39H8a.32.32,0,0,1-.32-.22c-.43-.84-.88-1.68-1.32-2.51A.54.54,0,0,0,5.71,36c-.14.06-.08.18-.08.27,0,.8,0,1.59,0,2.38,0,.25-.07.34-.32.32a7.21,7.21,0,0,0-.93,0c-.19,0-.24-.07-.24-.25v-6.5c0-.2.09-.24.26-.23.39,0,.9-.16,1.16.08s0,.72.06,1.1,0,.83,0,1.24c0,.12-.09.33.13.34s.46.12.62-.18c.4-.77.83-1.53,1.24-2.31A.43.43,0,0,1,8.09,32a8.85,8.85,0,0,0,1,0c.31,0,.29.09.16.31-.5.88-1,1.78-1.49,2.66a.62.62,0,0,0,0,.7c.57,1,1.11,2.06,1.66,3.1A1.37,1.37,0,0,1,9.54,39Z"></path><path class="cls-1" d="M127.89,53.4v.9c0,.79,0,1.59,0,2.38,0,.24-.07.32-.3.3a6.26,6.26,0,0,0-.75,0c-.19,0-.28,0-.27-.25v-6c0-.18.06-.26.24-.24h0a1.21,1.21,0,0,1,1.5.86c.39.93.93,1.8,1.42,2.72.11-.11.07-.22.07-.31,0-1,0-2,0-3,0-.25.06-.34.31-.32s.73-.1.93.06.07.6.07.91c0,1.73,0,3.46,0,5.19,0,.27-.07.32-.33.35a1.2,1.2,0,0,1-1.45-.85,28,28,0,0,0-1.29-2.49,2.15,2.15,0,0,0-.14-.26Z"></path><path class="cls-1" d="M151.54,44.83c0,1,0,2,0,3.05,0,.26-.08.33-.32.31a8,8,0,0,0-.85,0c-.24,0-.31-.07-.31-.3,0-.75,0-1.49,0-2.24,0-.26,0-.35-.33-.34-.5,0-1,0-1.49,0-.23,0-.31.06-.31.3,0,.76,0,1.52,0,2.27,0,.23,0,.34-.29.31s-.9.17-1.13-.08-.06-.7-.06-1.07c0-1.74,0-3.48,0-5.22,0-.25,0-.39.34-.36s.86-.12,1.07.06.06.71.07,1.09,0,.8,0,1.21c0,.2,0,.3.27.29.54,0,1.07,0,1.6,0,.21,0,.26-.08.26-.27,0-.7,0-1.4,0-2.1,0-.21.05-.3.28-.28a7.06,7.06,0,0,0,.92,0c.22,0,.28.06.28.27C151.53,42.76,151.54,43.8,151.54,44.83Z"></path><path class="cls-1" d="M128.6,46.12c0,.54,0,1.07,0,1.6a.29.29,0,0,1-.24.33,5.36,5.36,0,0,1-3,.13,2.66,2.66,0,0,1-2-2.16,5.24,5.24,0,0,1,0-2.46,2.71,2.71,0,0,1,2.11-2.08,5.49,5.49,0,0,1,2.7.08c.19,0,.29.13.25.34a3.83,3.83,0,0,0-.08.67c0,.23-.11.26-.32.19a4.39,4.39,0,0,0-1.65-.17,1.62,1.62,0,0,0-1.57,1.35,4.15,4.15,0,0,0,0,1.72,1.59,1.59,0,0,0,1.74,1.43c.76,0,.59,0,.61-.59,0-.26,0-.53,0-.78s-.05-.29-.27-.29c-.66,0-.66,0-.66-.68a1.92,1.92,0,0,0,0-.24c0-.23.07-.28.28-.28.59,0,1.19,0,1.78,0,.23,0,.31.06.3.29C128.59,45.06,128.6,45.59,128.6,46.12Z"></path><path class="cls-1" d="M78.8,32c.9,0,.9,0,1.16.84.6,1.94,1.2,3.88,1.82,5.81.08.27,0,.35-.25.33a9.55,9.55,0,0,0-1.07,0c-.19,0-.27-.07-.31-.25s-.16-.57-.21-.86a.28.28,0,0,0-.33-.27h-1.7a.27.27,0,0,0-.32.25c-.06.3-.15.59-.21.89s-.11.24-.29.24c-.34,0-.69,0-1,0s-.28-.12-.21-.34c.47-1.52.93-3.05,1.4-4.57.18-.58.37-1.15.53-1.73.07-.27.18-.38.46-.34A5.23,5.23,0,0,0,78.8,32Zm0,1.21c-.25,1-.47,1.91-.71,2.82,0,.19-.06.28.18.27s.71,0,1.06,0c.14,0,.24,0,.2-.19C79.26,35.16,79,34.23,78.77,33.2Z"></path><path class="cls-1" d="M44.25,39c-.82,0-.82,0-1-.78-.15-.59-.15-.59-.76-.59H41.12a.26.26,0,0,0-.31.24c-.07.31-.17.62-.23.93s-.11.21-.26.21c-.36,0-.72,0-1.07,0s-.27-.06-.2-.29c.45-1.44.88-2.89,1.33-4.33.21-.7.43-1.4.64-2.11a.28.28,0,0,1,.34-.25c.43,0,.86,0,1.28,0,.23,0,.3.08.36.28q1,3.21,2,6.4c.08.23,0,.32-.21.3A4.73,4.73,0,0,0,44.25,39ZM42,33.31H42c-.23.91-.45,1.83-.69,2.74,0,.18,0,.23.17.22h1.1c.15,0,.22,0,.18-.2Z"></path><path class="cls-1" d="M28.48,35.47c0-1,0-2.11,0-3.16,0-.25.06-.32.32-.32,1.19,0,2.39,0,3.59,0,.23,0,.31.07.29.3a4.59,4.59,0,0,0,0,.74c0,.25-.06.33-.31.32H30.23c-.21,0-.29.06-.27.28a5.61,5.61,0,0,1,0,.82c0,.26.09.31.32.3H32c.2,0,.26.06.27.26,0,1,0,1-.95,1-.36,0-.73,0-1.1,0-.21,0-.26.07-.25.27,0,.36,0,.73,0,1.1,0,.21,0,.28.27.28.76,0,1.52,0,2.28,0,.24,0,.35.05.31.31s.12.74-.08,1-.62.07-1,.07c-1,0-2,0-3,0-.27,0-.33-.08-.33-.34C28.49,37.58,28.48,36.52,28.48,35.47Z"></path><path class="cls-1" d="M99.57,35.49c0-1.07,0-2.13,0-3.2,0-.22,0-.3.29-.3,1.21,0,2.41,0,3.62,0,.21,0,.31.05.29.28a2,2,0,0,0,0,.35c0,.73,0,.73-.73.73h-1.71c-.2,0-.28,0-.27.26a6.61,6.61,0,0,1,0,.89c0,.21.08.25.28.25h1.74c.21,0,.3.05.28.28s.13.72-.06.92-.59,0-.89.06h-1.14c-.15,0-.21,0-.2.2,0,.4,0,.8,0,1.21,0,.2.09.23.26.23h2.27c.25,0,.37,0,.33.32s.12.75-.09,1-.63.06-.95.06c-1,0-2,0-3,0-.26,0-.31-.08-.31-.32C99.58,37.6,99.57,36.54,99.57,35.49Z"></path><path class="cls-1" d="M71,35.47c0-1.06,0-2.11,0-3.16,0-.25.07-.33.32-.32.75,0,1.49,0,2.24,0a3,3,0,0,1,1.15.22,1.79,1.79,0,0,1,1.08,1.65,3.15,3.15,0,0,1,0,.92,2,2,0,0,1-2.21,1.84c-.28,0-.55,0-.82,0s-.28.08-.28.29c0,.59,0,1.18,0,1.77,0,.25-.08.31-.3.3a6.61,6.61,0,0,0-.89,0c-.25,0-.3-.08-.3-.31C71,37.6,71,36.53,71,35.47Zm1.48-1.13c0,.28,0,.55,0,.82s.05.26.24.25a8.83,8.83,0,0,0,.89,0,.68.68,0,0,0,.65-.71c.09-.73,0-1.17-.42-1.31a2,2,0,0,0-1.29,0c-.18.07,0,.55-.06.84A1,1,0,0,0,72.47,34.34Z"></path><path class="cls-1" d="M23,35.49c0-1.07,0-2.13,0-3.2,0-.12-.07-.31.17-.3a24.06,24.06,0,0,1,3.06.08,1.72,1.72,0,0,1,1.49,1.46,3.66,3.66,0,0,1,0,1.51,2,2,0,0,1-2.16,1.58,6.26,6.26,0,0,1-.75,0c-.31,0-.37.1-.36.38,0,.54,0,1.09,0,1.63,0,.26-.05.37-.33.35a5.29,5.29,0,0,0-.89,0c-.22,0-.28-.06-.28-.28C23,37.62,23,36.56,23,35.49Zm1.49-1.16c0,1.21,0,1.21,1.14,1a.68.68,0,0,0,.6-.53,2.15,2.15,0,0,0,0-.91.69.69,0,0,0-.75-.65c-.26,0-.52,0-.78,0s-.24.07-.23.25S24.47,34.06,24.47,34.33Z"></path><path class="cls-1" d="M136.44,44.81c0-1,0-2,0-3.06,0-.22.05-.3.29-.29h3.7c.21,0,.28,0,.28.27,0,.94,0,.94-.93.94-.52,0-1,0-1.56,0-.26,0-.33.08-.31.32a8,8,0,0,1,0,.85c0,.22.06.29.28.29.6,0,1.21,0,1.81,0,.22,0,.3.06.28.28a5.14,5.14,0,0,0,0,.68c0,.23-.08.27-.29.27-.58,0-1.16,0-1.74,0-.25,0-.37,0-.34.33a7.69,7.69,0,0,1,0,1c0,.26.06.35.33.34.75,0,1.49,0,2.24,0,.25,0,.31.08.31.32,0,.91,0,.91-.89.91h-3.16c-.23,0-.31,0-.3-.29C136.45,46.87,136.44,45.84,136.44,44.81Z"></path><path class="cls-1" d="M153,44.79c0-1,0-2,0-3,0-.21.05-.29.27-.28H157c.22,0,.27.07.27.28,0,.93,0,.93-.9.93h-1.67c-.2,0-.27,0-.26.26a7.06,7.06,0,0,1,0,.92c0,.23.08.28.29.28h1.85c.19,0,.26.05.27.26,0,1,0,1-1,1-.38,0-.76,0-1.13,0s-.35,0-.33.31a8.34,8.34,0,0,1,0,1c0,.24.06.33.31.32.75,0,1.5,0,2.24,0,.26,0,.38,0,.37.34,0,.89,0,.89-.88.89-1,0-2.06,0-3.09,0-.3,0-.41-.06-.4-.39C153,46.81,153,45.8,153,44.79Z"></path><path class="cls-1" d="M66,37.29a4.65,4.65,0,0,0,1.43.45,2.29,2.29,0,0,0,.74,0,.69.69,0,0,0,.27-1.23c-.15-.09-.3-.18-.46-.26l-.85-.37a2,2,0,0,1-1.27-2.31,2,2,0,0,1,1.94-1.65,4.74,4.74,0,0,1,1.83.21c.21.06.32.16.27.4s-.09.54-.12.81-.07.18-.22.14a4.6,4.6,0,0,0-1.22-.22,1.7,1.7,0,0,0-.67.09.59.59,0,0,0-.19,1,2.73,2.73,0,0,0,.62.35c.26.11.53.21.79.33a2.1,2.1,0,0,1-.76,4A4.11,4.11,0,0,1,66,38.72c-.17-.08-.26-.16-.22-.37S65.93,37.67,66,37.29Z"></path><path class="cls-1" d="M48,36.17c0,.84,0,1.68,0,2.52,0,.22-.06.3-.28.28-.4,0-.92.16-1.16-.09s-.06-.72-.06-1.09c0-1.38,0-2.75,0-4.13,0-.25-.06-.32-.31-.31s-.76,0-1.14,0c-.2,0-.27,0-.24-.27a2.51,2.51,0,0,0,0-.67c-.06-.41.15-.44.48-.43q2,0,4,0c.28,0,.36.08.33.34a5,5,0,0,0,0,.67c0,.26,0,.39-.34.36s-.71,0-1.06,0-.31,0-.31.29C48.05,34.48,48,35.32,48,36.17Z"></path><path class="cls-1" d="M89.31,36.13c0-.82,0-1.65,0-2.48,0-.24-.07-.31-.3-.3s-.76,0-1.14,0c-.2,0-.27-.06-.26-.26s0-.59,0-.89.08-.22.25-.22c1.45,0,2.91,0,4.37,0,.11,0,.21,0,.21.16,0,.34,0,.67,0,1s-.08.21-.24.21c-.35,0-.71,0-1.06,0s-.4.11-.4.41c0,1.61,0,3.22,0,4.83,0,.29-.07.41-.37.38a4.49,4.49,0,0,0-.82,0c-.25,0-.33-.06-.32-.31C89.32,37.82,89.31,37,89.31,36.13Z"></path><path class="cls-1" d="M144.22,45.46c0,.82,0,1.63,0,2.45,0,.21-.06.3-.28.28a8.81,8.81,0,0,0-.89,0c-.25,0-.32-.07-.32-.32,0-1.6,0-3.19,0-4.79,0-.3-.05-.46-.38-.4h-.14c-1,0-1,0-.94-1,0-.16.05-.22.22-.22h3.95c.18,0,.24,0,.24.24,0,1,.05,1-.92,1-.64,0-.55-.09-.55.53S144.22,44.71,144.22,45.46Z"></path><path class="cls-1" d="M144.52,54.3c0-.77,0-1.54,0-2.31,0-.25-.07-.35-.32-.32h-.14c-.95,0-1-.07-.88-1,0-.16.1-.16.21-.16h3.7c.18,0,.21.08.22.24.05,1,.05,1-.91,1-.35,0-.46.07-.46.44,0,1.5,0,3,0,4.51,0,.3-.09.4-.38.37a2.29,2.29,0,0,0-.64,0c-.38.06-.44-.11-.43-.45C144.53,55.79,144.52,55,144.52,54.3Z"></path><path class="cls-1" d="M137.58,54.3c0-.78,0-1.57,0-2.35,0-.21-.05-.3-.28-.28s-.54,0-.81,0-.26-.07-.26-.27c0-.93,0-.93.91-.93s1.91,0,2.87,0c.28,0,.34.08.34.34,0,.85,0,.85-.88.85-.47,0-.47,0-.47.47,0,1.5,0,3,0,4.51,0,.27-.06.36-.33.33a4.21,4.21,0,0,0-.71,0c-.3,0-.41,0-.4-.38C137.6,55.84,137.58,55.07,137.58,54.3Z"></path><path class="cls-1" d="M154.68,54.32c0-.76,0-1.51,0-2.27,0-.33-.1-.41-.4-.38s-.48,0-.72,0-.24,0-.25-.24c0-1,0-1,.91-1s2,0,2.92,0c.23,0,.3.05.3.29,0,.9,0,.9-.9.9-.45,0-.45,0-.45.47,0,1.5,0,3,0,4.51,0,.26-.07.36-.34.33a5.08,5.08,0,0,0-.78,0c-.24,0-.32-.06-.32-.31C154.69,55.89,154.68,55.1,154.68,54.32Z"></path><path class="cls-1" d="M50.53,35.45c0-1.05,0-2.11,0-3.16,0-.22,0-.32.29-.3s.91-.16,1.15.09.07.71.07,1.09c0,1.81,0,3.63,0,5.44,0,.27,0,.39-.35.36a5.17,5.17,0,0,0-.88,0c-.23,0-.29-.06-.28-.28C50.54,37.61,50.53,36.53,50.53,35.45Z"></path><path class="cls-1" d="M125.19,53.73c0,1,0,2,0,3,0,.23,0,.32-.29.3s-.62,0-.93,0-.24-.07-.24-.25v-6c0-.19,0-.27.24-.25h0c.38,0,.87-.12,1.1.07s.07.71.07,1.08C125.2,52.33,125.19,53,125.19,53.73Z"></path><path class="cls-1" d="M142.5,53.75c0,1,0,1.94,0,2.91,0,.24,0,.34-.31.32a8.61,8.61,0,0,0-.88,0c-.18,0-.25,0-.25-.23v-6c0-.2.08-.24.25-.23.38,0,.88-.16,1.13.08s.05.69.05,1.06C142.5,52.33,142.5,53,142.5,53.75Z"></path><path class="cls-1" d="M51.38,25.67c-.47,0-.94,0-1.41,0-.21,0-.28-.06-.27-.26,0-.37-.14-.83.07-1.07s.66-.06,1-.07h2c.23,0,.3.07.29.3s.11.81-.06,1-.67.06-1,.07S51.6,25.67,51.38,25.67Z"></path></svg>