<svg xmlns="http://www.w3.org/2000/svg" id="Layer_1" data-name="Layer 1" viewBox="0 0 141.63 32.99"><defs><style>.cls-1{fill:#fff;}</style></defs><path class="cls-1" d="M7.26,11A46.5,46.5,0,0,0,7.64,6a27.45,27.45,0,0,0,4.59-.71H14l-1.1,7.78a7.38,7.38,0,0,1,4.92-1.94c1.83,0,3.82.74,3.82,3.36,0,.6-.57,4.65-1.17,8.8a22.9,22.9,0,0,0-.22,2.81c-1.72,0-4.37,0-6.17.16.44-2.13,1.42-9.42,1.42-9.88,0-.79-.52-1-1.18-1a3.76,3.76,0,0,0-1.8.55l-1,6.93a27.42,27.42,0,0,0-.27,3.28c-1.67,0-4.27,0-6.2.16.16-.87.43-2.64.57-3.55Z"></path><path class="cls-1" d="M31.43,11.16c4.07,0,6.91,2.54,6.91,6.53a8.54,8.54,0,0,1-8.85,8.63c-4,0-6.67-2.54-6.67-6.53A8.34,8.34,0,0,1,31.43,11.16ZM31.1,15c-2.08,0-2.54,3.58-2.54,5.14s.57,2.21,1.5,2.21c2,0,2.54-3.74,2.54-5.13S32,15,31.1,15Z"></path><path class="cls-1" d="M41.26,11a45.93,45.93,0,0,0,.49-4.91,27.91,27.91,0,0,0,4.59-.74h1.75L45.63,22.85a25.75,25.75,0,0,0-.33,3.28c-2.18,0-5.19.08-6.17.16.11-.46.33-2.54.46-3.55Z"></path><path class="cls-1" d="M49.78,11a45.93,45.93,0,0,0,.49-4.91,27.91,27.91,0,0,0,4.59-.74h1.75L54.15,22.85a25.75,25.75,0,0,0-.33,3.28c-2.18,0-5.19.08-6.17.16.11-.46.33-2.54.47-3.55Z"></path><path class="cls-1" d="M62.81,11.24l1.07,8.5,0,1.72.41-1.72,2.87-8.44c2,0,3.93,0,5.84-.06-1.77,4-5.35,12.27-7.13,16-1.58,3.52-4,4.91-7,4.91a7,7,0,0,1-4-1.2,11.48,11.48,0,0,0,1.8-3.58,3.59,3.59,0,0,0,2,.66c1,0,1.64-.55,1.91-1.86-.38-1.61-3.3-12.78-3.82-14.83C59,11.35,60.87,11.35,62.81,11.24Z"></path><path class="cls-1" d="M74.61,11A46.5,46.5,0,0,0,75,6a27.3,27.3,0,0,0,4.59-.71H81.3L80.21,13.1a7.37,7.37,0,0,1,4.91-1.94c1.83,0,3.83.74,3.83,3.36,0,.6-.58,4.65-1.18,8.8a22.9,22.9,0,0,0-.22,2.81c-1.72,0-4.37,0-6.17.16.44-2.13,1.42-9.42,1.42-9.88,0-.79-.52-1-1.17-1a3.76,3.76,0,0,0-1.8.55l-1,6.93a27.42,27.42,0,0,0-.27,3.28c-1.67,0-4.26,0-6.2.16.16-.87.44-2.64.57-3.55Z"></path><path class="cls-1" d="M98.78,11.16c4.07,0,6.91,2.54,6.91,6.53a8.53,8.53,0,0,1-8.85,8.63c-4,0-6.66-2.54-6.66-6.53A8.33,8.33,0,0,1,98.78,11.16ZM98.45,15c-2.07,0-2.54,3.58-2.54,5.14s.58,2.21,1.51,2.21c2,0,2.54-3.74,2.54-5.13S99.35,15,98.45,15Z"></path><path class="cls-1" d="M106.92,19.71a8.36,8.36,0,0,1,8.74-8.55c3,0,5.65,1,5.65,3.94a5.4,5.4,0,0,1-.43,2c-.38,0-.85-.06-1.34-.06a21,21,0,0,0-3,.22,8.9,8.9,0,0,0,.17-1.09A1.07,1.07,0,0,0,115.5,15c-2.27,0-2.52,3.22-2.52,4.61,0,2,1,2.79,2.74,2.79a8.75,8.75,0,0,0,3.68-.9,15.51,15.51,0,0,0,1,2.65,10.82,10.82,0,0,1-6.63,2.18C109.46,26.32,106.92,23.51,106.92,19.71Z"></path><path class="cls-1" d="M124.26,11a47.24,47.24,0,0,0,.39-4.91,27.82,27.82,0,0,0,4.58-.74H131l-1.8,12.89c.27-.52,4.15-6.23,4.53-6.86,1.12,0,2.22,0,3.34,0,.68,0,1.5,0,2.81-.08l-.06.36-4.91,6.66L138,26v.11c-1.56,0-6.17.14-6.23.16s-2.49-6.8-2.65-7.4l-.55,4a29.55,29.55,0,0,0-.32,3.28c-2.3,0-5.19.08-6.18.16.17-.81.44-2.54.58-3.55Z"></path></svg>