<svg xmlns="http://www.w3.org/2000/svg" id="Layer_1" data-name="Layer 1" viewBox="0 0 171.97 26.67"><defs><style>.cls-1{fill:#fff;}</style></defs><path class="cls-1" d="M23.54,13.38c-2.95-3.77-3.85-5.5-6.5-5.53s-5.1,2.22-4.94,5.78c.1,2.24,2.48,5.08,5.21,5.13,3,.06,4.13-1.27,6.4-4.37.49-.68,5.6-7.51,5.6-7.51H32l0,1.58c-1.07,1.47-2.22,2.68-3.91,5.16l-1.68,2.47c-1.45,2.14-4.14,6.13-8.84,6.13a8.8,8.8,0,0,1-8.78-8.83c0-4.87,3.92-9.07,8.78-8.83,3.28.16,4.46,1.6,8,6.34Z"></path><path class="cls-1" d="M29.72,21.33h2.65l0-1.58c-1.41-1.8-4.1-5.43-4.1-5.43l-1.8,2.73s2.58,3.3,3.29,4.28"></path><path class="cls-1" d="M10.73,7.68C7.71,11.58,1,20.68,0,22.17H4c3-4.39,7.2-9.68,9.4-12.71a4.69,4.69,0,0,1,2.69-1.53,6.54,6.54,0,0,1,1.1-.08l2.27-3a7.31,7.31,0,0,0-3.34-.28A8.28,8.28,0,0,0,10.5,8"></path><path class="cls-1" d="M49.69,6.56h.16l.19,0h.2l.2,0a1.25,1.25,0,0,1,.19,0h.15l.13,0H51L49.76,9.39a4.64,4.64,0,0,0-1.37.06l-.16.06a3.35,3.35,0,0,0-1,.5A3.57,3.57,0,0,0,46,11.44a6.23,6.23,0,0,0-.32,2.7v7.12h-2.8V8.55L45.75,6.4V9c.27-.37.53-.71.77-1a4.23,4.23,0,0,1,2.06-1.25,5.52,5.52,0,0,1,1.11-.15"></path><path class="cls-1" d="M57.81,17.87a3.26,3.26,0,0,0,2.53-1.13,4.24,4.24,0,0,0,1-2.91,4.24,4.24,0,0,0-1-2.89,3.38,3.38,0,0,0-5.08,0,4.29,4.29,0,0,0-1,2.89,4.24,4.24,0,0,0,1,2.91,3.28,3.28,0,0,0,2.54,1.13m4.94-11h1.4V20.79h-2.8l0-1.12V18.49l-.87,1.68a6,6,0,0,1-2.7.62,5.85,5.85,0,0,1-4.6-2.08,7.13,7.13,0,0,1-1.74-4.88A7.15,7.15,0,0,1,53.21,9,6.12,6.12,0,0,1,61.38,8l0-1.15Z"></path><path class="cls-1" d="M73.44,17.38A3.22,3.22,0,0,0,76,16.24a4.25,4.25,0,0,0,1-2.89,4.25,4.25,0,0,0-1-2.89,3.39,3.39,0,0,0-5.07,0,4.24,4.24,0,0,0-1,2.89,4.24,4.24,0,0,0,1,2.89,3.22,3.22,0,0,0,2.52,1.14M78,8.45a7.19,7.19,0,0,1,1.74,4.9A7.19,7.19,0,0,1,78,18.25a5.94,5.94,0,0,1-4.6,2.08,6.07,6.07,0,0,1-2.61-.59L69.93,18v6.09L67.1,26.67V6.4h2.77l0,1.12A6.14,6.14,0,0,1,73.44,6.4a5.92,5.92,0,0,1,4.6,2"></path><path class="cls-1" d="M82.27,21V9.67L85.1,7.24V21Zm0-20.67H85.1v2.3L82.27,5Z"></path><path class="cls-1" d="M93.86,17.87a3.21,3.21,0,0,0,2.52-1.13,4.25,4.25,0,0,0,1-2.89,4.23,4.23,0,0,0-1-2.89,3.19,3.19,0,0,0-2.52-1.14A3.24,3.24,0,0,0,91.33,11a4.19,4.19,0,0,0-1,2.89,4.21,4.21,0,0,0,1,2.89,3.26,3.26,0,0,0,2.53,1.13M97.38,2.45,100.2.53V20.79H97.44v-2.3l-.87,1.68a6,6,0,0,1-2.71.62,5.92,5.92,0,0,1-4.6-2.05,7.14,7.14,0,0,1-1.74-4.89A7.19,7.19,0,0,1,89.26,9a6.11,6.11,0,0,1,8.12-1Z"></path><path class="cls-1" d="M114.47,17.87A3.26,3.26,0,0,0,117,16.74a4.24,4.24,0,0,0,1-2.91,4.24,4.24,0,0,0-1-2.89,3.38,3.38,0,0,0-5.08,0,4.24,4.24,0,0,0-1,2.89,4.24,4.24,0,0,0,1,2.91,3.28,3.28,0,0,0,2.54,1.13m4.94-11h1.4V20.79H118l0-1.12V18.49l-.87,1.68a6,6,0,0,1-2.7.62,5.85,5.85,0,0,1-4.6-2.08,7.09,7.09,0,0,1-1.74-4.88A7.1,7.1,0,0,1,109.87,9a5.85,5.85,0,0,1,4.6-2.08A5.92,5.92,0,0,1,118,8l0-1.15Z"></path><polygon class="cls-1" points="123.76 2.46 126.59 0 126.59 21.01 123.76 21.01 123.76 2.46"></polygon><path class="cls-1" d="M135.88,17.38a3.22,3.22,0,0,0,2.55-1.14,4.24,4.24,0,0,0,1-2.89,4.24,4.24,0,0,0-1-2.89,3.39,3.39,0,0,0-5.07,0,4.24,4.24,0,0,0-1,2.89,4.24,4.24,0,0,0,1,2.89,3.22,3.22,0,0,0,2.52,1.14m4.6-8.93a7.19,7.19,0,0,1,1.74,4.9,7.19,7.19,0,0,1-1.74,4.9,6,6,0,0,1-4.6,2.08,6.07,6.07,0,0,1-2.61-.59l-.9-1.71v6.09l-2.83,2.55V6.4h2.77l0,1.12a6.14,6.14,0,0,1,3.54-1.12,5.92,5.92,0,0,1,4.6,2"></path><path class="cls-1" d="M155.28,8.27a6.74,6.74,0,0,1,1.43,4.6V21h-2.83V12.46a3.52,3.52,0,0,0-.83-2.4,2.82,2.82,0,0,0-4.22,0,3.52,3.52,0,0,0-.83,2.4V21h-2.82V3L148,.5V7.09a5.77,5.77,0,0,1,3-.78,5.53,5.53,0,0,1,4.32,2"></path><path class="cls-1" d="M165.63,17.87a3.26,3.26,0,0,0,2.53-1.13,4.24,4.24,0,0,0,1-2.91,4.24,4.24,0,0,0-1-2.89,3.38,3.38,0,0,0-5.08,0,4.29,4.29,0,0,0-1,2.89,4.24,4.24,0,0,0,1,2.91,3.28,3.28,0,0,0,2.54,1.13m4.94-11H172V20.79h-2.8l0-1.12V18.49l-.87,1.68a6,6,0,0,1-2.7.62,5.85,5.85,0,0,1-4.6-2.08,7.13,7.13,0,0,1-1.74-4.88A7.15,7.15,0,0,1,161,9,6.12,6.12,0,0,1,169.2,8l0-1.15Z"></path></svg>