<svg xmlns:svg="http://www.w3.org/2000/svg" xmlns="http://www.w3.org/2000/svg" xmlns:xlink="http://www.w3.org/1999/xlink" id="svg2412" x="0px" y="0px" viewBox="0 0 682.7 682.7" style="enable-background:new 0 0 682.7 682.7;" xml:space="preserve"><style type="text/css">	.st0{clip-path:url(#SVGID_2_);}	.st1{fill:none;stroke:#FFFFFF;stroke-width:26.6667;stroke-linecap:round;stroke-linejoin:round;stroke-miterlimit:13.3333;}</style><g id="g2418" transform="matrix(1.3333333,0,0,-1.3333333,0,682.66667)">	<g id="g2420">		<g>			<defs>				<rect id="SVGID_1_" x="-85.3" y="-85.3" width="682.7" height="682.7"></rect>			</defs>			<clipPath id="SVGID_2_">				<use xlink:href="#SVGID_1_" style="overflow:visible;"></use>			</clipPath>			<g id="g2422" class="st0">				<g id="g2428" transform="translate(136.7771,449.3205)">					<path id="path2430" class="st1" d="M0,0v-97.8h97.8C97.8-43.8,54,0,0,0z"></path>				</g>				<g id="g2432" transform="translate(136.7771,432.7604)">					<path id="path2434" class="st1" d="M0,0c-44.9,0-81.2-36.4-81.2-81.2s36.4-81.2,81.2-81.2s81.2,36.4,81.2,81.2"></path>				</g>				<g id="g2436" transform="translate(136.7771,351.5469)">					<path id="path2438" class="st1" d="M0,0l-55,55"></path>				</g>				<g id="g2440" transform="translate(175.3759,214.873)">					<path id="path2442" class="st1" d="M0,0h191.9"></path>				</g>				<g id="g2444" transform="translate(135.3757,214.873)">					<path id="path2446" class="st1" d="M0,0L0,0"></path>				</g>				<g id="g2448" transform="translate(410,404.5676)">					<path id="path2450" class="st1" d="M0,0v97.4h-400v-287.1h85.4"></path>				</g>				<g id="g2452" transform="translate(410,364.5676)">					<path id="path2454" class="st1" d="M0,0L0,0"></path>				</g>				<g id="g2456" transform="translate(449.644,332.4143)">					<path id="path2458" class="st1" d="M0,0h-5.6c-19.2,0-34.7-15.5-34.7-34.7v-10.6C-40.3-64.5-24.8-80-5.6-80H0      c19.2,0,34.7,15.5,34.7,34.7v10.6C34.7-15.5,19.2,0,0,0z"></path>				</g>				<g id="g2460" transform="translate(305.3231,273.5669)">					<path id="path2462" class="st1" d="M0,0l10.2-14.7c12.4-17.9,29.3-32.2,49-41.6l33.7-16v-88.6h103.8v105.6      c0,18.8-15.3,34.1-34.1,34.1h-51.2l-17.9,4.5c-24.9,6.2-47.3,20-64.1,39.5l0,0c-6.9,8-19.1,8.6-26.8,1.4l0,0      C-4.2,17.9-5.3,7.6,0,0z"></path>				</g>				<g id="g2464" transform="translate(450.1195,13.9631)">					<path id="path2466" class="st1" d="M0,0v47.4"></path>				</g>				<path id="path2468" class="st1" d="M502,112.7H398.2V10H502V112.7z"></path>				<g id="g2470" transform="translate(128.4444,138.4286)">					<path id="path2472" class="st1" d="M0,0v-9.1c0-20.1-16.3-36.4-36.4-36.4l0,0l0,0c-20.1,0-36.4,16.3-36.4,36.4V0      c0,20.1,16.3,36.4,36.4,36.4l0,0C-16.3,36.4,0,20.1,0,0z"></path>				</g>				<g id="g2474" transform="translate(128.4444,92.873)">					<path id="path2476" class="st1" d="M0,0h-72.9c-25.2,0-45.6-20.4-45.6-45.6v-37.3h164v37.3C45.6-20.4,25.2,0,0,0z"></path>				</g>				<g id="g2478" transform="translate(292.4445,138.4286)">					<path id="path2480" class="st1" d="M0,0v-9.1c0-20.1-16.3-36.4-36.4-36.4l0,0l0,0c-20.1,0-36.4,16.3-36.4,36.4V0      c0,20.1,16.3,36.4,36.4,36.4l0,0C-16.3,36.4,0,20.1,0,0z"></path>				</g>				<g id="g2482" transform="translate(292.4445,92.873)">					<path id="path2484" class="st1" d="M0,0h-72.9c-25.2,0-45.6-20.4-45.6-45.6v-37.3h164v37.3C45.6-20.4,25.2,0,0,0z"></path>				</g>				<g id="g2486" transform="translate(324.7088,426.5925)">					<path id="path2488" class="st1" d="M0,0h29.6"></path>				</g>				<g id="g2490" transform="translate(281.327,386.5925)">					<path id="path2492" class="st1" d="M0,0h73"></path>				</g>			</g>		</g>	</g></g></svg>