<svg xmlns="http://www.w3.org/2000/svg" xmlns:xlink="http://www.w3.org/1999/xlink" id="Layer_1" x="0px" y="0px" viewBox="0 0 115.9 41.5" style="enable-background:new 0 0 115.9 41.5;" xml:space="preserve"><style type="text/css">	.st0{enable-background:new    ;}	.st1{fill:#2DA5CA;}	.st2{fill:#1E5A9C;}</style><g class="st0">	<path class="st1" d="M38.9,8.5c0,3.2-1.7,5.4-4.2,5.4h-2.4v5.9h-2.9V3.2h5.4C37.2,3.2,38.9,5.3,38.9,8.5z M35.9,8.5  c0-1.7-0.7-2.8-1.7-2.8h-1.9v5.7h1.9C35.2,11.4,35.9,10.3,35.9,8.5z"></path></g><g class="st0">	<path class="st1" d="M51.6,19.5v0.3h-3.2l-3.6-6.4h-0.5v6.4h-2.9V3.2h5.4c2.5,0,4.2,2,4.2,5.1c0,2.6-1.2,4.4-3,4.9L51.6,19.5z   M44.2,11.3H46c1.1,0,1.9-1.1,1.9-2.8c0-1.7-0.7-2.8-1.9-2.8h-1.8V11.3z"></path></g><g class="st0">	<path class="st1" d="M53,11.4C53,6.4,55.4,3,58.9,3c3.6,0,5.9,3.4,5.9,8.5c0,5.1-2.4,8.5-5.9,8.5C55.3,20,53,16.6,53,11.4z   M61.9,11.5c0-3.6-1.2-6-2.9-6s-2.9,2.4-2.9,6c0,3.6,1.2,6,2.9,6S61.9,15.1,61.9,11.5z"></path></g><g class="st0">	<path class="st1" d="M64.3,22c1.7,0,3.1-1.5,3.1-4.7V3.2h2.9v14.1c0,4.6-2.4,7.3-5.6,7.3L64.3,22z"></path></g><g class="st0">	<path class="st1" d="M82.6,17.2v2.5h-8.8V3.2h8.7l-0.4,2.5h-5.3v4.6h4.1v2.5h-4.1v4.4H82.6z"></path></g><g class="st0">	<path class="st1" d="M84,11.5C84,6.4,86.6,3,90.5,3c1.2,0,2.6,0.3,3.5,0.8l-0.4,2.4c-0.6-0.4-1.7-0.7-2.7-0.7c-2.3,0-3.9,2.3-3.9,6  s1.6,6,3.9,6c1,0,2-0.3,2.6-0.6l0.4,2.3c-0.9,0.5-2.3,0.8-3.5,0.8C86.6,20,84,16.6,84,11.5z"></path></g><g class="st0">	<path class="st1" d="M105.5,5.7h-3.8v14h-2.9v-14h-3.8V3.2h10.6V5.7z"></path></g><g class="st0">	<path class="st1" d="M39.5,22.3v16.6h-3.1l-4.2-10.4v10.4h-2.9V22.3h3.2l4.1,10.5V22.3H39.5z"></path>	<path class="st1" d="M51,36.3v2.5h-8.8V22.3h8.7l-0.4,2.5h-5.3v4.6h4.1v2.5h-4.1v4.4H51z"></path>	<path class="st1" d="M62.6,27.6c0,3.2-1.7,5.4-4.2,5.4h-2.4v5.9H53V22.3h5.4C60.9,22.3,62.6,24.4,62.6,27.6z M59.6,27.6  c0-1.7-0.7-2.8-1.7-2.8h-1.9v5.7h1.9C58.9,30.5,59.6,29.4,59.6,27.6z"></path>	<path class="st1" d="M73.7,24.8h-3.8v14h-2.9v-14h-3.8v-2.5h10.6V24.8z"></path>	<path class="st1" d="M75.2,32.6V22.3h2.9v10.2c0,2.9,0.7,4,2.2,4c1.5,0,2.2-1.1,2.2-4V22.3h2.9v10.3c0,4.8-2,6.5-5.1,6.5  C77.1,39,75.2,37.4,75.2,32.6z"></path>	<path class="st1" d="M98.2,22.3v16.6h-3.1l-4.2-10.4v10.4H88V22.3h3.2l4.1,10.5V22.3H98.2z"></path>	<path class="st1" d="M109.7,36.3v2.5h-8.8V22.3h8.7l-0.4,2.5h-5.3v4.6h4.2v2.5h-4.2v4.4H109.7z"></path></g><path class="st2" d="M16.3,15.5c2.1,0.1,2.5,1.5,3.7,1.5c0.2,0,0.5-0.1,0.7-0.2c0.4-0.2,0.7-0.5,1-0.8c0,0-2.2-2.2-2.3-4.2 c0.1-1.4-0.2-2.9-0.9-4.1c-0.1-0.2-0.2-0.3-0.2-0.5c0-0.9,0.9-2.9,0.4-3.3c-0.9-0.7-2.4,2-3.2,1.7s-1.1-3.2-2-3.2s-0.9,2.9-1.6,3.2 h-0.1c-1,0.3-2.6-2-3.5-1.3C7.6,4.8,9,7.4,8.4,8S5.5,7.6,5.2,8.6s2.2,2.2,2.2,2.8l0,0c-0.1,0.6-3,0.7-3,1.8s2.8,1.1,3,1.8l0,0 c0.1,0.8-2.4,1.8-1.9,2.7s2.6,0,3.3,1.2l0,0c-2.4,2-4.2,4.8-4.9,7.9c1-0.3,2.1-0.5,3.2-0.6c0.6-1.9,1.8-3.6,3.5-4.7 c0.3,0.4,0.7,0.8,1.1,1.2c0,0,0.1,0.1,0.1,0.1c-1,1-1.8,2.1-2.4,3.3c0.9,0,1.8,0.2,2.7,0.5c0.5-0.6,1-1.2,1.6-1.7 c0.4,0.5,0.7,0.9,1,1.3c-0.3,0.4-0.6,0.8-0.7,1.2c0,0,3.3,1.9,2.8,5.5c-0.2,0.8-0.5,1.6-1,2.3c-2,2.9-5.9,2.5-7.1,0.5 c-1.1-1.8-0.8-3.8,1.4-4.7c2.5-1.1,4.1,1.7,2.4,2.5c-0.4,0.4-1.1,0.3-1.4-0.1c-0.2-0.2-0.3-0.5-0.2-0.8c0,0-1.2,0.3-0.6,1.8 c0.5,1.2,2.6,1.9,4.1-0.2c1.3-1.8-0.1-4.5-2.4-5c-2.7-0.6-7.1,2-5.1,7.2c0.7,1.8,3.8,3.8,7.7,2.3c4.2-1.6,6.1-5.4,5.5-9.8 c-0.5-3.7-3.4-7.8-5.8-10.9c-1.7-2.1-1.6-3.5-1.6-4C12.6,13.9,13.1,15.4,16.3,15.5z"></path></svg>