<svg xmlns="http://www.w3.org/2000/svg" xmlns:xlink="http://www.w3.org/1999/xlink" id="Layer_1" x="0px" y="0px" viewBox="0 0 512 512" style="enable-background:new 0 0 512 512;" xml:space="preserve"><style type="text/css">	.st0{fill:#FFFFFF;}</style><g id="Expand">	<rect x="264" y="80" class="st0" width="16" height="16"></rect>	<rect x="232" y="80" class="st0" width="16" height="16"></rect>	<rect x="248" y="416" class="st0" width="16" height="16"></rect>	<rect x="88" y="176" class="st0" width="16" height="16"></rect>	<rect x="120" y="176" class="st0" width="16" height="16"></rect>	<rect x="152" y="176" class="st0" width="16" height="16"></rect>	<rect x="184" y="176" class="st0" width="16" height="16"></rect>	<rect x="216" y="176" class="st0" width="16" height="16"></rect>	<rect x="336" y="320" class="st0" width="16" height="16"></rect>	<rect x="368" y="320" class="st0" width="64" height="16"></rect>	<rect x="336" y="352" class="st0" width="96" height="16"></rect>	<rect x="336" y="384" class="st0" width="96" height="16"></rect>	<path class="st0" d="M120,56v88H64c-4.4,0-8,3.6-8,8v64c0,4.4,3.6,8,8,8h56v232c0,4.4,3.6,8,8,8h256c4.4,0,8-3.6,8-8v-24h64  c4.4,0,8-3.6,8-8V296c0-4.4-3.6-8-8-8h-64V56c0-4.4-3.6-8-8-8H128C123.6,48,120,51.6,120,56z M72,160h176v48H72V160z M376,448H136  v-48h168v24c0,4.4,3.6,8,8,8h64V448z M448,416H320V304h128V416z M312,288c-4.4,0-8,3.6-8,8v88H136V224h120c4.4,0,8-3.6,8-8v-64  c0-4.4-3.6-8-8-8H136v-16h240v160H312z M376,64v48H136V64H376z"></path>	<path class="st0" d="M256,248h-32c-4.4,0-8,3.6-8,8v32c0,4.4,3.6,8,8,8h32c4.4,0,8-3.6,8-8v-32C264,251.6,260.4,248,256,248z   M248,280h-16v-16h16V280z"></path>	<path class="st0" d="M160,296h32c4.4,0,8-3.6,8-8v-32c0-4.4-3.6-8-8-8h-32c-4.4,0-8,3.6-8,8v32C152,292.4,155.6,296,160,296z   M168,264h16v16h-16V264z"></path>	<path class="st0" d="M342.3,198.8c12.7-12.3,12.9-32.6,0.6-45.3c-12.3-12.7-32.6-12.9-45.3-0.6s-12.9,32.6-0.6,45.3  c0.2,0.2,0.4,0.4,0.6,0.6c-11,7.4-17.7,19.9-17.7,33.2v32c0,4.4,3.6,8,8,8h64c4.4,0,8-3.6,8-8v-32  C360,218.7,353.4,206.3,342.3,198.8z M304,176c0-8.8,7.2-16,16-16s16,7.2,16,16s-7.2,16-16,16S304,184.8,304,176z M344,256h-48v-24  c0-13.3,10.7-24,24-24s24,10.7,24,24V256z"></path>	<rect x="152" y="312" class="st0" width="16" height="16"></rect>	<rect x="184" y="312" class="st0" width="80" height="16"></rect>	<rect x="152" y="344" class="st0" width="112" height="16"></rect>	<rect x="208" y="480" class="st0" width="160" height="16"></rect>	<rect x="88" y="248" class="st0" width="16" height="128"></rect>	<path class="st0" d="M424,48c0-17.7-14.3-32-32-32H288v16h104c8.8,0,16,7.2,16,16v128h16V48z"></path>	<rect x="408" y="192" class="st0" width="16" height="16"></rect></g></svg>