<svg xmlns="http://www.w3.org/2000/svg" id="Layer_1" data-name="Layer 1" viewBox="0 0 99.74 53.09"><defs><style>.cls-1{fill:#fff;}</style></defs><path class="cls-1" d="M27.17,49.71a1.55,1.55,0,0,0,1.15-.4,1.41,1.41,0,0,0,.42-1.12v-.46H28a3,3,0,0,0-1.34.29.89.89,0,0,0-.41.8.84.84,0,0,0,.26.64,1,1,0,0,0,.71.22m1.77.55-.16-.73h0a2.19,2.19,0,0,1-.76.66,2.25,2.25,0,0,1-1,.17,1.67,1.67,0,0,1-1.2-.4,1.46,1.46,0,0,1-.44-1.12c0-1,.84-1.59,2.5-1.64h.87v-.32a1.26,1.26,0,0,0-.3-.84,1.09,1.09,0,0,0-.83-.29,3.39,3.39,0,0,0-1.46.4l-.24-.6a4.31,4.31,0,0,1,.84-.33,4,4,0,0,1,.91-.11,2,2,0,0,1,1.36.41,1.67,1.67,0,0,1,.45,1.31v3.51Z"></path><path class="cls-1" d="M33,49.7a1.42,1.42,0,0,0,1.16-.43,2.16,2.16,0,0,0,.36-1.4V47.7a2.6,2.6,0,0,0-.36-1.56,1.39,1.39,0,0,0-1.17-.47,1.22,1.22,0,0,0-1,.53,2.75,2.75,0,0,0-.36,1.51,2.6,2.6,0,0,0,.36,1.49,1.21,1.21,0,0,0,1.06.5m1.56-.13h0a1.81,1.81,0,0,1-1.62.79,1.91,1.91,0,0,1-1.57-.69,3.1,3.1,0,0,1-.56-2,3.17,3.17,0,0,1,.56-2A1.92,1.92,0,0,1,32.85,45a1.88,1.88,0,0,1,1.61.76h.06V45.4L34.45,45v-2.1h.78v7.31H34.6Z"></path><path class="cls-1" d="M38.06,50.26l-2-5.15h.83L38,48.17c.25.71.4,1.17.45,1.39h0a4.9,4.9,0,0,1,.33-1c.18-.49.59-1.66,1.23-3.42h.84l-2,5.15Z"></path><path class="cls-1" d="M43.05,49.71a1.5,1.5,0,0,0,1.14-.4,1.41,1.41,0,0,0,.42-1.12v-.46h-.78a2.88,2.88,0,0,0-1.38.28.89.89,0,0,0-.41.8.84.84,0,0,0,.25.64,1,1,0,0,0,.72.22m1.76.55-.15-.73h0a2.14,2.14,0,0,1-.77.66,2.25,2.25,0,0,1-1,.17,1.67,1.67,0,0,1-1.2-.4,1.45,1.45,0,0,1-.43-1.12c0-1,.83-1.59,2.49-1.64h.88v-.32a1.25,1.25,0,0,0-.26-.89,1.11,1.11,0,0,0-.84-.29,3.39,3.39,0,0,0-1.45.4l-.24-.6a4.22,4.22,0,0,1,.83-.33,4,4,0,0,1,.91-.11,2,2,0,0,1,1.37.41,1.67,1.67,0,0,1,.44,1.31v3.51Z"></path><path class="cls-1" d="M50.37,50.26V46.93a1.34,1.34,0,0,0-.29-.94,1.15,1.15,0,0,0-.89-.31,1.56,1.56,0,0,0-1.19.44,2.23,2.23,0,0,0-.38,1.44v2.7h-.78V45.11h.61l.13.71h0a1.62,1.62,0,0,1,.68-.59,2.2,2.2,0,0,1,1-.21,2,2,0,0,1,1.4.45,1.87,1.87,0,0,1,.47,1.43v3.36Z"></path><path class="cls-1" d="M54.68,50.36A2.18,2.18,0,0,1,53,49.67a2.85,2.85,0,0,1-.61-2,3,3,0,0,1,.62-2,2.27,2.27,0,0,1,1.77-.7,3.67,3.67,0,0,1,.75.08,2.79,2.79,0,0,1,.58.18l-.24.67a3.31,3.31,0,0,0-.56-.17,2.51,2.51,0,0,0-.55-.07c-1,0-1.57.67-1.57,2a2.42,2.42,0,0,0,.39,1.46,1.32,1.32,0,0,0,1.13.51A3.47,3.47,0,0,0,56,49.4v.69a2.65,2.65,0,0,1-1.3.27"></path><path class="cls-1" d="M58.94,45.67a1.36,1.36,0,0,0-1,.4,1.92,1.92,0,0,0-.43,1.12H60.2a1.71,1.71,0,0,0-.33-1.13,1.15,1.15,0,0,0-.94-.39m.22,4.69a2.34,2.34,0,0,1-1.81-.7,2.71,2.71,0,0,1-.66-1.93,3,3,0,0,1,.62-2,2.22,2.22,0,0,1,3.19-.09,2.44,2.44,0,0,1,.56,1.68v.5H57.5A2.15,2.15,0,0,0,58,49.2a1.57,1.57,0,0,0,1.22.47,4.07,4.07,0,0,0,1.65-.35V50a4.2,4.2,0,0,1-.78.26,4.4,4.4,0,0,1-.89.08"></path><path class="cls-1" d="M64.24,49.7a1.4,1.4,0,0,0,1.21-.43,2.16,2.16,0,0,0,.36-1.4V47.7a2.6,2.6,0,0,0-.36-1.56,1.39,1.39,0,0,0-1.17-.47,1.26,1.26,0,0,0-1.05.53,2.75,2.75,0,0,0-.36,1.51,2.6,2.6,0,0,0,.36,1.49,1.21,1.21,0,0,0,1.06.5m1.56-.13h0a1.81,1.81,0,0,1-1.61.79,1.93,1.93,0,0,1-1.58-.69,3.1,3.1,0,0,1-.56-2,3.17,3.17,0,0,1,.56-2A1.94,1.94,0,0,1,64.15,45a1.88,1.88,0,0,1,1.6.76h.06V42.94h.78v7.31H66Z"></path><polygon class="cls-1" points="17.71 38.87 11.07 50.36 14.58 50.36 17.71 44.95 20.83 50.36 24.34 50.36 17.71 38.87"></polygon><path class="cls-1" d="M4.76,50.31l-.08-.54h0a1.56,1.56,0,0,1-.53.46,1.24,1.24,0,0,1-.63.14,1.05,1.05,0,0,1-.77-.26.88.88,0,0,1-.3-.7.91.91,0,0,1,.41-.77,2.38,2.38,0,0,1,1.19-.29h.64v-.24a1.09,1.09,0,0,0-.19-.72.74.74,0,0,0-.63-.25,2.32,2.32,0,0,0-1,.26l-.12-.27a2.81,2.81,0,0,1,1.1-.26,1.09,1.09,0,0,1,.83.29,1.23,1.23,0,0,1,.28.9v2.25Zm-1.24-.22a1.07,1.07,0,0,0,1.16-1.17v-.33H4.09a2.18,2.18,0,0,0-1,.22.64.64,0,0,0-.3.58.62.62,0,0,0,.19.49A.78.78,0,0,0,3.52,50.09Z"></path><path class="cls-1" d="M8.45,50.31V48.12a1,1,0,0,0-.21-.74.86.86,0,0,0-.67-.23,1.19,1.19,0,0,0-.88.3,1.5,1.5,0,0,0-.28,1v1.86H6.08V46.93h.26l.06.46h0a1.28,1.28,0,0,1,1.17-.52c.76,0,1.15.41,1.15,1.23v2.21Z"></path><path class="cls-1" d="M71.45,50.37a1.42,1.42,0,0,1-1.14-.46,1.88,1.88,0,0,1-.41-1.27,1.9,1.9,0,0,1,.43-1.31,1.53,1.53,0,0,1,1.12-.46,2.36,2.36,0,0,1,.84.15l-.08.27a2.76,2.76,0,0,0-.76-.14,1.13,1.13,0,0,0-.94.38,1.68,1.68,0,0,0-.32,1.1,1.62,1.62,0,0,0,.32,1.07,1.06,1.06,0,0,0,.89.39,2,2,0,0,0,.85-.16v.28A1.69,1.69,0,0,1,71.45,50.37Z"></path><path class="cls-1" d="M75.9,48.62a1.86,1.86,0,0,1-.4,1.29,1.41,1.41,0,0,1-1.11.46,1.45,1.45,0,0,1-.78-.21,1.5,1.5,0,0,1-.52-.62,2.39,2.39,0,0,1-.18-.92,2,2,0,0,1,.4-1.29,1.4,1.4,0,0,1,1.1-.46,1.36,1.36,0,0,1,1.09.46A1.89,1.89,0,0,1,75.9,48.62Zm-2.66,0a1.77,1.77,0,0,0,.3,1.08,1,1,0,0,0,.87.39,1,1,0,0,0,.86-.39,1.6,1.6,0,0,0,.31-1.08,1.64,1.64,0,0,0-.31-1.09,1,1,0,0,0-.87-.38,1,1,0,0,0-.86.38A1.84,1.84,0,0,0,73.24,48.62Z"></path><path class="cls-1" d="M81.05,50.31V48.09a1,1,0,0,0-.19-.72.72.72,0,0,0-.59-.22,1,1,0,0,0-.77.28,1.43,1.43,0,0,0-.25.9v2h-.31V48c0-.57-.26-.85-.78-.85a1,1,0,0,0-.78.31,1.6,1.6,0,0,0-.24,1v1.84h-.3V46.93h.25l.07.46h0a1.12,1.12,0,0,1,.4-.38,1.15,1.15,0,0,1,.57-.14,1,1,0,0,1,1,.6h0a1.19,1.19,0,0,1,.44-.45,1.39,1.39,0,0,1,.63-.15,1.09,1.09,0,0,1,.83.29,1.34,1.34,0,0,1,.28.94v2.21Z"></path><path class="cls-1" d="M83.89,50.37a1.21,1.21,0,0,1-1.13-.58h0v2h-.31V46.93h.26l.06.48h0a1.23,1.23,0,0,1,1.11-.54,1.26,1.26,0,0,1,1,.45,2,2,0,0,1,.36,1.3,1.93,1.93,0,0,1-.38,1.29A1.24,1.24,0,0,1,83.89,50.37Zm0-.27a.93.93,0,0,0,.8-.39A1.72,1.72,0,0,0,85,48.63c0-1-.35-1.48-1.07-1.48a1.09,1.09,0,0,0-.87.32,1.74,1.74,0,0,0-.27,1.06v.1A1.93,1.93,0,0,0,83,49.76,1.08,1.08,0,0,0,83.89,50.1Z"></path><path class="cls-1" d="M88.28,50.31l-.07-.54h0a1.44,1.44,0,0,1-.52.46,1.28,1.28,0,0,1-.64.14,1.05,1.05,0,0,1-.77-.26,1,1,0,0,1,.13-1.47,2.39,2.39,0,0,1,1.2-.29h.64v-.24a1.1,1.1,0,0,0-.2-.72.74.74,0,0,0-.63-.25,2.32,2.32,0,0,0-1,.26l-.11-.27a2.68,2.68,0,0,1,1.14-.26,1.11,1.11,0,0,1,.84.29,1.24,1.24,0,0,1,.27.9v2.25ZM87,50.09a1.09,1.09,0,0,0,1.17-1.17v-.33h-.59a2.18,2.18,0,0,0-1,.22.64.64,0,0,0-.3.58.62.62,0,0,0,.19.49A.77.77,0,0,0,87,50.09Z"></path><path class="cls-1" d="M92,50.31V48.12a1,1,0,0,0-.22-.74.83.83,0,0,0-.66-.23,1.18,1.18,0,0,0-.89.3,1.5,1.5,0,0,0-.28,1v1.86H89.6V46.93h.26l.06.46h0a1.28,1.28,0,0,1,1.17-.52c.77,0,1.15.41,1.15,1.23v2.21Z"></path><path class="cls-1" d="M92.79,46.93h.32l.71,1.9c.22.58.36,1,.41,1.17h0c.09-.26.23-.66.43-1.19l.71-1.88h.32l-1.51,3.92a3,3,0,0,1-.31.65.64.64,0,0,1-.29.25.78.78,0,0,1-.4.09,1.4,1.4,0,0,1-.4-.07V51.5a1.28,1.28,0,0,0,.39,0,.45.45,0,0,0,.28-.07.69.69,0,0,0,.22-.23,3.16,3.16,0,0,0,.22-.5c.09-.23.15-.37.17-.44Z"></path><path id="a44b4113-f7dd-4ba8-a4a7-2a722c7938b2" class="cls-1" d="M12.86,15.15h0a12.86,12.86,0,0,1-1.69-1.27A6.14,6.14,0,0,1,15.09,3.4a6.15,6.15,0,0,1-.39,12.28H13.63l-.77-.53M3.8,9.52A6.18,6.18,0,0,1,10,3.35h1.31a7.48,7.48,0,0,0-1.95,10.4,8.28,8.28,0,0,0,.89,1.07,8.12,8.12,0,0,0,1,.86H10A6.17,6.17,0,0,1,3.8,9.52M15.61,17A7.54,7.54,0,0,0,22.2,9.56a7.41,7.41,0,0,0-3.26-6.17h1.3a6.18,6.18,0,0,1,6.21,6.13c0,3.11-2.88,6.16-5.82,6.16A.89.89,0,0,0,20,16a.93.93,0,0,0-.06.73l1.58,4ZM10,2a7.51,7.51,0,0,0,0,15h3.25l9.35,6a.62.62,0,0,0,.37.11.67.67,0,0,0,.43-.16.65.65,0,0,0,.18-.78L21.24,17a7.52,7.52,0,1,0-1-15Z"></path><path class="cls-1" d="M46.87,28.33v-.1a3.52,3.52,0,0,1,3.33-2.52,3.41,3.41,0,0,1,3.28,2.52v.1Zm3.36-4.09a5.11,5.11,0,0,0,0,10.21,4.84,4.84,0,0,0,4.14-2.33.75.75,0,0,0-.23-1h0a.84.84,0,0,0-.56-.08.75.75,0,0,0-.43.33A3.37,3.37,0,0,1,50.23,33a3.51,3.51,0,0,1-3.45-3.09v-.09h7.67a.7.7,0,0,0,.74-.68V29a5,5,0,0,0-4.93-4.75"></path><path class="cls-1" d="M64.58,24.38a.78.78,0,0,0-.6,0,.74.74,0,0,0-.37.39l-3,7-3-7a.71.71,0,0,0-.36-.4.78.78,0,0,0-.31-.07.75.75,0,0,0-.29.06.74.74,0,0,0-.39,1,.08.08,0,0,1,0,0L60,34a.67.67,0,0,0,.22.3.21.21,0,0,0,.08.06h.19a.74.74,0,0,0,.21,0,.67.67,0,0,0,.53-.25.85.85,0,0,0,.15-.3L65,25.26a.77.77,0,0,0,0-.56.76.76,0,0,0-.38-.41"></path><path class="cls-1" d="M67.87,24.24a.74.74,0,0,0-.74.74v8.73a.75.75,0,1,0,1.5,0V25a.74.74,0,0,0-.74-.74h0"></path><path class="cls-1" d="M72.5,28.33v-.1a3.52,3.52,0,0,1,3.33-2.52,3.41,3.41,0,0,1,3.28,2.52v.1Zm3.36-4.09a5.11,5.11,0,0,0,0,10.21A4.84,4.84,0,0,0,80,32.12a.75.75,0,0,0-.23-1h0a.84.84,0,0,0-.56-.08.77.77,0,0,0-.44.33A3.33,3.33,0,0,1,75.86,33a3.54,3.54,0,0,1-3.41-3.13v-.09h7.6a.71.71,0,0,0,.73-.69h0V29a5,5,0,0,0-4.92-4.75"></path><path class="cls-1" d="M94.9,24.33a.7.7,0,0,0-.66.49L91.9,31.5,89.56,25c-.16-.45-.36-.63-.74-.63s-.58.16-.74.63L85.72,31.5l-2.27-6.68a.71.71,0,0,0-.68-.49A.77.77,0,0,0,82,25a1.4,1.4,0,0,0,0,.29l3,8.49c.14.43.38.63.74.63a.78.78,0,0,0,.76-.63l2.36-6.6,2.34,6.6c.16.46.35.63.74.63a.77.77,0,0,0,.77-.63l3-8.49a.62.62,0,0,0,0-.27.78.78,0,0,0-.81-.73"></path><path class="cls-1" d="M67.88,20.1a.95.95,0,0,0,0,1.9.94.94,0,0,0,1-.95h0a1,1,0,0,0-1-.95"></path><path class="cls-1" d="M40.1,26.86h-4V21.59h4a2.64,2.64,0,0,1,0,5.27m0-6.76H35.32a.7.7,0,0,0-.64.72V33.71a.7.7,0,0,0,.68.72h0a.72.72,0,0,0,.76-.68V28.31h2.63l3.71,5.78a.75.75,0,0,0,.58.31.81.81,0,0,0,.81-.76.64.64,0,0,0-.16-.45l-3.14-4.93h.12a4.11,4.11,0,0,0-.63-8.18"></path><path class="cls-1" d="M47.94,16.78A.76.76,0,0,0,48.7,16V3.16a.76.76,0,0,0-.76-.74.74.74,0,0,0-.74.74h0V16a.77.77,0,0,0,.74.75"></path><path class="cls-1" d="M52.45,10.55A3.51,3.51,0,0,1,55.81,8a3.42,3.42,0,0,1,3.28,2.51v.1H52.45Zm7.24,2.88h0a.84.84,0,0,0-.56-.08.75.75,0,0,0-.43.33,3.39,3.39,0,0,1-2.9,1.63,3.51,3.51,0,0,1-3.45-3.09v-.09H60a.72.72,0,0,0,.74-.7h0v-.12a5,5,0,0,0-4.93-4.74,5.06,5.06,0,0,0-5,5.1v0a5,5,0,0,0,4.92,5.08h.08A4.84,4.84,0,0,0,60,14.44a.75.75,0,0,0-.23-1"></path><path class="cls-1" d="M67.12,15.3a3.51,3.51,0,0,1-3.37-3.63,3.38,3.38,0,1,1,6.74-.52,2.26,2.26,0,0,1,0,.52,3.51,3.51,0,0,1-3.37,3.63M72,16V7.3a.74.74,0,0,0-1.48,0V8l-.13-.12a4.75,4.75,0,0,0-3.24-1.31,5,5,0,0,0-4.85,5.1,5,5,0,0,0,4.85,5.11,4.6,4.6,0,0,0,3.24-1.33l.13-.12V16A.74.74,0,0,0,72,16h0"></path><path class="cls-1" d="M75.45,16.78a.72.72,0,0,0,.76-.68V10.76A2.85,2.85,0,0,1,79,8a.68.68,0,0,0,.75-.62.33.33,0,0,0,0-.1.68.68,0,0,0-.64-.73H79a4.43,4.43,0,0,0-2.66.93l-.13.11V7.29a.7.7,0,0,0-.68-.72h0a.72.72,0,0,0-.75.67v8.82a.7.7,0,0,0,.68.72h0"></path><path class="cls-1" d="M43.5,5a.83.83,0,0,0,.43.13.75.75,0,0,0,.59-.29h0a.84.84,0,0,0,0-1h-.07V3.8a6.91,6.91,0,0,0-1.6-1l-.29-.13a6.29,6.29,0,0,0-4.3-.17L38,2.6a7.24,7.24,0,0,0-4.69,6.29V9a.74.74,0,0,1,0,.21v.89A7.2,7.2,0,0,0,38,16.39l.14.06a6.81,6.81,0,0,0,2,.33,6.31,6.31,0,0,0,2.39-.46l.28-.13a6.5,6.5,0,0,0,1.58-1h.05l.06,0a.81.81,0,0,0,0-1h0a.74.74,0,0,0-.59-.28.81.81,0,0,0-.42.12l0,0a5,5,0,0,1-3.27,1.21,5.52,5.52,0,0,1-5.32-5.7,5.54,5.54,0,0,1,5.32-5.71A5,5,0,0,1,43.45,5Z"></path></svg>