<svg xmlns="http://www.w3.org/2000/svg" id="Layer_1" data-name="Layer 1" viewBox="0 0 102.88 52.77"><defs><style>.cls-1{fill:#fff;}</style></defs><g id="B2UqKc"><path class="cls-1" d="M52.48,0a24.12,24.12,0,0,0-11.4,34.87A23.71,23.71,0,0,0,73.26,42.3c10.32-6.24,16.06-22.22,5.36-35.64A51.48,51.48,0,0,1,86,10.59,60.45,60.45,0,0,1,99.81,21.71c4,4.54,4.18,4.92,0,9.33A70,70,0,0,1,64.25,51.22c-16.87,3.92-32.48.13-47.19-8.36a58.16,58.16,0,0,1-12.81-9.8A31.3,31.3,0,0,1,1.59,30c-2.12-2.84-2.12-4.3,0-7.17a42.64,42.64,0,0,1,9.34-8.85A71.45,71.45,0,0,1,45.14.35c1.67-.2,3.37-.24,5-.33C51,0,51.72,0,52.48,0Z"></path><path class="cls-1" d="M71.16,24c0-1.31,0-2.61,0-3.91,0-.7.31-1.49-.73-1.93-.46-.19-.23-1-.16-1.52s.6-.35.93-.35c2.23,0,4.46-.05,6.68,0a3.27,3.27,0,0,1,3.19,1.87,3.12,3.12,0,0,1-.66,3.75c-.41.39-.48.57,0,.95a3.51,3.51,0,0,1,1.29,4.33,3.71,3.71,0,0,1-3.68,2.46c-2,.11-3.92,0-5.87.07-.94,0-1.06-.41-1-1.18C71.19,27,71.16,25.51,71.16,24ZM76,27.73A13.13,13.13,0,0,0,78,27.59a1.7,1.7,0,0,0,1.4-1.9c0-.93-.32-1.72-1.22-1.83a32.18,32.18,0,0,0-4-.12.48.48,0,0,0-.52.5c0,1.08-.36,2.26.16,3.19C74.15,28.08,75.19,27.58,76,27.73Zm-.16-5.92a9.71,9.71,0,0,0,1.62,0A1.85,1.85,0,0,0,78.6,19c-.45-.64-4.25-1-4.8-.5a1.2,1.2,0,0,0-.19.43C73,21,73.65,21.83,75.8,21.81Z"></path><path class="cls-1" d="M62.71,16.3c1.08,0,2.18-.08,3.26,0a3.8,3.8,0,0,1,3.72,4,3.76,3.76,0,0,1-3.54,4.26c-.32.05-.65.09-1,.11-3.1.16-3.16.16-3.08,3.33,0,1.25-.14,1.9-1.62,1.77-.92-.08-1-.42-1-1.19,0-2.67,0-5.33,0-8,0-.89.33-1.81-.73-2.59-.72-.53-.07-1.68.9-1.71s2.06,0,3.1,0Zm-.6,4c-.21,1.37-.24,2.41,1.74,2.25,2.43-.19,3.35-.59,3.4-2.09s-.83-2.07-3.41-2.24C62.05,18.15,61.85,19,62.11,20.34Z"></path><path class="cls-1" d="M52.49,16.27c1.08-.35,1.35.54,1.67,1.36,1.35,3.54,2.71,7.08,4,10.63.16.44.92,1.18,0,1.37-.74.16-2.08.69-2.31-.66-.44-2.6-2-2.91-4.28-2.83-1.53.06-2.35.44-2.57,1.95a1.73,1.73,0,0,1-2.23,1.66c-.86-.1-.83-.37-.58-1,1.49-3.9,3-7.79,4.43-11.7C51,16.11,51.67,16.28,52.49,16.27Zm-.05,3.06H52.1c-.3.84-.63,1.68-.88,2.54s-1,1.69-.49,2.22,1.76.16,2.68.19c.53,0,.65-.26.49-.73C53.41,22.15,52.92,20.74,52.44,19.33Z"></path><path class="cls-1" d="M42.89,29.73c-.84-.17-2.89.41-2-1.4,1.46-2.87.34-5.74.75-8.56.08-.55.16-1.14-.57-1.54s-.33-1.1-.22-1.64.72-.29,1.12-.31a12.69,12.69,0,0,1,1.95,0c.38,0,1-.26,1.08.36s.39,1.32-.29,1.6-.59,1-.59,1.5c0,1.9-.06,3.81,0,5.71,0,.85-.52,1.94.79,2.48.19.08.16.91.09,1.38-.1.65-.68.36-1.06.41A9.43,9.43,0,0,1,42.89,29.73Z"></path></g></svg>