<svg xmlns="http://www.w3.org/2000/svg" id="Layer_1" data-name="Layer 1" viewBox="0 0 163.55 37.63"><defs><style>.cls-1{fill:#fff;}</style></defs><rect class="cls-1" x="17.35" y="29.81" width="1.48" height="1.48" rx="0.25" transform="translate(-16.3 21.74) rotate(-45)"></rect><rect class="cls-1" x="13.61" y="32.66" width="4.2" height="4.2" rx="0.25" transform="translate(-19.98 21.29) rotate(-45)"></rect><rect class="cls-1" x="9.02" y="32.41" width="1.42" height="1.42" rx="0.25" transform="translate(-20.57 16.58) rotate(-45)"></rect><rect class="cls-1" x="10.46" y="27.67" width="3.25" height="3.25" rx="0.25" transform="translate(-17.17 17.13) rotate(-45)"></rect><rect class="cls-1" x="19.84" y="32.94" width="0.77" height="0.77" rx="0.25" transform="translate(-17.64 24.05) rotate(-44.99)"></rect><rect class="cls-1" x="20.97" y="28.64" width="1.32" height="1.32" rx="0.25" transform="translate(-14.38 23.87) rotate(-45)"></rect><rect class="cls-1" x="22.38" y="30.63" width="1.92" height="1.92" rx="0.25" transform="translate(-15.5 25.76) rotate(-45)"></rect><path class="cls-1" d="M31.52,14.86,16.85.41a1.4,1.4,0,0,0-2,0L.41,14.86a1.42,1.42,0,0,0,1,2.42H6.7a.26.26,0,0,1,.26.26H7V28.38a.27.27,0,0,0,.26.27H9a.27.27,0,0,0,.19-.08l2.7-2.72a.27.27,0,0,1,.37,0h0L15,28.57a.26.26,0,0,0,.19.07h5.09a.24.24,0,0,0,.18-.07l1-1a.27.27,0,0,1,.37,0h0l1,1a.26.26,0,0,0,.19.07h1.69a.25.25,0,0,0,.26-.26V17.55a.27.27,0,0,1,.27-.27h5.28a1.41,1.41,0,0,0,1-2.42ZM9,26.83a.86.86,0,0,1-.43.43c-.08,0-.3-.1-.36-.17A.87.87,0,0,1,8,26.83c0-.07.11-.29.18-.36a.88.88,0,0,1,.25-.18.62.62,0,0,1,.36.18C8.9,26.54,9,26.76,9,26.83Zm2.38-2.3a1.18,1.18,0,0,1-.24.31l-.25.25a1.33,1.33,0,0,1-.3.23c-.08,0-.32-.13-.42-.23l-.25-.25a1.39,1.39,0,0,1-.23-.31c0-.08.13-.32.23-.42l.25-.25a1.39,1.39,0,0,1,.31-.23c.08,0,.32.14.42.23l.25.25c.09.1.25.34.22.42Zm3.25-.38-.06.14-.14.05c-.07,0-.23-.05-.24-.05a1.34,1.34,0,0,0,0-.14c0-.07,0-.24,0-.24l.14-.05c.08,0,.24.05.24.05s.08.17.05.24Zm3.65,2.06a1,1,0,0,1-.23.31l-.49.49a1,1,0,0,1-.31.23c-.07,0-.32-.12-.41-.23l-.5-.49a1,1,0,0,1-.22-.31c0-.07.12-.32.22-.41l.5-.5a1.19,1.19,0,0,1,.31-.23c.07,0,.31.13.41.23l.49.5c.1.09.26.34.23.41Zm2.42-2a.84.84,0,0,1-.43.44c-.07,0-.29-.11-.36-.18a1,1,0,0,1-.18-.26c0-.07.11-.29.18-.36a.78.78,0,0,1,.26-.17c.07,0,.29.1.36.17s.2.29.17.36Zm1.11,2.54a.26.26,0,1,1,0-.37.25.25,0,0,1,0,.36h0Zm2.63.95a.81.81,0,0,1-.18.26,1,1,0,0,1-.26.18c-.07,0-.29-.11-.36-.18a.78.78,0,0,1-.17-.26c0-.07.11-.29.17-.36a1.06,1.06,0,0,1,.26-.17c.07,0,.29.1.36.17s.2.29.17.36Z"></path><path class="cls-1" d="M45.78,28.75a15.27,15.27,0,0,1-3.62-.36,5.23,5.23,0,0,1-2.32-1.16,4.43,4.43,0,0,1-1.24-2.09A12,12,0,0,1,38.24,22v-6.2a12,12,0,0,1,.36-3.16,4.37,4.37,0,0,1,1.24-2.11,5.22,5.22,0,0,1,2.32-1.15A14.71,14.71,0,0,1,45.78,9h7.5a15,15,0,0,1,3.66.37,5.18,5.18,0,0,1,2.31,1.15,4.37,4.37,0,0,1,1.24,2.11,12,12,0,0,1,.36,3.16V22a12,12,0,0,1-.36,3.17,4.43,4.43,0,0,1-1.24,2.09,5.25,5.25,0,0,1-2.31,1.16,15.57,15.57,0,0,1-3.66.36ZM56.44,16a6.11,6.11,0,0,0-.16-1.54,2,2,0,0,0-.53-1,2.17,2.17,0,0,0-1-.53,7.9,7.9,0,0,0-1.61-.14H46a7.93,7.93,0,0,0-1.69.15,2,2,0,0,0-1,.52,1.86,1.86,0,0,0-.51,1A8,8,0,0,0,42.62,16v5.82a7.61,7.61,0,0,0,.13,1.58,1.79,1.79,0,0,0,.51,1,2,2,0,0,0,1,.49A8.69,8.69,0,0,0,46,25h7.13a8.67,8.67,0,0,0,1.61-.13,1.83,1.83,0,0,0,1.56-1.48,6.47,6.47,0,0,0,.16-1.58Z"></path><path class="cls-1" d="M85,29.18A3.75,3.75,0,0,1,83.7,29a3.29,3.29,0,0,1-1.12-.71L68.18,14.69V28.75H64.09V10.37A1.55,1.55,0,0,1,64.75,9a2.91,2.91,0,0,1,1.69-.45,3.13,3.13,0,0,1,1.25.2,2.55,2.55,0,0,1,.81.52L83,23.27V9h4.17V27.36a1.57,1.57,0,0,1-.61,1.4A2.74,2.74,0,0,1,85,29.18Z"></path><path class="cls-1" d="M97.94,28.75a15.33,15.33,0,0,1-3.62-.36A5.23,5.23,0,0,1,92,27.23a4.34,4.34,0,0,1-1.23-2.09A12,12,0,0,1,90.41,22v-6.2a12,12,0,0,1,.36-3.16A4.35,4.35,0,0,1,92,10.5a5.22,5.22,0,0,1,2.32-1.15A14.76,14.76,0,0,1,97.94,9h13.8v3.74H97.94a6.31,6.31,0,0,0-1.56.16,2.2,2.2,0,0,0-1,.5,1.81,1.81,0,0,0-.5.93,7,7,0,0,0-.12,1.45v1.33h16.83V20.6H94.78V22a6.68,6.68,0,0,0,.13,1.48,1.71,1.71,0,0,0,1.45,1.41,8.35,8.35,0,0,0,1.58.12h13.8v3.75Z"></path><path class="cls-1" d="M122,28.75a15.42,15.42,0,0,1-3.63-.36,5.29,5.29,0,0,1-2.32-1.16,4.41,4.41,0,0,1-1.23-2.09,12,12,0,0,1-.36-3.17V9h4.44V21.82a4.84,4.84,0,0,0,.19,1.52,2.25,2.25,0,0,0,.59,1,2.4,2.4,0,0,0,1.09.52,8.4,8.4,0,0,0,1.66.14h6.64a8.5,8.5,0,0,0,1.67-.14,2.45,2.45,0,0,0,1.09-.52,2.19,2.19,0,0,0,.59-1,5.33,5.33,0,0,0,.19-1.54V9H137V22a11.54,11.54,0,0,1-.37,3.17,4.34,4.34,0,0,1-1.23,2.09,5.25,5.25,0,0,1-2.31,1.16,15.57,15.57,0,0,1-3.66.36Z"></path><path class="cls-1" d="M144.72,23.1v5.65h-4.41V9h15.83a15.28,15.28,0,0,1,3.53.34,5.16,5.16,0,0,1,2.29,1.1,4.14,4.14,0,0,1,1.23,2,10.48,10.48,0,0,1,.36,2.95v1.71a10.52,10.52,0,0,1-.34,2.93A3.71,3.71,0,0,1,162,21.85a4.94,4.94,0,0,1-2.27,1,18.85,18.85,0,0,1-3.59.28Zm14.43-7.65a2.66,2.66,0,0,0-.68-2.11,4.07,4.07,0,0,0-2.45-.57h-11.3v6.56h11.36a4.07,4.07,0,0,0,2.41-.52,2.51,2.51,0,0,0,.66-2Z"></path></svg>