<svg xmlns="http://www.w3.org/2000/svg" id="Layer_1" data-name="Layer 1" viewBox="0 0 135.02 62.38"><defs><style>.cls-1{fill:#fff;}</style></defs><path class="cls-1" d="M9.65,31.11h11v-5.4h-11V23.12a13.65,13.65,0,0,1,25.94-6l4.86-2.37A19.08,19.08,0,0,0,23.3,4.06,19.09,19.09,0,0,0,4.24,23.12V39.24H9.65Z"></path><path class="cls-1" d="M28.86,28.47a4.06,4.06,0,1,0,4.06-4.06,4.06,4.06,0,0,0-4.06,4.06"></path><path class="cls-1" d="M35.7,44.87a13.73,13.73,0,0,1-24.85-.18L6,47a19.12,19.12,0,0,0,34.62.26Z"></path><polygon class="cls-1" points="59.68 22.03 59.68 28.77 71.03 28.77 71.03 33.29 59.68 33.29 59.68 44.2 54.11 44.2 54.11 17.54 74.06 17.54 74.06 22.03 59.68 22.03"></polygon><path class="cls-1" d="M95.83,24V44.2H90.91l-.2-3.48c-1.3,2.59-3.65,3.88-7.07,3.88a7.4,7.4,0,0,1-5.19-1.76q-1.92-1.76-1.92-5.47V24h5.53V36A4.89,4.89,0,0,0,83,39.27a3.38,3.38,0,0,0,2.63,1A4.55,4.55,0,0,0,89,38.89a5.66,5.66,0,0,0,1.31-4.06V24Z"></path><path class="cls-1" d="M114.77,42.94a7.15,7.15,0,0,1-2.44,1.22,10.84,10.84,0,0,1-3.09.44q-6.75,0-6.74-6.1V28.12H98.82V24h3.68V19.36L108,17.83V24h6.54v4.12H108v9.49a2.47,2.47,0,0,0,2.79,2.79,4.69,4.69,0,0,0,3.11-1.13Z"></path><path class="cls-1" d="M131.54,24.05l-.69,4.84a5.12,5.12,0,0,0-6,.83,5.44,5.44,0,0,0-1.43,4V44.2h-5.53V24h4.8l.37,4a6.18,6.18,0,0,1,6.26-4.36,4.37,4.37,0,0,1,2.18.45"></path></svg>