<svg xmlns="http://www.w3.org/2000/svg" id="Layer_1" data-name="Layer 1" viewBox="0 0 146.88 66.37"><defs><style>.cls-1{fill:#fff;}</style></defs><g id="J07iWa.tif"><path class="cls-1" d="M.55,25.29c.39-.45.35-1.05.54-1.57a10.66,10.66,0,0,1,8.47-7.11c.75-.15,1.19-.06,1.22,1,.17,6.13.43,12.25.74,18.38.1-.66.24-1.31.3-2,.34-3.3,1.21-4.15,4.48-4.48a16.42,16.42,0,0,0,3.93-.67,5.38,5.38,0,0,0,3.55-3.91,4.92,4.92,0,0,1-.5,2.32c-.51,1.79-1.15,3.54-1.68,5.32-.72,2.45-2,4.15-4.82,4.36-1.75.14-3.48.62-5.23.75A10.36,10.36,0,0,1,.76,29.08c0-.14,0-.28-.21-.33Z"></path><path class="cls-1" d="M82.42,40.3c-2.27,0-4.36,0-6.46,0a.75.75,0,0,1-.79-.56c-.92-2.14-1.9-4.25-2.78-6.41-.41-1-.09-2.14-.16-3.21,0-.44,0-.88,0-1.3-.16-1.1,0-1.81,1.37-1.9,1-.07,1.28-.77,1.26-1.69S74.2,24,73.52,23.77a1.54,1.54,0,0,0-.43-.05c-1.93-.13-1.93-.13-1.93,1.79,0,4.62,0,9.24,0,13.86,0,.77-.21,1-1,1-1.59-.06-3.19,0-4.78,0-.58,0-.82-.11-.82-.76q0-10.66,0-21.34c0-.44,0-.77.61-.74,3.21.12,6.44-.28,9.64.21a7.33,7.33,0,0,1,6.3,5.15,7.13,7.13,0,0,1-2.11,7.65.85.85,0,0,0-.23,1.15C80,34.47,81.2,37.31,82.42,40.3Z"></path><path class="cls-1" d="M125.79,32.13c0,2.42,0,4.84,0,7.26,0,.67-.14,1-.9.93-1.66-.06-3.33-.06-5,0-.8,0-.94-.28-.94-1,0-4.3,0-8.6,0-12.89a4.2,4.2,0,0,0,0-.87c-.14-.71-.46-1.35-1.28-1.38a1.33,1.33,0,0,0-1.36,1.16,12.46,12.46,0,0,0-.11,3.34c0,.62.6.42.94.39.78-.07,1,.23,1,1-.06,1.29,0,2.6,0,3.9,0,.72-.13,1.11-.93,1s-1,.29-1,1c0,1.15,0,2.31,0,3.46,0,.63-.1.91-.82.89-1.7-.06-3.4,0-5.1,0-.6,0-.82-.15-.82-.78,0-4.91-.12-9.83.06-14.73a7.49,7.49,0,0,1,6.84-7.16c2.8-.33,5.24.18,7.19,2.29a8.63,8.63,0,0,1,2.24,6.13C125.78,28.08,125.79,30.1,125.79,32.13Z"></path><path class="cls-1" d="M40.38,28.93C40.2,23,45.85,18,50.64,17.62a11.54,11.54,0,0,1,9.92,3.63c.54.57.74.94-.15,1.4q-2.2,1.14-4.29,2.49a1.32,1.32,0,0,1-1.7-.08,4.6,4.6,0,0,0-5.43.33,4.67,4.67,0,0,0-1.42,5.17,4.77,4.77,0,0,0,7.72,1.54A.73.73,0,0,1,56.38,32c1.53.88,3.06,1.77,4.63,2.57.79.4.61.77.2,1.31A11.12,11.12,0,0,1,54.38,40a11.53,11.53,0,0,1-13.65-8.42A7.88,7.88,0,0,1,40.38,28.93Z"></path><path class="cls-1" d="M140.66,32.12c0,2.42,0,4.84,0,7.26,0,.78-.24,1-1,.94-1.6-.06-3.19-.07-4.78,0-.88,0-1.16-.18-1.15-1.11,0-4.69,0-9.39,0-14.09,0-.88-.21-1.21-1.14-1.14s-2.09,0-3.14,0c-.64,0-.91-.14-.89-.84,0-1.62,0-3.25,0-4.87,0-.57.1-.84.76-.84,5.18,0,10.35,0,15.53,0,.55,0,.77.13.76.72,0,1.7,0,3.39,0,5.09,0,.58-.2.75-.76.73-1.09,0-2.18.06-3.26,0-.9-.07-1.06.29-1.05,1.1C140.69,27.42,140.66,29.77,140.66,32.12Z"></path><path class="cls-1" d="M29.28,46.56a14.83,14.83,0,0,1,4.51-.86q5.31-.59,10.64-1.05c2.29-.21,4.6-.34,6.9-.47,5.05-.29,10.09-.55,15.14-.83.22,0,.43,0,.65,0,11.4-.2,22.8-.31,34.2-.2q9,.08,17.9.44c4.36.17,8.72.47,13.06.86,4.77.42,9.52,1,14.28,1.52.06,0,.11.07.17.12,0,.28-.25.21-.39.2-4.52-.17-9-.36-13.55-.52-2.28-.08-4.56-.19-6.83-.23-12.27-.24-24.54-.34-36.81-.23Q75.1,45.4,61,45.72c-9.11.2-18.2.92-27.32.85C32.23,46.55,30.75,46.56,29.28,46.56Z"></path><path class="cls-1" d="M95.22,33.37l.88.31a2,2,0,0,0,2.35-.59c.66-.68.43-1.37.09-2.08a21.93,21.93,0,0,1-1.89-4.56,7.43,7.43,0,0,1,6.1-8.79c.25,0,.49-.14.74-.15a5.13,5.13,0,0,1,2.93.48c.65.39.22,1.4.25,2.13,0,1.08,0,2.17,0,3.25,0,.44,0,.78-.64.59a1.88,1.88,0,0,0-2,2.87,34.73,34.73,0,0,1,1.58,3.32c1.81,4.47-1,8.86-5.62,9.94a7.16,7.16,0,0,1-4.15-.25c-.35-.13-.63-.27-.62-.75C95.24,37.22,95.22,35.35,95.22,33.37Z"></path><path class="cls-1" d="M31.11,28.86c0-3.5,0-7,0-10.5,0-.7.18-.92.9-.9,1.74.05,3.47,0,5.21,0,.56,0,.75.17.75.74q0,10.71,0,21.42c0,.54-.19.68-.7.68-1.77,0-3.54,0-5.31,0-.68,0-.85-.19-.85-.85C31.12,35.93,31.11,32.4,31.11,28.86Z"></path><path class="cls-1" d="M85.25,17.53c2.21,2.67,4.8,4.65,6.17,7.65A5.36,5.36,0,0,1,92,27.54q0,5.91,0,11.8c0,.74-.16,1-.95,1-1.69-.06-3.39,0-5.09,0-.49,0-.71-.09-.71-.64C85.26,32.38,85.25,25.1,85.25,17.53Z"></path><path class="cls-1" d="M26.56,2.55a2.25,2.25,0,0,1-.1,1.3c-.52,1.63-1.09,3.24-1.51,4.9a4.76,4.76,0,0,1-4.45,3.73c-1.31.18-2.61.46-3.93.62a3,3,0,0,0-2.18,1.38c.21-1.55.32-2.9.57-4.21.13-.67.15-1.35.31-2a3.42,3.42,0,0,1,3-2.91c1.38-.22,2.76-.44,4.13-.68A5.54,5.54,0,0,0,26,2.81C26.07,2.66,26.21,2.44,26.56,2.55Z"></path><path class="cls-1" d="M13.4,22.21c.29-2,.55-3.86.82-5.68a3.18,3.18,0,0,1,3-3c1.45-.2,2.91-.39,4.35-.7a7,7,0,0,0,4.14-2.66,5,5,0,0,1-.1.87c-.68,2.14-1.33,4.3-2.08,6.42a4.62,4.62,0,0,1-4.12,3.26C17.42,21,15.33,20.92,13.4,22.21Z"></path><path class="cls-1" d="M12.31,30.23c.29-2,.52-3.86.83-5.68a3.14,3.14,0,0,1,3.09-2.79,35.51,35.51,0,0,0,4.47-.7,5.93,5.93,0,0,0,3.64-2.63,2.32,2.32,0,0,1,0,1.39c-.52,1.63-1.1,3.25-1.53,4.91a5.12,5.12,0,0,1-5,4.17C16,29.06,14.07,29,12.31,30.23Z"></path><path class="cls-1" d="M86.3,1.15c-.24,1.4-.88,2.67-1.2,4.05-.92,4,.34,7.1,3.51,9.56a28.51,28.51,0,0,1,2.19,1.93A5.15,5.15,0,0,1,91.87,23c-1.31-2.72-3.87-4.29-5.69-6.53C82.18,11.59,82,6,86.32,1.18Z"></path><path class="cls-1" d="M86.74,10.45a2.78,2.78,0,0,1,2.79-2.93,3,3,0,0,1,2.88,2.93,3,3,0,0,1-2.93,2.87A2.76,2.76,0,0,1,86.74,10.45Z"></path><path class="cls-1" d="M8.78,41a2.3,2.3,0,0,1,2.44-2.4,2.33,2.33,0,0,1,2.35,2.52A2.4,2.4,0,1,1,8.78,41Z"></path><path class="cls-1" d="M19.39,41.07c-3.29,4.86-8.52,5.55-13.72,6.31-.06-.36.26-.35.45-.46a25.67,25.67,0,0,1,6.54-2.68,18.42,18.42,0,0,0,6.43-3.09,1.3,1.3,0,0,1,.26-.14S19.39,41.06,19.39,41.07Z"></path><path class="cls-1" d="M33.49,62.39v2.35c0,.19,0,.38-.25.41s-.35-.16-.35-.41c0-1.08,0-2.16,0-3.24,0-.18,0-.38.22-.42s.41.12.55.28l2.39,2.74c0-.86,0-1.45,0-2,0-.34-.27-.94.29-1s.33.59.35.92a19.45,19.45,0,0,1,0,2.16c0,.32.23.79-.22.95s-.59-.29-.82-.56c-.64-.76-1.3-1.51-2-2.26Z"></path><path class="cls-1" d="M39.45,53.59c-.21,1.08.1,2-.22,2.89h-.34c0-1.28,0-2.57,0-3.85,0-.4.36-.23.54,0,.5.57,1,1.16,1.49,1.71a1.77,1.77,0,0,0,1.08.77c0-.75,0-1.44,0-2.14,0-.2-.05-.48.24-.52s.28.26.28.45c0,1,0,2.09,0,3.14,0,.17,0,.39-.18.45s-.38-.12-.54-.27A28.31,28.31,0,0,0,39.45,53.59Z"></path><path class="cls-1" d="M100.18,62.25c-1.55,1.18-1.55,1.18-2.58-.24,0,1,0,1.77,0,2.53,0,.26.09.64-.38.6s-.26-.37-.26-.59c0-1,0-1.94,0-2.92,0-.19-.1-.45.19-.55a.52.52,0,0,1,.57.21c.09.11.2.21.29.32.8,1,.78,1,1.65.1.22-.25.39-.75.8-.61s.22.68.24,1c0,.75,0,1.51,0,2.27,0,.25.18.68-.24.71s-.26-.43-.27-.67C100.16,63.77,100.18,63.09,100.18,62.25Z"></path><path class="cls-1" d="M55.31,53.48c0,.91,0,1.54,0,2.17,0,.29.28.85-.32.82s-.28-.57-.29-.88c0-.82,0-1.65,0-2.48,0-.23-.14-.54.17-.67s.51.12.7.35c.71.86,1.44,1.7,2.25,2.66a12.81,12.81,0,0,0,.13-2.51c0-.19-.08-.49.22-.51s.27.29.27.48q0,1.52,0,3c0,.19.1.46-.2.53s-.39-.16-.52-.31C57,55.34,56.23,54.52,55.31,53.48Z"></path><path class="cls-1" d="M115.74,63.08a.85.85,0,0,1,0-.32c.24-.55-.59-1.48.5-1.69,1.61-.31,2.59.19,3,1.36a2,2,0,0,1-.89,2.4,4.11,4.11,0,0,1-2.21.34c-.43,0-.44-.27-.44-.58Zm.44-.09c.27.57-.53,1.67.93,1.56,1.14-.08,1.67-.5,1.66-1.51a1.62,1.62,0,0,0-1.83-1.53C115.63,61.51,116.51,62.53,116.18,63Z"></path><path class="cls-1" d="M74.62,53.37c0,1,0,1.65,0,2.35,0,.27.23.74-.29.76S74,56,74,55.77c0-.87,0-1.73,0-2.59,0-.26-.18-.62.2-.75s.58.21.78.45c.7.81,1.38,1.64,2.25,2.7,0-1,0-1.83,0-2.63,0-.22-.1-.56.32-.54s.31.33.31.57c0,.93,0,1.87,0,2.8,0,.24.21.61-.23.71s-.52-.19-.7-.4C76.2,55.25,75.5,54.41,74.62,53.37Z"></path><path class="cls-1" d="M112.7,56.5c-.94,0-1-.76-1.36-1.19-.2-.25-.36-.59-.75-.51s-.25.52-.29.8a3.25,3.25,0,0,0,0,.54c0,.2-.06.35-.3.35s-.29-.17-.29-.36c0-1.11-.06-2.23,0-3.34.06-.76.76-.36,1.14-.37a1.11,1.11,0,0,1,1.19,1.14A4.48,4.48,0,0,0,112.7,56.5Zm-2.41-3.07c0,.44,0,.72.48.7s.64-.15.63-.55a.74.74,0,0,0-.79-.71C110.17,52.85,110.33,53.26,110.29,53.43Z"></path><path class="cls-1" d="M133.07,63.18a2,2,0,0,1-2.17,2,2.07,2.07,0,1,1,.17-4.12A1.9,1.9,0,0,1,133.07,63.18Zm-.59-.08a1.6,1.6,0,0,0-1.54-1.6,1.64,1.64,0,0,0-1.55,1.61,1.43,1.43,0,0,0,1.5,1.48A1.47,1.47,0,0,0,132.48,63.1Z"></path><path class="cls-1" d="M98.25,52.4a2,2,0,0,1,2.17,2.09,2.17,2.17,0,1,1-2.17-2.09Zm1.56,2.15a1.65,1.65,0,0,0-1.46-1.7,1.61,1.61,0,0,0-1.61,1.54A1.5,1.5,0,0,0,98.24,56,1.58,1.58,0,0,0,99.81,54.55Z"></path><path class="cls-1" d="M68.75,54.5a1.91,1.91,0,0,1,2.14-2.1,2,2,0,0,1,2.2,2.1,2.13,2.13,0,0,1-2.22,2A1.94,1.94,0,0,1,68.75,54.5ZM70.84,56a1.55,1.55,0,0,0,1.61-1.52,1.66,1.66,0,0,0-1.53-1.63,1.7,1.7,0,0,0-1.63,1.55A1.61,1.61,0,0,0,70.84,56Z"></path><path class="cls-1" d="M68.94,61.05A1.9,1.9,0,0,1,71,63.11a2.17,2.17,0,0,1-4.34-.06A2,2,0,0,1,68.94,61.05Zm-.11,3.54a1.62,1.62,0,0,0,1.65-1.49,1.74,1.74,0,0,0-1.6-1.6,1.69,1.69,0,0,0-1.64,1.55A1.53,1.53,0,0,0,68.83,64.59Z"></path><path class="cls-1" d="M113.13,65.13c-.91.09-1-.63-1.3-1s-.43-.74-.91-.63-.19.6-.28.92.16.71-.21.73c-.52,0-.28-.48-.29-.74,0-.8,0-1.59,0-2.39,0-.29-.18-.76.2-.85a1.79,1.79,0,0,1,1.66.19c.33.27.65.74.41,1-.85,1,0,1.56.43,2.26A5.9,5.9,0,0,1,113.13,65.13Zm-2.49-3c0,.33,0,.65.46.64s.72-.17.71-.6-.35-.61-.72-.67C110.56,61.43,110.66,61.84,110.64,62.15Z"></path><path class="cls-1" d="M84.38,63.07c0,.47,0,.94,0,1.4,0,.25.17.67-.29.67s-.36-.47-.33-.72c.1-.8-.16-1.05-1-1s-1.43,0-1.22,1.12c0,.23.16.64-.31.65s-.32-.4-.32-.64c0-1,0-1.95,0-2.92,0-.22-.1-.54.31-.54s.35.31.33.54c-.06.74-.07,1.28,1,1.22.86,0,1.4-.11,1.2-1.15-.05-.24-.12-.64.36-.6s.25.38.26.6C84.4,62.14,84.38,62.6,84.38,63.07Z"></path><path class="cls-1" d="M53.63,62.72c0,2-.4,2.51-1.82,2.45a1.57,1.57,0,0,1-1.64-1.4,15.59,15.59,0,0,1,0-2.27c0-.22,0-.43.33-.44s.31.22.31.44c0,.65,0,1.3,0,1.94a1.18,1.18,0,0,0,2.35.15c.07-.72,0-1.44,0-2.16,0-.18,0-.38.28-.34s.19.19.19.33C53.63,61.85,53.63,62.28,53.63,62.72Z"></path><path class="cls-1" d="M47.53,54.42V54.1c0-1.84,0-1.84,1.8-1.7.2,0,.51-.1.52.21s-.36.23-.58.27-.88-.21-1,.3-.09,1,.75,1c.28,0,.84-.27.84.31s-.5.26-.79.29-.88-.11-.86.6.55.46.92.54.75-.22.78.29-.47.31-.72.32C47.53,56.56,47.53,56.55,47.53,54.42Z"></path><path class="cls-1" d="M53.91,56.37c-.46.22-.68.14-.87-.23a6.39,6.39,0,0,0-.75-1c-.16-.2-.35-.39-.64-.31s-.19.41-.23.64,0,.22,0,.33c-.07.26.2.74-.35.72s-.27-.43-.28-.68c0-.8,0-1.59,0-2.38s0-1.12.88-1,1.72.29,1.43,1.11C52.66,54.75,53.25,55.52,53.91,56.37Zm-2.49-3c0,.35-.1.76.49.73a.53.53,0,0,0,.59-.58c0-.5-.32-.61-.65-.68S51.43,53.12,51.42,53.4Z"></path><path class="cls-1" d="M109.26,64.92c0,.06-.09.18-.16.21-.25.08-.39,0-.49-.27-.21-.47-.29-1-1.06-1a1.25,1.25,0,0,0-1.43.94c-.09.27-.27.49-.55.35s0-.39.05-.56c.42-1,.85-2.06,1.29-3.08.14-.34.46-.67.68-.23C108.21,62.43,108.71,63.67,109.26,64.92Zm-2.48-1.55a2,2,0,0,0,1.1,0,2.7,2.7,0,0,0-.63-1.25Z"></path><path class="cls-1" d="M130.28,56.4c-.57.23-.75-.07-.93-.4a7.7,7.7,0,0,0-.6-.89c-.16-.19-.35-.39-.64-.32s-.17.41-.25.62c-.12.36.31,1-.31,1s-.28-.68-.32-1a14,14,0,0,1,0-2c0-.32-.24-.83.25-.92a1.89,1.89,0,0,1,1.66.22c.35.31.69.79.41,1.12-.74.88,0,1.39.34,2C130,56,130.12,56.16,130.28,56.4Zm-2.4-3c0,.43,0,.73.48.7s.6-.21.58-.61-.39-.62-.73-.65S127.92,53.26,127.88,53.43Z"></path><path class="cls-1" d="M128.44,65.13c-.82.13-.89-.58-1.18-1s-.43-.84-.94-.7-.15.63-.24,1,.17.67-.26.7-.32-.45-.33-.72c0-.82,0-1.66,0-2.49,0-.28-.21-.75.25-.81s1.24-.25,1.73.31c.28.33.62.74.26,1.14-.54.61-.29,1,.13,1.52A2,2,0,0,1,128.44,65.13Zm-2.35-3c0,.39,0,.7.47.68s.65-.16.64-.55a.73.73,0,0,0-.78-.72C125.94,61.5,126.14,61.91,126.09,62.11Z"></path><path class="cls-1" d="M95.82,56.48c-.87.07-.95-.59-1.24-1s-.41-.77-.87-.68-.21.59-.29.9.19.77-.32.75-.24-.51-.25-.79c0-.78.06-1.59,0-2.37-.12-.95.41-1,1.08-.91s1.57.74,1.23,1.24c-.78,1.15.08,1.69.49,2.43C95.69,56.18,95.73,56.31,95.82,56.48Zm-2.41-3c0,.36-.06.7.46.68.36,0,.67-.12.68-.51s-.39-.7-.79-.75S93.46,53.23,93.41,53.45Z"></path><path class="cls-1" d="M75.07,65.07c-.51.24-.69,0-.88-.38a7.13,7.13,0,0,0-.68-.95c-.16-.19-.35-.39-.64-.29s-.13.43-.21.64.33,1-.32,1-.27-.68-.31-1c-.07-.68,0-1.38,0-2.05-.13-.93.33-1,1.09-1s1.33.4,1.3,1.21A3.41,3.41,0,0,0,75.07,65.07Zm-2.41-2.93c0,.27-.13.67.43.65s.67-.21.66-.66-.39-.57-.73-.61C72.52,61.47,72.72,61.89,72.66,62.14Z"></path><path class="cls-1" d="M138.82,52.37V56.5c-.44-.07-.39-.34-.36-.52.21-1.13-.37-1.28-1.33-1.24-.74,0-1.17.1-1,1,0,.25.22.75-.29.75s-.25-.45-.25-.7q0-1.35,0-2.7c0-.26-.12-.67.34-.63s.16.39.21.61-.24.92.26,1a4.44,4.44,0,0,0,1.92,0c.36-.09.11-.65.17-1S138.36,52.55,138.82,52.37Z"></path><path class="cls-1" d="M113.54,54.39v-.65c0-1.26.73-1.76,1.95-1.34a.35.35,0,0,1,.22.19c0,.17-.09.26-.24.28a4.82,4.82,0,0,1-.76,0c-.55-.05-.64.25-.66.72s.34.49.7.54,1-.29,1,.31-.63.25-1,.29-.68.06-.69.58.25.6.67.57a4.1,4.1,0,0,1,.86,0c.1,0,.22.18.25.3s-.1.26-.25.26c-.58,0-1.16,0-1.73,0-.37,0-.3-.35-.31-.59Z"></path><path class="cls-1" d="M122.08,52.56c-.37.47-.76.3-1.09.3-.49,0-.7.14-.71.67s.31.62.74.6c.22,0,.44,0,.65,0s.34.08.33.31a.3.3,0,0,1-.34.31c-.29,0-.58,0-.87,0-.48,0-.49.28-.5.64s.18.45.51.51,1.19-.32,1.15.32-.83.19-1.27.28c-.84.19-1.05-.22-1-1a11.88,11.88,0,0,0,0-2.15c-.06-.75.18-1.07,1-1A4,4,0,0,1,122.08,52.56Z"></path><path class="cls-1" d="M126.47,56.41c-.48.17-.68,0-.76-.34a1.11,1.11,0,0,0-1.24-.89,1,1,0,0,0-1.14.86c-.07.26-.25.54-.51.43s0-.47,0-.69c.37-.92.74-1.86,1.15-2.77.1-.22.12-.61.51-.6s.31.36.42.56.27.58.4.87ZM125,54.66a1.88,1.88,0,0,0-.66-1.12l-.43,1.16A1.57,1.57,0,0,0,125,54.66Z"></path><path class="cls-1" d="M87.92,61.29a1.4,1.4,0,0,1-1.14.21c-.52,0-.66.16-.68.67s.26.67.72.62a.69.69,0,0,1,.32,0c.24.06.67-.18.68.27s-.42.26-.67.32-.86-.25-1,.3c-.2.72.18.93.87.88.28,0,.85-.25.8.35s-.52.24-.8.25c-1.52,0-1.52,0-1.52-1.53v-.86C85.49,60.85,85.87,60.6,87.92,61.29Z"></path><path class="cls-1" d="M60.93,61.06c-.35.59-.77.45-1.14.44s-.56.26-.58.67.14.68.62.62a.5.5,0,0,1,.21,0c.28.07.79-.2.81.24s-.53.3-.84.34-.79-.09-.81.56.43.61.85.61h.54c.21,0,.34.08.35.31s-.12.31-.32.31H59c-.33,0-.43-.17-.43-.47,0-1.05,0-2.09,0-3.14,0-.28,0-.51.4-.51Z"></path><path class="cls-1" d="M39.7,61.88a7.13,7.13,0,0,0-.64-.34.57.57,0,0,0-.75.25c-.2.31,0,.54.22.73.41.34.94.53,1.23,1a1,1,0,0,1-.11,1.19,1.22,1.22,0,0,1-1.37.39c-.39-.12-.86-.27-.65-.87.19-.12.26,0,.37.11.41.26.91.5,1.22,0s-.16-.79-.54-1a2.73,2.73,0,0,1-.92-.73,1,1,0,0,1,0-1.1c.29-.52.77-.46,1.23-.46S39.79,61.15,39.7,61.88Z"></path><path class="cls-1" d="M133.19,52.4h.32c.4,0,.91.06,1,.42.19.61-.23.39-.53.24-.13-.05-.29,0-.42-.08a1.45,1.45,0,0,0-1.71.55,1.36,1.36,0,0,0-.18,1.61,1.62,1.62,0,0,0,1.51.85c.11,0,.24-.1.31-.07.36.16.92-.63,1,0s-.67.56-1.16.57a2.12,2.12,0,0,1-2.46-2A2.08,2.08,0,0,1,133.19,52.4Z"></path><path class="cls-1" d="M104.59,55.51c.27.16.48.27.68.41a.58.58,0,0,0,.85-.15c.27-.33,0-.61-.21-.82s-.81-.6-1.18-.94a.84.84,0,0,1-.06-1.09c.29-.56.8-.53,1.31-.53s.71.23.71.68c-.26.17-.4,0-.54-.08-.36-.21-.7-.24-.92.16s.11.68.4.86a3.41,3.41,0,0,1,1.05.91.89.89,0,0,1,0,1.09,1.25,1.25,0,0,1-1.43.47C104.78,56.39,104.36,56.2,104.59,55.51Z"></path><path class="cls-1" d="M96.15,61.27A1.28,1.28,0,0,1,95,61.5c-.53,0-.68.15-.69.67s.26.63.72.63c.28,0,.79-.21.81.22s-.52.35-.82.35c-.49,0-.72.09-.71.65s.33.53.71.52c.21,0,.43,0,.65,0s.35.07.37.3-.21.3-.42.33h-.11c-1.84.18-1.84.18-1.84-1.65v-.76C93.7,60.84,94,60.63,96.15,61.27Z"></path><path class="cls-1" d="M90.33,56.49a1.9,1.9,0,0,1-2-1.25,2,2,0,0,1,.53-2.34,2.39,2.39,0,0,1,2.54-.34c.2.07.46.15.37.42-.16.49-.51.11-.68,0a1.65,1.65,0,0,0-2,.44,1.41,1.41,0,0,0-.19,1.7c.48.86,1.21.82,2,.73.23,0,.63-.56.77,0s-.46.43-.75.56A1.71,1.71,0,0,1,90.33,56.49Z"></path><path class="cls-1" d="M101.44,54.42a5.13,5.13,0,0,0,0-1c-.23-1.13.47-1.12,1.25-1.07s1.3.52,1.21,1.38a.93.93,0,0,1-.91.89c-.88.05-1.19.41-1,1.26,0,.2.12.58-.29.54s-.21-.33-.21-.53C101.44,55.43,101.44,54.93,101.44,54.42Zm1.13-.3c.42.07.76-.1.78-.51s-.46-.67-.88-.74-.48.33-.52.68S102.12,54.2,102.57,54.12Z"></path><path class="cls-1" d="M63.08,56.45c-.44.12-.65,0-.72-.29a1.12,1.12,0,0,0-1.25-1,1.1,1.1,0,0,0-1.21.94c-.09.28-.25.49-.54.34s0-.37.06-.54c.42-1,.86-2,1.28-3.07.08-.2.11-.42.39-.44s.32.26.39.42C62,54,62.54,55.22,63.08,56.45Zm-2-3.1-.5,1.35c.38.09.87.21,1,0C61.71,54.23,61.31,53.84,61,53.35Z"></path><path class="cls-1" d="M80.5,55.24c-.66-.17-1,.11-1.18.74-.07.26-.2.73-.63.48s0-.51.12-.72c.37-1,.82-1.88,1.21-2.82.1-.24.18-.5.48-.49s.29.29.38.47c.45,1,.9,2,1.32,3,.06.16.49.41,0,.57s-.43-.16-.52-.39C81.47,55.55,81.27,55,80.5,55.24Zm-.64-.49c.46,0,.81.12,1.14-.09a2.4,2.4,0,0,0-.64-1.16Z"></path><path class="cls-1" d="M141.31,61.06a1.75,1.75,0,0,1,.65,0c.25.12.75.11.63.55s-.59.07-.74,0a1.59,1.59,0,0,0-1.92.54,1.37,1.37,0,0,0-.05,1.79c.56.77,1.37.65,2.16.52.2,0,.45-.4.56.08s-.23.38-.45.45a2.3,2.3,0,0,1-2.5-.44,2,2,0,0,1-.43-2.37A1.85,1.85,0,0,1,141.31,61.06Z"></path><path class="cls-1" d="M118.61,53c-.31.1-.47-.09-.67-.14a.65.65,0,0,0-.8.39c-.14.33.14.51.38.67.61.41,1.39.65,1.28,1.65a.91.91,0,0,1-.67.87,1.42,1.42,0,0,1-1.42-.24.45.45,0,0,1,0-.38c.08-.21.24-.07.35,0,.45.23.95.4,1.19-.17s-.4-.82-.79-1.07c-.65-.4-1.06-.91-.7-1.68s1-.55,1.52-.47A.43.43,0,0,1,118.61,53Z"></path><path class="cls-1" d="M46.66,52.52c-1.75.13-1.23,1.42-1.31,2.42,0,.52.3,1.49-.27,1.47-.77,0-.19-1-.37-1.5a.81.81,0,0,1,0-.22c0-1.57,0-1.57-1.27-2.17Z"></path><path class="cls-1" d="M90.53,64.36c.58,0,1.26.75,1.61,0s-.58-.92-1-1.25a1.09,1.09,0,0,1-.54-1.26,1,1,0,0,1,1-.75c.45,0,1-.09,1,.59-.29.21-.43,0-.62-.1-.34-.09-.66-.09-.84.26s0,.61.34.79a6.11,6.11,0,0,1,.91.58,1.07,1.07,0,0,1,.37,1.24,1.14,1.14,0,0,1-1.18.76C91.09,65.13,90.59,65.09,90.53,64.36Z"></path><path class="cls-1" d="M143.54,64.26c.34.14.59.28.86.37a.64.64,0,0,0,.73-.32c.22-.27,0-.47-.21-.63-.4-.35-.85-.66-1.23-1a.89.89,0,0,1-.05-1.18c.35-.59.94-.42,1.46-.4s.62.29.5.78a3.5,3.5,0,0,1-.55-.24.63.63,0,0,0-.94.21c-.23.38.12.57.36.76a5.1,5.1,0,0,1,1,.79,1.18,1.18,0,0,1,.07,1.32,1.11,1.11,0,0,1-1.33.45C143.83,65.05,143.32,65,143.54,64.26Z"></path><path class="cls-1" d="M134.14,65.14c0-1.26-.07-2.53,0-3.78.05-.59.71-.25,1.09-.29.56-.07,1.12,0,1.26.7a1.18,1.18,0,0,1-.38,1.36l-.09,0c-1.23.09-1.77.74-1.39,2.14Zm1.11-2.36c.49.07.81-.18.78-.63s-.44-.61-.88-.65-.52.32-.54.7S134.8,62.85,135.25,62.78Z"></path><path class="cls-1" d="M49.43,61.18c-1.83.17-1.34,1.53-1.42,2.62,0,.44.31,1.26-.27,1.26s-.11-.85-.23-1.31a.4.4,0,0,1,0-.11c0-1,.56-2.51-1.47-2.46Z"></path><path class="cls-1" d="M121.19,61.12h3.41a1.46,1.46,0,0,1,0,.26c-1.5-.07-1.39.91-1.37,1.94,0,.6.25,1.77-.2,1.71-.71-.1-.19-1.13-.32-1.74a2.36,2.36,0,0,1,0-.75c.08-.72,0-1.21-.94-1C121.5,61.54,121.22,61.53,121.19,61.12Z"></path><path class="cls-1" d="M40.18,61.12h3.64l0,.26c-1.74-.09-1.28,1.16-1.38,2.13-.06.54.44,1.41-.31,1.53-.35,0-.12-1-.2-1.52a2,2,0,0,1,0-.54c.1-.94.06-1.75-1.26-1.51C40.57,61.48,40.48,61.36,40.18,61.12Z"></path><path class="cls-1" d="M66,63c-.08.09-.12.19-.16.19-1.17-.14-1.6.38-1.38,1.51,0,.2,0,.45-.27.48s-.37-.24-.37-.5c0-1,0-2,0-3,0-.4.11-.61.55-.57a5.74,5.74,0,0,1,1.64.11c-.21.81-1.83-.28-1.53,1.15C64.63,63.27,65.56,62.37,66,63Z"></path><path class="cls-1" d="M83.15,54.49a11.78,11.78,0,0,1,0-1.19c0-.31-.22-.86.32-.85s.22.51.24.79a7.62,7.62,0,0,1,0,1.51c-.1.84.1,1.29,1.07,1.15.29,0,.85-.23.83.35s-.51.24-.78.25C83.15,56.56,83.15,56.55,83.15,54.49Z"></path><path class="cls-1" d="M57.85,61.16a.61.61,0,0,1-.71.34c-.67-.09-.77.26-.75.82,0,.75,0,1.5,0,2.26,0,.22.11.55-.28.57s-.36-.34-.37-.61c0-.64,0-1.29,0-1.93s0-1.3-1-1.12c-.13,0-.29,0-.29-.33Z"></path><path class="cls-1" d="M63,52.5h3.33c-.06.16-.09.27-.11.27-1.27-.13-1.45.59-1.33,1.62a12.48,12.48,0,0,1,0,1.73c0,.18,0,.36-.27.38s-.37-.14-.37-.39c0-.54,0-1.08,0-1.63C64.2,53,64.2,53,63,52.5Z"></path><path class="cls-1" d="M76.82,61.25A12.78,12.78,0,0,1,80,61.06a2,2,0,0,1,0,.32c-1.32-.1-1.33.75-1.25,1.69,0,.54,0,1.08,0,1.62,0,.21,0,.45-.29.47s-.35-.26-.36-.5V63.14C78.09,61.65,78.09,61.65,76.82,61.25Z"></path><path class="cls-1" d="M31.76,63.1v1.62c0,.22,0,.43-.33.44s-.33-.21-.33-.43V61.5c0-.21,0-.44.32-.44s.34.2.34.43Z"></path><path class="cls-1" d="M45.25,63.05v1.62c0,.2,0,.47-.29.47s-.25-.22-.25-.4q0-1.62,0-3.24c0-.17,0-.39.23-.41s.3.24.3.44C45.25,62,45.25,62.54,45.25,63.05Z"></path><path class="cls-1" d="M114.45,63.24c0,.54,0,1.08,0,1.62,0,.16-.08.28-.25.28a.24.24,0,0,1-.26-.27c0-1.15,0-2.3,0-3.45,0-.2.07-.37.31-.33s.22.25.22.42c0,.58,0,1.15,0,1.73Z"></path><path class="cls-1" d="M67.67,54.44c0,.54,0,1.09,0,1.63,0,.21,0,.44-.32.43s-.3-.14-.3-.35c0-1.12,0-2.23,0-3.35,0-.26.11-.41.39-.39s.23.24.23.41C67.68,53.36,67.67,53.9,67.67,54.44Z"></path><path class="cls-1" d="M138.06,63.12v1.62c0,.22,0,.44-.34.42s-.31-.22-.31-.44q0-1.62,0-3.24c0-.23,0-.43.34-.42s.3.24.3.45C138.06,62.05,138.06,62.58,138.06,63.12Z"></path><path class="cls-1" d="M37.58,52.43c0,1.27,0,2.54,0,3.81a.31.31,0,0,1-.18.22.22.22,0,0,1-.28-.24v-3.8Z"></path><path class="cls-1" d="M102.47,63.16c0,.5,0,1,0,1.51,0,.2,0,.46-.29.46s-.24-.23-.24-.4V61.5c0-.17,0-.39.23-.41s.3.24.3.45C102.47,62.08,102.46,62.62,102.47,63.16Z"></path><path class="cls-1" d="M104.13,64.1c-.24-.08-.66.15-.67-.31s.45-.33.71-.33.76-.19.73.33S104.39,64,104.13,64.1Z"></path><path class="cls-1" d="M86.32,1.18l.17-.06c0,.15-.11.14-.19,0Z"></path></g></svg>