<svg xmlns="http://www.w3.org/2000/svg" id="Layer_1" data-name="Layer 1" viewBox="0 0 115.89 41.45"><defs><style>.cls-1{fill:#fff;}</style></defs><path class="cls-1" d="M39.61,8.62c0,3.26-1.77,5.48-4.43,5.48H33.06v5.64h-4V3.19h6.1C37.84,3.19,39.61,5.4,39.61,8.62Zm-4.08.09c0-1.35-.39-2.12-1-2.12H33.06v4.27h1.43C35.14,10.86,35.53,10.11,35.53,8.71Z"></path><path class="cls-1" d="M52.41,19.39v.35H48.1L45,13.89v5.85H41V3.19h6.11c2.66,0,4.43,2.07,4.43,5.17,0,2.4-1,4.15-2.61,4.87ZM45,6.59v4.5h1.19c.84,0,1.28-.89,1.28-2.26s-.44-2.24-1.28-2.24Z"></path><path class="cls-1" d="M52.83,11.44C52.83,6.36,55.32,3,59,3s6.18,3.41,6.18,8.49S62.74,20,59,20,52.83,16.57,52.83,11.44Zm8.32,0c0-3.08-.86-5.1-2.12-5.1s-2.12,2-2.12,5.1.84,5.11,2.1,5.11S61.15,14.52,61.15,11.46Z"></path><path class="cls-1" d="M64.2,20.93c1.54-.07,3.15-1,3.15-4.64V3.19h4v13.1c0,5.45-2.91,8.09-6.5,8.09Z"></path><path class="cls-1" d="M83,16.34v3.4H73.57V3.19h9.28l-.53,3.4H77.56V9.76h3.75v3.36H77.56v3.22Z"></path><path class="cls-1" d="M83.8,11.46C83.8,6.36,86.53,3,90.71,3a8.88,8.88,0,0,1,3.59.77l-.52,3.2a5.52,5.52,0,0,0-2.58-.56c-2,0-3.32,1.84-3.32,5.1s1.36,5.11,3.32,5.11a6.3,6.3,0,0,0,2.54-.51l.56,3.14a8.72,8.72,0,0,1-3.59.77C86.53,20,83.8,16.57,83.8,11.46Z"></path><path class="cls-1" d="M106,6.59h-3.59V19.74h-4V6.59H94.9V3.19H106Z"></path><path class="cls-1" d="M40,22.25V38.81H35.86L33.06,31v7.84h-4V22.25h4.29l2.68,8v-8Z"></path><path class="cls-1" d="M51.69,35.4v3.41H42.32V22.25h9.27l-.53,3.41H46.3v3.17h3.76v3.35H46.3V35.4Z"></path><path class="cls-1" d="M64,27.68c0,3.27-1.78,5.48-4.43,5.48H57.44v5.65h-4V22.25h6.11C62.22,22.25,64,24.47,64,27.68Zm-4.08.1c0-1.35-.4-2.12-1.05-2.12H57.44v4.26h1.43C59.52,29.92,59.92,29.18,59.92,27.78Z"></path><path class="cls-1" d="M75.6,25.66H72V38.81h-4V25.66H64.46V22.25H75.6Z"></path><path class="cls-1" d="M76.86,32.56V22.25h4V32.44c0,2.24.38,3.19,1.5,3.19s1.51-1,1.51-3.19V22.25h4V32.56c0,4.85-2.08,6.48-5.48,6.48S76.86,37.41,76.86,32.56Z"></path><path class="cls-1" d="M100.94,22.25V38.81H96.81L94,31v7.84H90V22.25h4.29l2.68,8v-8Z"></path><path class="cls-1" d="M112.64,35.4v3.41h-9.37V22.25h9.28L112,25.66h-4.76v3.17H111v3.35h-3.76V35.4Z"></path><path class="cls-1" d="M16.31,15.52C18.39,15.6,18.84,17,20,17a1.71,1.71,0,0,0,.69-.17,3.77,3.77,0,0,0,1-.8s-2.21-2.17-2.32-4.19a8.09,8.09,0,0,0-.91-4.13,1.11,1.11,0,0,1-.17-.53c0-.89.9-2.87.4-3.29-.9-.74-2.38,2-3.25,1.71s-1.06-3.16-2-3.16-.86,2.91-1.63,3.25l-.08,0c-1,.28-2.6-2-3.5-1.34-.65.5.81,3.08.2,3.69s-2.93-.39-3.24.61,2.23,2.23,2.15,2.8h0c-.12.57-3,.74-3,1.83s2.83,1.05,3,1.81h0c.14.76-2.37,1.82-1.88,2.7s2.57,0,3.25,1.18h0a14.53,14.53,0,0,0-4.88,7.86A15.62,15.62,0,0,1,7,26.22a8.93,8.93,0,0,1,3.48-4.7c.31.35.74.84,1.11,1.2a1.85,1.85,0,0,0,.14.14,13.73,13.73,0,0,0-2.41,3.28,8.94,8.94,0,0,1,2.7.45,11.11,11.11,0,0,1,1.56-1.72c.38.45.72.89,1,1.33a4,4,0,0,0-.74,1.19s3.34,1.88,2.8,5.45a6.77,6.77,0,0,1-1,2.29c-2,2.9-5.88,2.54-7.1.52-1.1-1.84-.78-3.78,1.36-4.73,2.49-1.11,4.13,1.65,2.45,2.48a1,1,0,0,1-1.63-.9s-1.19.29-.65,1.76c.46,1.23,2.63,1.91,4.1-.17,1.27-1.79-.07-4.52-2.36-5-2.66-.58-7.08,2-5.06,7.21.69,1.79,3.77,3.76,7.71,2.26,4.24-1.62,6.11-5.43,5.51-9.76-.51-3.7-3.4-7.84-5.83-10.87-1.7-2.14-1.61-3.51-1.61-4C12.61,13.89,13.1,15.41,16.31,15.52Z"></path></svg>